<svg width="703" height="267" viewBox="0 0 703 267" fill="none" xmlns="http://www.w3.org/2000/svg">
<path d="M690.162 48.1833C668.782 94.5461 627.352 132.475 577.798 153.029" stroke="#5FA3E1" stroke-miterlimit="10"/>
<path d="M683.866 60.5688C691.458 54.7018 696.519 46.4868 698.12 37.4316C698.436 36.3631 698.5 35.2436 698.308 34.1499C698.115 33.0562 697.67 32.0142 697.003 31.0954C696.58 30.6113 695.979 30.2891 695.316 30.1902C694.786 30.2122 694.268 30.3471 693.803 30.5844C693.337 30.8217 692.937 31.1551 692.632 31.559C688.926 35.4446 687.62 40.8315 686.978 45.9977C686.337 51.1638 685.125 54.9832 683.961 60.5688" fill="#8CC0F1"/>
<path d="M673.676 76.3323C678.108 68.1371 679.221 58.7338 676.811 49.8393C676.641 48.7399 676.217 47.6877 675.569 46.7543C674.922 45.8209 674.065 45.0282 673.058 44.4303C672.476 44.1366 671.795 44.0654 671.157 44.2316C670.676 44.4341 670.252 44.7396 669.922 45.1234C669.592 45.5071 669.364 45.9581 669.257 46.4393C667.499 51.3847 668.616 56.7937 670.231 61.8936C671.846 66.9935 672.369 70.7246 673.676 76.3764" fill="#8CC0F1"/>
<path d="M658.685 95.8928C664.146 88.2803 666.482 79.0972 665.266 70.018C665.266 68.8856 664.996 67.7673 664.474 66.744C663.952 65.7207 663.192 64.818 662.249 64.1012C661.711 63.7474 661.048 63.5974 660.396 63.6818C659.894 63.8341 659.437 64.093 659.062 64.4379C658.687 64.7828 658.403 65.2042 658.234 65.6687C655.858 70.3933 656.215 75.8906 657.165 81.123C658.115 86.3554 658.091 90.2189 658.685 95.8708" fill="#8CC0F1"/>
<path d="M641.439 112.848C646.861 105.254 649.186 96.1088 647.995 87.0618C647.973 85.9489 647.693 84.8536 647.172 83.8512C646.651 82.8489 645.903 81.9633 644.978 81.2554C644.43 80.9042 643.761 80.7547 643.102 80.836C642.6 80.9883 642.143 81.2472 641.768 81.5921C641.393 81.937 641.109 82.3585 640.94 82.8229C638.564 87.5475 638.921 93.0448 639.895 98.2772C640.868 103.51 640.821 107.373 641.391 113.047" fill="#8CC0F1"/>
<path d="M615.641 132.519C621.936 125.468 625.307 116.556 625.143 107.395C625.239 106.284 625.076 105.167 624.666 104.119C624.256 103.072 623.609 102.118 622.767 101.324C622.264 100.927 621.622 100.715 620.962 100.728C620.445 100.836 619.961 101.053 619.549 101.363C619.137 101.674 618.807 102.068 618.586 102.516C615.664 106.931 615.451 112.473 615.807 117.683C616.163 122.893 615.807 126.823 615.688 132.519" fill="#323232"/>
<path d="M595.4 145.082C601.754 138.449 605.6 130.068 606.352 121.216C606.8 119.047 606.332 116.802 605.045 114.946C604.868 114.723 604.644 114.535 604.387 114.395C604.13 114.255 603.845 114.164 603.549 114.129C602.646 114.129 601.886 114.857 601.316 115.63C598.553 120.117 597.134 125.209 597.206 130.378C596.945 135.588 596.089 139.43 595.4 145.082Z" fill="#323232"/>
<path d="M668.568 83.3087C678.745 84.7637 689.151 82.9076 698.025 78.0542C699.174 77.5734 700.202 76.8755 701.045 76.0051C701.887 75.1347 702.526 74.1107 702.919 72.9985C703.087 72.3936 702.994 71.7515 702.658 71.2102C702.298 70.8367 701.847 70.5492 701.342 70.3724C700.838 70.1956 700.295 70.1346 699.759 70.1947C693.939 70.1947 688.357 72.7557 683.368 75.7582C678.379 78.7607 674.246 80.4165 668.568 83.3087Z" fill="#8CC0F1"/>
<path d="M656.452 98.1005C665.956 101.796 676.546 102.303 686.408 99.5355C687.646 99.3273 688.823 98.8822 689.866 98.2285C690.909 97.5748 691.794 96.7268 692.466 95.7382C692.625 95.4631 692.723 95.1615 692.756 94.8507C692.788 94.54 692.754 94.2263 692.656 93.9279C692.323 93.0006 691.159 92.559 690.114 92.2941C684.484 90.9253 678.379 92.2941 672.772 94.0603C667.166 95.8265 662.7 96.5551 656.452 98.1005Z" fill="#8CC0F1"/>
<path d="M638.351 115.189C646.87 120.559 657.127 123.024 667.38 122.165C668.64 122.184 669.891 121.963 671.056 121.515C672.22 121.067 673.273 120.401 674.15 119.56C674.579 119.071 674.784 118.444 674.72 117.816C674.578 116.844 673.556 116.204 672.582 115.741C667.356 113.356 661.085 113.533 655.193 114.261C649.302 114.99 644.812 114.835 638.351 115.189Z" fill="#8CC0F1"/>
<path d="M613.027 135.014C622.619 138.495 633.212 138.784 643.007 135.831C644.241 135.591 645.407 135.116 646.434 134.436C647.46 133.755 648.323 132.885 648.97 131.879C649.271 131.325 649.331 130.685 649.136 130.091C648.868 129.656 648.494 129.286 648.045 129.01C647.595 128.734 647.082 128.559 646.547 128.501C640.869 127.243 634.811 128.722 629.229 130.709C623.646 132.696 619.251 133.402 613.027 135.125" fill="#8CC0F1"/>
<path d="M592.55 146.384C599.439 153.486 608.752 158.165 618.919 159.63C620.138 159.931 621.411 159.994 622.658 159.816C623.905 159.637 625.099 159.221 626.164 158.593C626.709 158.221 627.075 157.667 627.186 157.047C627.153 156.546 626.994 156.06 626.722 155.626C626.45 155.193 626.071 154.825 625.618 154.553C621.176 151.064 615.047 149.85 609.155 149.232C603.264 148.614 598.917 147.444 592.526 146.362" fill="#323232"/>
<path d="M68.9756 74.9414C103.939 73.75 138.706 80.3062 170.404 94.0684C202.103 107.831 229.823 128.404 251.276 154.089" stroke="#5FA3E1" stroke-miterlimit="10"/>
<path d="M83.68 74.8089C74.7064 71.0838 64.5949 70.4652 55.1733 73.0648C53.9677 73.2426 52.8198 73.6677 51.8131 74.3092C50.8064 74.9508 49.966 75.7927 49.3531 76.7738C49.0595 77.3305 49.0084 77.9712 49.2106 78.562C49.4472 78.9862 49.7837 79.3553 50.195 79.642C50.6063 79.9287 51.0818 80.1255 51.5862 80.2179C57.0025 81.6308 62.7751 80.3724 68.0726 78.6504C73.3701 76.9283 77.5748 76.2881 83.49 74.8089" fill="#8CC0F1"/>
<path d="M103.421 76.4426C93.586 76.2926 84.0192 79.426 76.4584 85.2736C75.4643 85.8925 74.6266 86.7045 74.0032 87.6536C73.3798 88.6027 72.9855 89.6663 72.8475 90.7709C72.8226 91.3858 73.0522 91.9863 73.4889 92.4488C73.8962 92.7624 74.3776 92.9819 74.8938 93.0894C75.4099 93.1968 75.9461 93.1891 76.4584 93.067C82.0172 92.3826 86.7921 89.0709 90.9018 85.5385C95.0116 82.0061 98.6224 79.8867 103.421 76.3542" fill="#8CC0F1"/>
<path d="M128.816 80.4385C119.048 79.1984 109.126 81.2589 100.855 86.2449C99.7892 86.7445 98.8525 87.4533 98.1101 88.3224C97.3677 89.1916 96.8373 90.2002 96.5556 91.2786C96.4573 91.8933 96.6006 92.5204 96.9595 93.0448C97.3379 93.39 97.7944 93.6524 98.2958 93.8128C98.7972 93.9732 99.3308 94.0277 99.8577 93.9721C105.464 93.9721 110.619 91.1903 115.18 88.1657C119.741 85.141 123.566 83.3969 128.816 80.4385Z" fill="#8CC0F1"/>
<path d="M152.833 87.4593C143.065 86.2192 133.143 88.2797 124.872 93.2657C123.815 93.7702 122.888 94.4813 122.154 95.3501C121.42 96.2189 120.896 97.225 120.62 98.2994C120.522 98.9141 120.665 99.5411 121.024 100.066C121.402 100.411 121.859 100.673 122.36 100.834C122.862 100.994 123.395 101.048 123.922 100.993C129.528 100.993 134.683 98.211 139.245 95.1864C143.806 92.1618 147.654 90.4177 152.88 87.4593" fill="#8CC0F1"/>
<path d="M183.145 100.485C173.555 98.2892 163.435 99.3787 154.638 103.554C153.538 103.956 152.543 104.575 151.723 105.368C150.903 106.16 150.277 107.108 149.887 108.146C149.709 108.743 149.777 109.381 150.077 109.934C150.413 110.318 150.837 110.626 151.318 110.836C151.799 111.046 152.325 111.153 152.857 111.148C158.439 111.634 163.879 109.404 168.749 106.733C173.619 104.062 177.634 102.825 183.169 100.397" fill="#8CC0F1"/>
<path d="M204.121 111.899C194.932 109.497 185.151 109.938 176.256 113.158C173.957 113.734 171.984 115.109 170.745 116.999C170.628 117.25 170.568 117.521 170.568 117.794C170.568 118.067 170.628 118.338 170.745 118.589C171.101 119.383 172.17 119.67 173.12 119.803C178.666 120.164 184.215 119.126 189.179 116.8C194.334 114.769 198.444 113.798 204.193 111.899" fill="#8CC0F1"/>
<path d="M112.401 77.6789C109.385 68.5325 103.056 60.6381 94.4888 55.3364C93.5093 54.5752 92.3691 54.0129 91.1417 53.6859C89.9143 53.3589 88.6268 53.2744 87.3621 53.4378C86.7084 53.5685 86.1317 53.9232 85.7467 54.4313C85.5417 54.8956 85.4606 55.399 85.5103 55.8988C85.5599 56.3985 85.7388 56.8797 86.0318 57.3013C88.4073 62.2025 93.491 65.7129 98.5747 68.5829C103.658 71.453 107.056 74.1906 112.329 77.6789" fill="#8CC0F1"/>
<path d="M131.927 81.3878C131.354 71.8326 127.231 62.7582 120.263 55.7117C119.517 54.7676 118.568 53.9779 117.476 53.3926C116.384 52.8073 115.174 52.4393 113.921 52.3118C113.587 52.2969 113.253 52.3439 112.939 52.45C112.625 52.5561 112.337 52.7193 112.091 52.9299C111.776 53.3363 111.569 53.8061 111.487 54.3011C111.404 54.796 111.449 55.302 111.616 55.778C112.757 61.0766 116.724 65.6025 120.905 69.5102C125.086 73.4179 127.699 76.8178 131.927 81.3878Z" fill="#8CC0F1"/>
<path d="M156.443 89.0267C157.928 79.5573 155.847 69.9018 150.552 61.6947C150.006 60.6518 149.239 59.7228 148.295 58.9638C147.352 58.2048 146.253 57.6317 145.064 57.2792C144.41 57.1408 143.723 57.2354 143.14 57.5441C142.744 57.886 142.44 58.3104 142.254 58.7824C142.068 59.2544 142.006 59.7607 142.071 60.2597C142.071 65.6687 144.946 70.8348 148.2 75.4269C151.455 80.019 153.284 83.8605 156.443 89.115" fill="#8CC0F1"/>
<path d="M186.708 101.567C185.887 92.0233 181.54 83.0376 174.403 76.1335C173.638 75.203 172.673 74.4317 171.568 73.8689C170.463 73.3062 169.244 72.9646 167.989 72.866C167.318 72.8632 166.671 73.1003 166.183 73.5283C165.875 73.938 165.677 74.4107 165.607 74.9064C165.537 75.4022 165.596 75.9064 165.78 76.3763C167.039 81.6528 171.101 86.0904 175.282 89.9098C179.463 93.7292 182.266 97.085 186.613 101.567" fill="#8CC0F1"/>
<path d="M206.639 113.731C210.533 104.874 211.004 95.0354 207.97 85.8917C207.734 84.7425 207.246 83.6511 206.534 82.686C205.823 81.7209 204.904 80.9031 203.836 80.284C203.54 80.1364 203.216 80.0448 202.881 80.0145C202.547 79.9841 202.209 80.0157 201.888 80.1074C201.414 80.3458 201.009 80.687 200.707 81.1021C200.405 81.5172 200.215 81.9939 200.154 82.4917C198.705 87.7241 200.154 93.398 202.173 98.6083C204.193 103.819 204.929 107.925 206.639 113.731Z" fill="#8CC0F1"/>
<path d="M372.43 166.21C292.16 164.002 219.206 165.017 138.889 166.21C136.727 166.21 133.781 166.784 132.617 165.084C128.412 158.858 169.961 152.566 207.685 149.232C209.394 149.221 211.056 148.712 212.436 147.775C215.406 145.258 213.054 140.511 214.408 137.001C215.952 133.071 221.534 132.034 225.953 133.071C230.372 134.109 234.22 136.515 238.662 137.156C243.105 137.796 248.663 135.632 248.948 131.46C249.186 128.391 246.573 125.874 245.48 122.96C243.105 116.557 251.015 109.25 257.881 111.391C262.014 112.694 265.91 116.535 269.948 114.99C273.987 113.444 273.726 108.035 274.7 103.951C276.743 95.4733 286.91 90.8371 296.222 89.976C303.105 89.3775 310.046 90.1316 316.594 92.1893C323.143 94.2471 329.152 97.5625 334.231 101.92C346.87 113.285 356.245 127.41 361.503 143.006C364.195 151.098 367.86 158.882 372.43 166.21Z" fill="#C4E2FE"/>
<path d="M451.465 147.333C451.323 141.358 451.323 135.375 451.465 129.384C451.75 121.414 452.558 112.959 457.713 106.6C461.015 102.538 467.666 95.1863 472.631 93.0227C486.647 86.9293 496.387 85.9138 511.472 89.3799C518.052 90.9033 528.101 97.0408 530.239 105.143C534.539 96.8863 554.66 85.5826 581.171 99.3148C602.313 110.243 595.424 135.08 590.982 140.688C591.615 140.182 592.354 139.803 593.153 139.577C593.952 139.351 594.792 139.282 595.621 139.375C596.451 139.468 597.25 139.72 597.968 140.116C598.686 140.511 599.308 141.042 599.794 141.673C600.279 142.305 600.618 143.023 600.788 143.783C600.958 144.542 600.956 145.327 600.782 146.086C600.607 146.845 600.265 147.562 599.776 148.191C599.287 148.82 598.663 149.347 597.942 149.74C604.549 147.266 611.546 145.812 618.657 145.435C622.159 145.063 625.705 145.487 628.991 146.671C630.612 147.288 632.018 148.31 633.053 149.623C634.089 150.936 634.714 152.489 634.859 154.111C634.859 157.357 628.136 159.873 628.136 159.873C628.136 159.873 657.118 154.928 666.287 160.425C677.12 166.894 670.825 168.704 668.829 168.682L490.662 166.475C487.312 166.475 482.561 165.569 479.188 165.569H450.206C451.149 159.532 451.57 153.434 451.465 147.333Z" fill="#C9E9F8"/>
<path d="M253.285 180.516C253.285 180.516 235.659 164.576 233.188 145.898C230.718 127.221 230.813 107.638 213.59 105.806C196.367 103.973 201.831 134.948 195.464 135.412C189.098 135.875 186.152 51.517 160.662 50.2365C135.172 48.956 140.327 85.2956 144.033 104.9C146.409 117.131 146.955 123.159 139.591 123.159C127.191 123.159 127.856 89.402 123.461 62.07C119.066 34.7381 110.704 13.7865 78.8478 13.7865C46.9915 13.7865 65.6159 54.7845 75.9021 72.0932C86.1883 89.402 98.9451 109.912 87.7799 112.628C76.6148 115.343 67.9915 87.0618 49.272 88.9604C30.5526 90.8591 22.8557 123.114 40.9338 140.423C59.0118 157.732 12.427 147.267 14.9689 180.516H253.285Z" fill="#9CCCFA"/>
<path d="M84.1221 13.1023C84.1221 13.1023 117.879 115.145 130.659 180.516" stroke="#7FB9F0" stroke-width="0.88" stroke-miterlimit="10"/>
<path d="M41.1475 92.0515C58.3557 124.962 81.513 154.885 109.611 180.516" stroke="#7FB9F0" stroke-width="0.88" stroke-miterlimit="10"/>
<path d="M155.483 50.5237C155.483 50.5237 171.162 112.341 167.836 180.516" stroke="#7FB9F0" stroke-width="0.88" stroke-miterlimit="10"/>
<path d="M216.844 107.506C216.844 107.506 214.279 141.637 208.696 180.516" stroke="#7FB9F0" stroke-width="0.88" stroke-miterlimit="10"/>
<path d="M0.962891 180.626H271.278" stroke="#4D82C0" stroke-width="0.88" stroke-miterlimit="10"/>
<path d="M76.0546 63.8805C76.0546 63.8805 59.0931 81.0347 59.9483 86.2229L67.265 91.6099C67.265 91.6099 94.1089 68.0532 94.9641 63.461C95.8193 58.8689 76.0546 63.8805 76.0546 63.8805Z" fill="#AC7E70"/>
<path opacity="0.1" d="M105.892 233.745C125.559 233.745 141.502 232.035 141.502 229.926C141.502 227.816 125.559 226.106 105.892 226.106C86.2252 226.106 70.2822 227.816 70.2822 229.926C70.2822 232.035 86.2252 233.745 105.892 233.745Z" fill="#0D3B48"/>
<path d="M109.122 11.6893C109.122 11.6893 102.875 10.2984 104.823 17.0982C106.509 23.0812 113.755 20.5423 115.703 28.137C117.651 35.7317 116.297 43.5912 113.018 45.2471L112.71 52.7534C118.268 53.6866 123.873 54.3571 129.505 54.7625C130.855 54.2451 131.952 53.2836 132.587 52.0619C133.223 50.8401 133.352 49.4437 132.949 48.1392C132.949 48.1392 137.962 48.3379 138.556 45.5561C139.15 42.7744 138.152 40.3679 133.567 40.0809C133.567 40.0809 136.251 37.9836 134.897 35.7758C134.464 35.1496 133.811 34.682 133.049 34.4526C132.286 34.2232 131.462 34.2461 130.716 34.5174C131.462 33.8969 131.936 33.0422 132.045 32.1172C132.155 31.1923 131.893 30.2623 131.31 29.5058C130.909 28.7559 130.224 28.1699 129.387 27.8603C128.55 27.5507 127.619 27.5391 126.773 27.8279C127.678 25.3058 127.678 22.5787 126.773 20.0566C124.469 15.1333 118.601 8.24516 109.122 11.6893Z" fill="#2C356B"/>
<path d="M120.383 40.5224C120.378 41.0953 120.557 41.6567 120.896 42.1352C121.235 42.6137 121.719 42.9878 122.287 43.2101C122.856 43.4324 123.482 43.4928 124.087 43.3837C124.693 43.2746 125.249 43.0009 125.687 42.5974C126.124 42.1938 126.423 41.6785 126.545 41.1169C126.667 40.5553 126.607 39.9726 126.372 39.4429C126.137 38.9131 125.739 38.4601 125.226 38.1413C124.714 37.8226 124.111 37.6524 123.495 37.6523C122.674 37.6523 121.886 37.954 121.303 38.4916C120.72 39.0292 120.389 39.7592 120.383 40.5224Z" fill="#F8B780"/>
<path d="M95.1545 39.5953C97.7391 39.5953 99.8343 37.4603 99.8343 34.8266C99.8343 32.1929 97.7391 30.0579 95.1545 30.0579C92.5699 30.0579 90.4746 32.1929 90.4746 34.8266C90.4746 37.4603 92.5699 39.5953 95.1545 39.5953Z" fill="#AC7E70"/>
<path d="M96.3657 52.0912L104.633 52.9522L103.801 38.8888L95.8193 39.0213L96.3657 52.0912Z" fill="#001118"/>
<path d="M101.616 37.8291L102.21 52.1574L88.4316 54.8067C88.4316 54.8067 102.281 61.8274 113.28 61.2313C124.279 60.6352 125.158 54.8067 125.158 54.8067L113.636 52.3119L113.613 45.1147L101.616 37.8291Z" fill="#AC7E70"/>
<path opacity="0.4" d="M113.754 51.1859L113.612 43.9445L101.33 34.7823L102.233 49.6626C106.1 49.9731 109.947 50.4817 113.754 51.1859Z" fill="#7F594F"/>
<path d="M108.908 15.5527C108.908 15.5527 120.287 16.0605 122.544 23.6552C124.801 31.2498 126.155 41.0964 119.361 45.7327C112.566 50.369 102.399 47.2781 97.7191 40.8977C93.0393 34.5173 90.83 18.6215 108.908 15.5527Z" fill="#AC7E70"/>
<path d="M114.61 32.2876C115.37 33.5683 116.331 34.7365 117.461 35.7537L115.371 37.5862" fill="#7F594F"/>
<path d="M114.254 40.1252C113.791 40.7814 113.136 41.3006 112.365 41.6215C111.595 41.9423 110.741 42.0513 109.906 41.9355C109.036 41.8426 108.212 41.521 107.531 41.0083C107.182 40.7674 106.893 40.4592 106.683 40.1048C106.474 39.7505 106.35 39.3582 106.319 38.9551C106.994 39.1754 107.685 39.3524 108.386 39.4849C109.004 39.4849 109.574 39.6836 110.168 39.7499C111.379 39.8823 112.567 39.9486 114.254 40.1252Z" fill="#7F594F"/>
<path d="M115.228 24.7148C115.294 24.3811 115.442 24.0662 115.66 23.7943C115.878 23.5225 116.161 23.3011 116.487 23.1473C117.139 22.8152 117.887 22.6838 118.625 22.7719C119.329 22.8645 119.982 23.1659 120.487 23.6313C120.992 24.0967 121.322 24.7013 121.428 25.355C120.812 25.4176 120.191 25.4176 119.575 25.355L118.244 25.2005C117.437 25.0018 116.724 24.8251 115.228 24.7148Z" fill="#001118"/>
<path d="M114.586 179.478C111.796 183.53 110.8 188.426 111.806 193.144C113.754 200.32 115.987 217.143 115.987 217.143L121.95 226.15L126.701 226.658L121.95 217.253C121.95 217.253 123.162 185.307 124.064 179.721C124.967 174.136 115.987 171.751 114.586 179.478Z" fill="#2C356B"/>
<path d="M116.131 216.635C115.435 217.161 114.892 217.841 114.552 218.612C114.211 219.383 114.085 220.222 114.183 221.05C114.563 223.854 115.228 228.159 115.228 228.159H116.154L116.606 223.059C116.606 223.059 118.316 227.718 119.361 228.181C120.407 228.645 128.864 230.897 129.79 229.263C130.716 227.629 126.322 225.488 126.322 225.488C125.575 225.763 124.759 225.832 123.971 225.687C123.183 225.542 122.457 225.189 121.879 224.671C119.677 222.179 117.751 219.486 116.131 216.635Z" fill="#2C356B"/>
<path d="M88.7166 181.068C85.9281 185.119 84.9243 190.013 85.9134 194.734C87.8851 201.931 90.1182 218.732 90.1182 218.732L96.0808 227.828L100.832 228.314L96.0808 218.909C96.0808 218.909 97.2924 186.985 98.1951 181.377C99.0978 175.769 90.1182 173.363 88.7166 181.068Z" fill="#2C356B"/>
<path d="M90.2364 218.225C89.5466 218.754 89.0096 219.435 88.6737 220.206C88.3377 220.977 88.2135 221.814 88.3122 222.64C88.6923 225.444 89.3574 229.771 89.3574 229.771H90.2839L90.7352 224.693C90.7352 224.693 92.4457 229.33 93.4909 229.815C94.5362 230.301 102.993 232.531 103.92 230.875C104.846 229.219 100.451 227.1 100.451 227.1C99.7056 227.38 98.8882 227.452 98.0991 227.307C97.31 227.162 96.5836 226.806 96.009 226.283C93.7947 223.786 91.8605 221.086 90.2364 218.225Z" fill="#2C356B"/>
<path d="M123.78 90.4176C123.78 90.4176 137.249 97.924 141.145 120.752C145.041 143.58 133.068 220.344 133.068 220.344C133.068 220.344 119.884 225.355 108.22 219.527L107.317 122.143L108.529 90.9696L108.814 85.693L123.495 84.1476L123.78 90.4176Z" fill="#7E90EF"/>
<path d="M90.7358 90.4178C90.7358 90.4178 77.2664 97.9241 73.3704 120.752C69.4745 143.58 81.4473 220.344 81.4473 220.344C81.4473 220.344 94.6317 225.355 106.367 219.527L108.291 121.304L110.667 90.9697L110.358 85.6932L91.2109 83.8828L90.7358 90.4178Z" fill="#7E90EF"/>
<path d="M123.637 86.6646C123.637 86.6646 100.689 87.3489 90.4976 86.797L90.2363 90.4177C90.2363 90.4177 101.9 93.1995 123.779 90.4177L123.637 86.6646Z" fill="#F8B780"/>
<path d="M120.05 86.2449H117.365V91.5214H120.05V86.2449Z" fill="#2D2F3B"/>
<path d="M97.4344 86.2449H94.75V91.5214H97.4344V86.2449Z" fill="#2D2F3B"/>
<path d="M104.323 86.9294V91.8085C104.323 91.9549 104.386 92.0953 104.497 92.1988C104.609 92.3023 104.76 92.3605 104.917 92.3605H111.355C111.512 92.3605 111.663 92.3023 111.775 92.1988C111.886 92.0953 111.949 91.9549 111.949 91.8085V86.9294C111.949 86.783 111.886 86.6426 111.775 86.5391C111.663 86.4356 111.512 86.3774 111.355 86.3774H104.917C104.76 86.3774 104.609 86.4356 104.497 86.5391C104.386 86.6426 104.323 86.783 104.323 86.9294ZM106.129 88.0774C106.129 88.0013 106.161 87.9283 106.219 87.8745C106.277 87.8206 106.356 87.7904 106.437 87.7904H109.858C109.94 87.7904 110.019 87.8206 110.077 87.8745C110.135 87.9283 110.167 88.0013 110.167 88.0774V90.6605C110.167 90.7366 110.135 90.8096 110.077 90.8634C110.019 90.9173 109.94 90.9475 109.858 90.9475H106.366C106.284 90.9475 106.206 90.9173 106.148 90.8634C106.09 90.8096 106.057 90.7366 106.057 90.6605L106.129 88.0774Z" fill="#0D3B48"/>
<path d="M172.692 67.1922C171.276 67.2831 169.875 67.5125 168.511 67.8766C155.873 71.7401 147.416 74.6985 145.848 75.2063L136.869 63.9468L122.615 72.5349C122.615 72.5349 138.769 93.1774 146.941 89.8437C154.068 86.9736 171.291 74.6102 174.925 69.9739C173.966 69.2139 173.203 68.2632 172.692 67.1922Z" fill="#AC7E70"/>
<path d="M171.624 72.5128C171.624 72.5128 178.156 69.6648 178.061 68.6492C178.061 67.9648 173.928 69.7531 173.928 69.7531C173.928 69.7531 178.679 67.1038 177.966 66.6843C177.254 66.2648 174.45 67.744 174.45 67.744C174.45 67.744 177.871 65.6467 177.396 65.4038C175.892 65.6915 174.432 66.1513 173.049 66.7726C173.049 66.7726 179.273 62.7987 170.935 66.7726C170.935 66.7726 173.453 60.1494 169.082 67.3467C164.711 74.5439 171.624 72.5128 171.624 72.5128Z" fill="#AC7E70"/>
<path d="M66.4335 78.7609L68.524 76.8401C69.4267 78.1206 76.6009 91.2789 80.7582 99.3592C81.4709 100.75 79.7129 99.7566 80.1168 100.75C79.119 101.501 79.3804 101.854 78.834 102.958C73.1564 100.75 66.4335 94.8333 61.231 89.6009C56.0286 84.3686 66.6948 76.796 66.1485 75.4272C69.7831 74.6545 63.4166 80.8804 66.4335 78.7609Z" fill="#AC7E70"/>
<path d="M73.1084 65.8674C73.1084 65.8674 78.3346 55.9105 89.4048 53.9677C91.5634 53.591 93.7453 53.3403 95.9376 53.217C97.2917 56.1313 102.257 58.2728 108.195 58.2728C114.134 58.2728 119.076 56.065 120.453 53.217C122.59 53.3503 124.716 53.601 126.82 53.9677C135.372 55.491 142.689 68.6713 142.689 68.6713L128.744 75.5374C131.12 84.3684 123.993 84.8541 123.993 84.8541C123.993 84.8541 101.924 87.2606 91.3527 84.8541C91.0439 84.8541 89.2622 79.2243 88.2645 76.5309L73.1084 65.8674Z" fill="#47ACCC"/>
<path d="M103.991 25.9281C104.084 25.23 104.45 24.588 105.02 24.1241C105.589 23.6603 106.322 23.4069 107.079 23.4123C107.81 23.3756 108.534 23.5544 109.148 23.923C109.763 24.2916 110.236 24.8312 110.5 25.4647C109.876 25.5974 109.24 25.6787 108.6 25.7075H107.174C106.367 25.8178 105.512 25.7737 103.991 25.9281Z" fill="#001118"/>
<path d="M105.084 9.45947C105.084 9.45947 114.586 9.7244 112.567 16.5464C110.857 22.5294 101.188 20.0346 99.2402 27.5851C97.2922 35.1356 98.48 36.4161 98.48 36.4161C98.48 36.4161 96.6983 37.2551 96.1044 33.2149C96.1044 33.2149 93.4438 29.7708 91.8997 33.2149C90.3555 36.659 92.8024 39.1979 97.1497 38.6459C97.981 41.1079 99.6479 43.2534 101.901 44.7614L102.21 52.2678C97.5109 53.2125 92.749 53.8616 87.9562 54.2106C86.603 53.6972 85.5023 52.7363 84.8662 51.5133C84.2302 50.2903 84.1039 48.8918 84.5117 47.5873C84.5117 47.5873 80.4732 47.7419 79.8793 44.9601C79.2854 42.1783 79.2854 40.5446 83.9178 39.529C83.9178 39.529 81.2096 37.4317 82.5637 35.1135C83.0076 34.4926 83.6667 34.0314 84.4315 33.8065C85.1964 33.5816 86.021 33.6066 86.7684 33.8772C86.0186 33.2597 85.5408 32.4064 85.4268 31.4813C85.3128 30.5563 85.5706 29.6247 86.1508 28.8656C86.7939 28.0711 87.7066 27.5016 88.7413 27.2491C89.776 26.9967 90.8721 27.0762 91.8521 27.4747C90.9594 26.2698 90.3845 24.8864 90.174 23.4365C89.9635 21.9867 90.1234 20.5112 90.6406 19.1294C92.1135 14.0516 96.9834 10.1439 105.084 9.45947Z" fill="#2C356B"/>
<path d="M91.8282 40.1914C91.8235 40.7643 92.002 41.3256 92.3411 41.8041C92.6802 42.2827 93.1645 42.6568 93.7327 42.8791C94.301 43.1014 94.9274 43.1618 95.5326 43.0527C96.1379 42.9436 96.6946 42.6699 97.1322 42.2663C97.5698 41.8628 97.8685 41.3475 97.9905 40.7859C98.1126 40.2242 98.0523 39.6416 97.8175 39.1118C97.5827 38.5821 97.1838 38.1291 96.6716 37.8103C96.1593 37.4915 95.5567 37.3213 94.9402 37.3213C94.1189 37.3213 93.331 37.6229 92.7481 38.1606C92.1651 38.6982 91.8345 39.4281 91.8282 40.1914Z" fill="#F8B780"/>
<path d="M116.083 30.1019C116.083 31.0733 116.629 31.8239 117.199 31.8018C117.769 31.7798 118.221 30.985 118.173 30.0136C118.126 29.0422 117.603 28.2915 117.033 28.3136C116.463 28.3357 116.011 29.1525 116.083 30.1019Z" fill="#001118"/>
<path d="M105.488 30.6318C105.488 31.6032 106.034 32.3759 106.604 32.3318C107.175 32.2876 107.626 31.5149 107.578 30.5435C107.531 29.5721 107.008 28.8214 106.438 28.8435C105.868 28.8656 105.417 29.6604 105.488 30.6318Z" fill="#001118"/>
<path d="M78.8574 99.4032C78.8574 99.4032 82.5158 93.8176 85.7228 96.7981C88.9298 99.7785 90.0226 101.39 85.509 97.9903C85.509 97.9903 92.1606 105.585 84.6538 99.4032C84.6538 99.4032 89.4049 106.38 83.371 100.794C83.371 100.794 88.5259 108.168 81.6368 101.788C81.6368 101.788 79.7126 105.386 76.0542 101.589C72.3959 97.7916 78.6436 98.1006 78.6436 98.1006L78.8574 99.4032Z" fill="#AC7E70"/>
<path d="M365.255 256.131H175.4L151.93 148.327H341.785L365.255 256.131Z" fill="#3D4884"/>
<path d="M355.231 246.616H187.35L168.013 157.82H335.894L355.231 246.616Z" fill="#7389FF"/>
<path d="M181.007 256.131H175.4L151.93 148.327H157.536L181.007 256.131Z" fill="#8490D3"/>
<path d="M273.683 188.589C279.059 196.81 280.308 214.2 265.103 216.66C257.17 217.943 249.946 214.281 243.536 206.684C236.667 198.545 238.26 183.161 248.174 179.077C258.089 174.994 268.308 180.368 273.683 188.589Z" stroke="white"/>
<path d="M263.177 190.182C265.186 193.029 265.498 199.07 260.181 199.868C257.41 200.284 254.848 199.05 252.65 196.426C250.145 193.436 250.714 188.094 254.27 186.9C257.825 185.707 261.169 187.336 263.177 190.182Z" stroke="white"/>
<path d="M246.783 210.164C252.581 201.348 265.799 201.116 276.003 209.7" stroke="white"/>
<path d="M242.716 225.621H243.689L245.635 236.33H244.662L242.716 225.621Z" fill="white"/>
<path d="M246.608 230.489H247.582L248.068 232.921H247.095L246.608 230.489Z" fill="white"/>
<path d="M249.527 230.489H250.5L250.987 232.921H250.014L249.527 230.489Z" fill="white"/>
<path d="M252.446 230.489H253.419L253.906 232.921H252.933L252.446 230.489Z" fill="white"/>
<path d="M255.366 230.489H256.339L256.826 232.921H255.853L255.366 230.489Z" fill="white"/>
<path d="M258.285 230.489H259.258L259.745 232.921H258.772L258.285 230.489Z" fill="white"/>
<path d="M261.205 230.489H262.178L262.665 232.921H261.692L261.205 230.489Z" fill="white"/>
<path d="M264.124 230.489H265.097L265.584 232.921H264.611L264.124 230.489Z" fill="white"/>
<path d="M267.043 230.489H268.016L268.503 232.921H267.53L267.043 230.489Z" fill="white"/>
<path d="M269.963 230.489H270.936L271.423 232.921H270.449L269.963 230.489Z" fill="white"/>
<path d="M272.882 230.489H273.855L274.342 232.921H273.368L272.882 230.489Z" fill="white"/>
<path d="M275.802 230.489H276.775L277.261 232.921H276.288L275.802 230.489Z" fill="white"/>
<path d="M278.721 230.489H279.694L280.18 232.921H279.207L278.721 230.489Z" fill="white"/>
<path d="M281.641 230.489H282.614L283.1 232.921H282.127L281.641 230.489Z" fill="white"/>
<path d="M475.862 256.131H175.4V266H475.862V256.131Z" fill="#8490D3"/>
<path d="M475.862 256.131H286.411V266H475.862V256.131Z" fill="#3D4884"/>
<path d="M175.4 256.131H475.862" stroke="#6470B5" stroke-width="0.9" stroke-linecap="round" stroke-linejoin="round"/>
<path d="M159.841 265.603H501.898" stroke="#4D82C0" stroke-miterlimit="10"/>
<path d="M479.914 189.656H611.996C611.996 189.656 635.751 132.078 635.062 113.312C634.373 94.5461 623.541 99.8889 630.026 74.7646C636.511 49.6404 647.32 7.38409 627.864 4.71271C608.408 2.04133 570.851 87.8345 552.844 93.1994C534.837 98.5642 517.519 109.294 502.363 134.749C492.5 152.133 484.961 170.572 479.914 189.656Z" fill="#9CCCFA"/>
<path d="M627.922 5.22058C627.922 5.22058 591.529 119.273 551.904 189.656" stroke="#7FB9F0" stroke-miterlimit="10"/>
<path d="M574.567 66.2649C574.567 66.2649 557.463 130.555 538.577 189.656" stroke="#43C9C5" stroke-miterlimit="10"/>
<path d="M626.616 81.2554C626.616 81.2554 591.671 155.016 567.227 189.656" stroke="#7FB9F0" stroke-miterlimit="10"/>
<path d="M444.719 189.656H631.129" stroke="#4D82C0" stroke-miterlimit="10"/>
<path d="M439.397 103.686C441.681 104.181 443.88 104.968 445.93 106.026C447.752 106.962 449.437 108.112 450.942 109.448C452.244 110.621 453.349 111.968 454.22 113.444C454.979 114.672 455.419 116.049 455.503 117.463C455.508 117.677 455.464 117.891 455.374 118.089C455.284 118.286 455.15 118.464 454.981 118.611C454.834 118.763 454.655 118.885 454.454 118.969C454.254 119.052 454.036 119.096 453.816 119.096H443.316C442.7 119.122 442.084 119.024 441.511 118.809C441 118.571 440.528 118.266 440.109 117.904L439.349 117.154C438.909 116.737 438.414 116.374 437.876 116.072C437.128 115.668 436.331 115.35 435.501 115.122C434.35 114.818 433.157 114.676 431.961 114.703C430.984 114.704 430.008 114.763 429.039 114.88C428.227 114.999 427.431 115.199 426.664 115.476C425.986 115.73 425.383 116.131 424.906 116.646C424.438 117.164 424.192 117.824 424.217 118.5C424.206 118.841 424.267 119.18 424.398 119.498C424.528 119.816 424.725 120.107 424.977 120.355C425.718 120.981 426.592 121.455 427.543 121.746C429.094 122.259 430.681 122.672 432.294 122.982L439.682 124.395C442.311 124.863 444.888 125.558 447.379 126.47C449.395 127.222 451.253 128.298 452.866 129.649C454.314 130.864 455.436 132.376 456.145 134.065C456.908 136.009 457.278 138.067 457.237 140.136C457.263 142.113 456.825 144.072 455.955 145.876C455.09 147.621 453.863 149.189 452.344 150.491C450.693 151.896 448.797 153.031 446.737 153.846C444.454 154.758 442.062 155.41 439.611 155.789V161.066C439.614 161.329 439.559 161.591 439.448 161.834C439.338 162.077 439.175 162.297 438.969 162.479C438.772 162.668 438.535 162.818 438.274 162.92C438.013 163.023 437.732 163.075 437.449 163.075H426.949C426.665 163.078 426.383 163.026 426.122 162.924C425.86 162.821 425.624 162.67 425.428 162.479C425.218 162.3 425.052 162.081 424.941 161.837C424.83 161.594 424.778 161.33 424.787 161.066V155.568C422.28 155.118 419.85 154.353 417.565 153.294C415.637 152.371 413.854 151.204 412.268 149.828C410.868 148.636 409.716 147.214 408.871 145.633C408.09 144.207 407.652 142.64 407.588 141.041C407.586 140.829 407.628 140.618 407.714 140.421C407.8 140.224 407.926 140.045 408.087 139.893C408.234 139.742 408.414 139.621 408.614 139.537C408.815 139.454 409.031 139.41 409.251 139.408H419.941C420.548 139.383 421.154 139.473 421.723 139.673C422.186 139.874 422.618 140.134 423.005 140.445L423.956 141.417C424.477 141.938 425.059 142.404 425.69 142.808C426.529 143.325 427.44 143.733 428.398 144.022C429.712 144.404 431.084 144.583 432.46 144.552C434.869 144.609 437.273 144.318 439.587 143.691C440.37 143.558 441.079 143.178 441.594 142.614C442.11 142.051 442.399 141.339 442.414 140.6C442.421 140.236 442.331 139.877 442.153 139.554C441.975 139.23 441.714 138.952 441.392 138.745C440.435 138.126 439.376 137.656 438.257 137.354C436.501 136.855 434.717 136.449 432.912 136.14L425.262 134.639C420.729 134.012 416.514 132.1 413.194 129.164C410.553 126.332 409.191 122.662 409.393 118.92C409.394 117.195 409.748 115.487 410.439 113.886C411.145 112.26 412.159 110.765 413.432 109.471C414.814 108.088 416.416 106.912 418.183 105.982C420.219 104.977 422.393 104.235 424.645 103.775V98.1006C424.638 97.8364 424.692 97.5739 424.803 97.3305C424.913 97.087 425.078 96.8679 425.286 96.6877C425.482 96.4966 425.718 96.345 425.979 96.2425C426.241 96.1399 426.522 96.0885 426.806 96.0916H437.306C437.878 96.0973 438.424 96.3108 438.828 96.6863C439.232 97.0619 439.462 97.5696 439.468 98.1006L439.397 103.686Z" fill="#5488ED"/>
<path d="M559.934 35.5331L561.003 51.9587L562.523 60.2599L555.943 62.3131L548.341 64.852L548.555 52.6432L548.27 40.2135L559.934 35.5331Z" fill="#D7A095"/>
<path d="M555.087 7.95797C564.09 9.54755 564.09 15.2436 564.09 15.2436C564.587 18.0751 564.825 20.9407 564.803 23.8096C565.179 23.265 565.749 22.8605 566.413 22.6668C567.078 22.4731 567.794 22.5025 568.437 22.7499C571.526 23.8538 569.625 32.8393 564.969 32.2212C564.82 34.3454 564.356 36.4404 563.591 38.447C562.239 40.3511 560.492 41.9858 558.453 43.2556C556.414 44.5255 554.123 45.4051 551.713 45.843C546.677 46.6157 540.121 44.2534 539.432 38.734C538.458 31.0952 538.885 14.4488 538.885 14.4488C538.885 14.4488 540.192 5.3749 555.087 7.95797Z" fill="#EFBA92"/>
<path d="M558.556 12.484C560.931 12.484 564.708 11.4905 567.131 11.3359C567.131 11.1151 567.131 12.9917 567.131 13.0138C566.95 16.257 566.95 19.5068 567.131 22.75C564.756 22.9266 564.756 24.737 564.756 24.737L564.851 28.7771L562.475 28.6226L562 20.1007C560.946 19.6582 560.101 18.8732 559.625 17.8929C559.625 17.8929 558.983 13.9852 558.556 12.484Z" fill="#6559D9"/>
<path d="M558.485 18.1579C556.465 18.4008 555.23 18.3787 554.042 18.4449H552.213C551.524 18.4449 550.788 18.4449 549.719 18.4449C549.909 17.5315 550.439 16.7097 551.217 16.1241C551.995 15.5386 552.97 15.2268 553.971 15.2437C554.948 15.2172 555.911 15.4717 556.727 15.9723C557.6 16.4563 558.232 17.2421 558.485 18.1579Z" fill="#002938"/>
<path d="M546.108 20.2774C544.944 20.223 543.779 20.223 542.616 20.2774C542.189 20.2484 541.76 20.2484 541.333 20.2774C540.786 20.2774 540.169 20.4981 539.219 20.6085C539.172 20.2116 539.215 19.8099 539.346 19.4295C539.477 19.0492 539.693 18.6987 539.979 18.4008C540.59 17.7684 541.442 17.3807 542.354 17.319C543.272 17.2765 544.172 17.5607 544.872 18.1137C545.244 18.3617 545.548 18.6859 545.762 19.0612C545.977 19.4365 546.095 19.8527 546.108 20.2774Z" fill="#002938"/>
<path d="M548.84 32.5966C548.84 32.5966 555.966 30.9187 557.154 32.9498C558.342 34.9809 558.864 37.3653 560.812 36.3498C562.76 35.3342 561.763 18.6877 561.763 18.6877L564.685 24.1188C564.685 24.1188 570.338 46.0197 555.919 47.1677C540.763 48.4041 538.363 44.4522 539.29 36.9679C539.29 36.9679 541 37.6523 541.665 35.5991C542.331 33.5459 540.81 31.868 548.84 32.5966Z" fill="#6559D9"/>
<path d="M555.348 35.2239L543.803 35.9524C543.803 35.9524 547.627 41.6485 555.348 35.2239Z" fill="white"/>
<path d="M567.226 13.014C567.226 13.014 568.248 5.77259 561.644 6.58946C559.837 4.67175 557.579 3.16641 555.046 2.19013C552.512 1.21384 549.771 0.792822 547.034 0.959689L551.049 2.83627C551.049 2.83627 545.514 -0.210419 536.439 3.32198C536.777 4.2142 537.385 4.99687 538.19 5.57634C538.995 6.15581 539.962 6.50755 540.976 6.58946C539.16 6.43506 537.376 6.04106 535.679 5.41934C535.679 5.41934 536.178 11.0491 539.456 12.2192C542.734 13.3893 554.588 7.80371 559.126 13.1465C563.663 18.4892 566.442 12.2192 566.442 12.2192" fill="#6559D9"/>
<path d="M558.817 19.8578L548.982 21.1383C548.982 21.1383 548.982 28.8212 555.515 27.9161C562.048 27.0109 558.817 19.8578 558.817 19.8578Z" fill="#C5F4FF" stroke="#F1AB65" stroke-width="0.61" stroke-miterlimit="10"/>
<path d="M553.781 23.6553C553.781 24.8033 554.446 25.7085 555.111 25.6643C555.776 25.6202 556.275 24.6929 556.227 23.4566C556.18 22.2202 555.586 21.4034 554.897 21.4475C554.208 21.4917 553.733 22.5293 553.781 23.6553Z" fill="#0D3B48"/>
<path d="M548.602 20.8508L559.981 19.2618L560.337 20.4536L548.887 21.8218L548.602 20.8508Z" fill="#F1AB65"/>
<path d="M537.175 22.0435L546.677 21.3149C546.677 21.3149 548.222 29.6602 541.641 29.6602C535.061 29.6602 537.175 22.0435 537.175 22.0435Z" fill="#C5F4FF" stroke="#F1AB65" stroke-width="0.61" stroke-miterlimit="10"/>
<path d="M546.915 20.9618L535.94 21.6239L535.75 22.8377L546.796 21.999L546.915 20.9618Z" fill="#F1AB65"/>
<path d="M542.829 24.428C542.829 25.576 543.471 26.4812 544.136 26.437C544.801 26.3929 545.324 25.4656 545.252 24.2293C545.181 22.9929 544.611 22.1761 543.922 22.2202C543.233 22.2644 542.758 23.302 542.829 24.428Z" fill="#0D3B48"/>
<path d="M548.839 32.5967L547.129 23.1696L543.922 31.7136L548.839 32.5967Z" fill="#D7A095"/>
<path d="M560.313 20.454L568.271 22.8605L568.152 21.7787L559.98 19.2618L560.313 20.454Z" fill="#F1AB65"/>
<path d="M549.267 22.7498C548.885 22.5166 548.431 22.4073 547.976 22.4393C547.52 22.4712 547.089 22.6425 546.749 22.9264" stroke="#F1AB65" stroke-width="0.74" stroke-miterlimit="10"/>
<path opacity="0.1" d="M571.764 232.288C596.888 232.288 617.256 230.647 617.256 228.623C617.256 226.599 596.888 224.958 571.764 224.958C546.639 224.958 526.271 226.599 526.271 228.623C526.271 230.647 546.639 232.288 571.764 232.288Z" fill="#0D3B48"/>
<path d="M557.321 209.526L559.269 223.037L553.662 224.848L550.812 210.387L557.321 209.526Z" fill="#EFBA92"/>
<path d="M550.36 216.966C548.156 219.44 545.264 221.303 541.998 222.353C536.914 223.81 532.33 225.62 532.757 228.314C532.757 228.314 540.454 231.471 552.712 227.563V228.711L560.813 228.248L560.599 218.754L553.876 219.306L554.351 218.357L550.36 216.966Z" fill="#8C82D1"/>
<path d="M547.343 227.806C536.32 230.522 533.47 227.806 532.804 227.607C532.758 227.841 532.758 228.08 532.804 228.314C532.804 228.314 540.501 231.471 552.759 227.563V228.711L560.86 228.248V226.349C556.299 226.163 551.736 226.655 547.343 227.806Z" fill="#5F4645"/>
<path d="M584.521 209.879L584.212 223.523L590.008 224.737L591.101 210.078L584.521 209.879Z" fill="#EFBA92"/>
<path d="M592.336 216.547C594.828 218.756 597.927 220.284 601.292 220.962C606.518 221.889 611.293 223.17 611.174 225.952C611.174 225.952 603.929 229.881 591.267 227.276L591.386 228.424L583.261 228.8L582.335 219.328L589.082 219.174L588.511 218.291L592.336 216.547Z" fill="#8C82D1"/>
<path d="M596.636 227.011C607.896 228.579 610.414 225.576 611.055 225.333C611.155 225.549 611.195 225.784 611.174 226.018C611.174 226.018 603.929 229.948 591.267 227.342L591.386 228.49L583.261 228.866L583.071 226.967C587.567 226.311 592.146 226.326 596.636 227.011Z" fill="#5F4645"/>
<path d="M536.748 102.119C536.748 102.119 528.148 158.769 548.245 214.714C548.245 214.714 554.422 218.622 559.814 214.427C559.814 214.427 552.688 160.69 555.063 128.899L559.387 129.517C559.387 129.517 570.172 157.047 571.265 164.576C572.357 172.104 579.555 212.859 581.29 216.215C581.29 216.215 590.127 218.423 592.645 214.007C592.645 214.007 590.412 182.569 589.58 169.278C588.986 159.388 576.325 110.795 576.325 110.795L536.748 102.119Z" fill="#2C356B"/>
<path d="M576.372 108.963C576.372 108.963 554.992 117.794 535.132 111.921C535.132 111.921 531.522 78.1867 529.621 57.7429C537.229 55.1336 545.164 53.4347 553.234 52.6871L554.85 57.1026L555.871 52.5326C564.444 52.8845 572.992 53.6509 581.48 54.8286C581.48 54.8286 578.273 93.2656 576.372 108.963Z" fill="#6C59E0"/>
<path d="M565.753 53.0184L559.648 58.8689L555.871 52.5327L562.57 49.0223L565.753 53.0184Z" fill="#18A4BA"/>
<path d="M543.423 53.9899L548.673 59.0015L553.234 52.6431L546.036 50.0601L543.423 53.9899Z" fill="#18A4BA"/>
<path d="M529.621 57.743C529.621 57.743 521.117 77.0388 517.363 87.5918C520.211 90.1943 523.935 91.8078 527.911 92.1618L534.847 75.0076L529.621 57.743Z" fill="#6C59E0"/>
<path d="M581.48 54.9832C581.48 54.9832 595.615 80.6593 599.059 91.2786C596.164 93.8582 592.393 95.4196 588.393 95.6941L575.755 72.2257L581.48 54.9832Z" fill="#6C59E0"/>
<path d="M576.373 111.612C576.373 111.612 572.097 118.125 560.052 122.386L556.275 113.555L549.624 122.562C549.624 122.562 539.219 118.809 535.133 111.987L580.268 67.8323L576.373 111.612Z" fill="#6C59E0"/>
<path d="M553.71 60.5686C553.7 60.6881 553.717 60.8083 553.759 60.9216C553.8 61.035 553.867 61.1393 553.953 61.2281C554.04 61.3169 554.145 61.3883 554.263 61.4381C554.38 61.4879 554.507 61.5149 554.636 61.5176C554.764 61.5235 554.892 61.506 555.013 61.4659C555.133 61.4258 555.244 61.364 555.339 61.2841C555.434 61.2041 555.511 61.1076 555.566 61C555.62 60.8923 555.652 60.7757 555.658 60.6569C555.664 60.538 555.645 60.4192 555.602 60.3071C555.559 60.1951 555.492 60.092 555.406 60.0038C555.32 59.9157 555.216 59.8442 555.101 59.7934C554.985 59.7426 554.859 59.7136 554.731 59.7079C554.603 59.702 554.475 59.7195 554.355 59.7596C554.234 59.7997 554.123 59.8614 554.028 59.9414C553.933 60.0213 553.856 60.1179 553.802 60.2255C553.747 60.3332 553.716 60.4497 553.71 60.5686Z" fill="#F2EFEF"/>
<path d="M553.9 68.98C553.936 69.1985 554.056 69.3976 554.237 69.5414C554.417 69.6853 554.648 69.7643 554.886 69.7643C555.124 69.7643 555.354 69.6853 555.535 69.5414C555.715 69.3976 555.835 69.1985 555.871 68.98C555.878 68.8612 555.859 68.7423 555.816 68.6302C555.773 68.5182 555.706 68.4152 555.62 68.327C555.534 68.2389 555.43 68.1673 555.314 68.1165C555.198 68.0658 555.073 68.0367 554.945 68.0311C554.807 68.0215 554.669 68.0393 554.539 68.0833C554.409 68.1273 554.291 68.1965 554.192 68.2863C554.093 68.376 554.016 68.4843 553.965 68.6039C553.915 68.7236 553.893 68.8518 553.9 68.98Z" fill="#F2EFEF"/>
<path d="M553.709 79.4007C553.703 79.5196 553.722 79.6385 553.765 79.7505C553.808 79.8626 553.874 79.9657 553.961 80.0538C554.047 80.142 554.151 80.2135 554.266 80.2643C554.382 80.315 554.508 80.3441 554.636 80.3498C554.766 80.3587 554.896 80.3434 555.019 80.3047C555.143 80.266 555.257 80.2048 555.354 80.1245C555.452 80.0443 555.531 79.9467 555.587 79.8376C555.643 79.7284 555.675 79.6099 555.681 79.489C555.644 79.2706 555.525 79.0714 555.344 78.9276C555.163 78.7837 554.933 78.7047 554.695 78.7047C554.457 78.7047 554.227 78.7837 554.046 78.9276C553.865 79.0714 553.746 79.2706 553.709 79.489V79.4007Z" fill="#F2EFEF"/>
<path d="M553.828 89.2693C553.815 89.5116 553.905 89.749 554.078 89.9306C554.251 90.1121 554.494 90.2233 554.755 90.2404C554.883 90.2463 555.011 90.2287 555.131 90.1887C555.252 90.1486 555.363 90.0868 555.458 90.0069C555.553 89.9269 555.63 89.8304 555.684 89.7228C555.739 89.6151 555.77 89.4985 555.776 89.3797C555.776 89.1397 555.674 88.9096 555.491 88.7399C555.308 88.5702 555.061 88.4749 554.802 88.4749C554.544 88.4749 554.296 88.5702 554.114 88.7399C553.931 88.9096 553.828 89.1397 553.828 89.3797V89.2693Z" fill="#F2EFEF"/>
<path d="M555.158 109.47C555.145 109.712 555.235 109.95 555.408 110.131C555.582 110.313 555.824 110.424 556.085 110.441C556.213 110.447 556.341 110.429 556.461 110.389C556.582 110.349 556.693 110.288 556.788 110.208C556.883 110.128 556.96 110.031 557.014 109.923C557.069 109.816 557.1 109.699 557.106 109.58C557.106 109.462 557.081 109.344 557.032 109.234C556.983 109.124 556.912 109.025 556.821 108.941C556.731 108.857 556.623 108.79 556.505 108.744C556.387 108.699 556.26 108.676 556.132 108.676C556.005 108.676 555.878 108.699 555.76 108.744C555.642 108.79 555.534 108.857 555.444 108.941C555.353 109.025 555.282 109.124 555.233 109.234C555.184 109.344 555.158 109.462 555.158 109.58V109.47Z" fill="#F2EFEF"/>
<path d="M560.682 73.2238L560.647 74.8345L573.093 75.0626L573.127 73.4519L560.682 73.2238Z" fill="#18A4BA"/>
<path d="M549.932 99.0276C549.926 99.1407 549.943 99.2538 549.984 99.3605C550.025 99.4673 550.088 99.5654 550.169 99.6495C550.251 99.7335 550.35 99.8018 550.46 99.8503C550.57 99.8989 550.689 99.9268 550.811 99.9325C551.055 99.9388 551.293 99.8575 551.474 99.7054C551.655 99.5534 551.767 99.3423 551.785 99.1159C551.785 98.8877 551.687 98.6687 551.514 98.5073C551.34 98.3459 551.104 98.2552 550.858 98.2552C550.613 98.2552 550.377 98.3459 550.203 98.5073C550.03 98.6687 549.932 98.8877 549.932 99.1159V99.0276Z" fill="#F2EFEF"/>
<path d="M566.134 100.75C566.134 101.324 565.302 101.765 564.328 101.743L508.17 100.043C507.196 100.043 506.436 99.5356 506.436 98.9616C506.436 98.3875 507.267 97.946 508.241 97.9681L564.399 99.668C565.373 99.668 566.157 100.176 566.134 100.75Z" fill="#3B5F69"/>
<path d="M564.4 99.668L508.241 97.968L547.319 99.1381C547.703 99.1767 548.058 99.3478 548.313 99.6176C548.568 99.8873 548.705 100.236 548.697 100.595C548.688 100.829 548.614 101.057 548.483 101.258L564.328 101.743C565.302 101.743 566.11 101.324 566.134 100.75C566.157 100.176 565.373 99.6901 564.4 99.668Z" fill="#73FFD5"/>
<path d="M506.235 68.3858L505.483 96.9898C505.462 97.8065 506.157 98.4847 507.035 98.5046L547.788 99.4303C548.667 99.4502 549.397 98.8043 549.418 97.9877L550.17 69.3837C550.192 68.567 549.497 67.8888 548.618 67.8688L507.865 66.9432C506.987 66.9233 506.257 67.5691 506.235 68.3858Z" fill="#7389FF"/>
<path d="M548.601 67.8323H548.221C548.461 67.9634 548.659 68.1507 548.797 68.3754C548.934 68.6001 549.006 68.8543 549.005 69.1128L548.221 97.9681C548.21 98.3357 548.049 98.6855 547.771 98.9476C547.494 99.2097 547.12 99.3645 546.725 99.3811H547.865C548.074 99.3869 548.282 99.3545 548.478 99.2855C548.673 99.2166 548.852 99.1125 549.004 98.9792C549.157 98.846 549.279 98.6861 549.365 98.5088C549.451 98.3315 549.498 98.1403 549.504 97.946L550.264 69.2452C550.24 68.8548 550.052 68.4887 549.742 68.2248C549.431 67.9609 549.022 67.8201 548.601 67.8323Z" fill="#3B5F69"/>
<path d="M571.241 96.6434L566.49 97.8135C565.649 97.2264 564.658 96.8535 563.615 96.7318H563.473C562.363 96.6543 561.255 96.9096 560.313 97.4603C560.313 97.4603 556.037 97.6811 555.895 99.4031L559.933 99.6018C559.601 100.233 559.331 100.891 559.125 101.567L554.065 101.434C556.892 106.203 566.893 102.538 566.893 102.538L572.167 101.567L571.241 96.6434Z" fill="#EFBA92"/>
<path d="M585.376 88.2761C585.376 88.2761 576.135 94.8993 568.533 97.1071C568.633 99.3805 569.415 101.583 570.79 103.465C570.79 103.465 590.887 100.728 597.871 95.6279C597.871 95.6279 601.506 93.95 597.254 86.3112C595.734 83.3307 585.376 88.2761 585.376 88.2761Z" fill="#6C59E0"/>
</svg>
