<svg width="137" height="137" viewBox="0 0 137 137" fill="none" xmlns="http://www.w3.org/2000/svg">
<rect width="137" height="137" rx="3" fill="white"/>
<rect x="0.5" y="0.5" width="136" height="136" rx="2.5" stroke="#315BAD" stroke-opacity="0.3"/>
<path d="M83.9021 46.0507C83.2433 45.3599 82.3337 44.9517 81.2985 44.9517H76.0913V44.8889C76.0913 44.1039 75.7776 43.3502 75.2443 42.8478C74.711 42.314 73.9895 42 73.2053 42H63.7947C62.9791 42 62.2576 42.314 61.7243 42.8478C61.1911 43.3816 60.8774 44.1039 60.8774 44.8889V44.9517H55.7015C54.6663 44.9517 53.7567 45.3599 53.0979 46.0507C52.4392 46.7101 52 47.6522 52 48.657V64.2947C52 65.3309 52.4078 66.2415 53.0979 66.901C53.7567 67.5604 54.6977 68 55.7015 68H81.2985C82.3337 68 83.2433 67.5918 83.9021 66.901C84.5608 66.2415 85 65.2995 85 64.2947V48.657C85 47.6208 84.5922 46.7101 83.9021 46.0507ZM83.3688 64.2947H83.3375C83.3375 64.8599 83.1179 65.3623 82.7414 65.7391C82.365 66.1159 81.8631 66.3357 81.2985 66.3357H55.7015C55.1369 66.3357 54.635 66.1159 54.2586 65.7391C53.8821 65.3623 53.6625 64.8599 53.6625 64.2947V48.657C53.6625 48.0918 53.8821 47.5894 54.2586 47.2126C54.635 46.8357 55.1369 46.6159 55.7015 46.6159H61.7557C62.2262 46.6159 62.6027 46.2391 62.6027 45.7681V44.8575C62.6027 44.5121 62.7281 44.1981 62.9477 43.9783C63.1673 43.7585 63.481 43.6329 63.826 43.6329H73.2053C73.5504 43.6329 73.8641 43.7585 74.0837 43.9783C74.3032 44.1981 74.4287 44.5121 74.4287 44.8575V45.7681C74.4287 46.2391 74.8051 46.6159 75.2757 46.6159H81.3298C81.8945 46.6159 82.3964 46.8357 82.7728 47.2126C83.1492 47.5894 83.3688 48.0918 83.3688 48.657V64.2947Z" fill="#3878F4" fill-opacity="0.8"/>
<path d="M68.4999 48.7512C66.3669 48.7512 64.422 49.6304 63.0418 51.0121C61.6302 52.4251 60.7832 54.3406 60.7832 56.4759C60.7832 58.6111 61.6615 60.558 63.0418 61.9396C64.4534 63.3527 66.3669 64.2005 68.4999 64.2005C70.633 64.2005 72.5779 63.3213 73.9581 61.9396C75.3697 60.5266 76.2167 58.6111 76.2167 56.4759C76.2167 54.3406 75.3383 52.3937 73.9581 51.0121C72.5779 49.6304 70.633 48.7512 68.4999 48.7512ZM72.7661 60.7778C71.6682 61.8454 70.1625 62.5363 68.4999 62.5363C66.8374 62.5363 65.3317 61.8454 64.2338 60.7778C63.1359 59.6788 62.4771 58.1715 62.4771 56.5073C62.4771 54.843 63.1672 53.3358 64.2338 52.2367C65.3317 51.1377 66.8374 50.4783 68.4999 50.4783C70.1625 50.4783 71.6682 51.1691 72.7661 52.2367C73.864 53.3358 74.5228 54.843 74.5228 56.5073C74.5541 58.1715 73.864 59.6788 72.7661 60.7778Z" fill="#3878F4" fill-opacity="0.8"/>
<path d="M79.667 51.797C80.5159 51.797 81.204 51.1081 81.204 50.2584C81.204 49.4086 80.5159 48.7197 79.667 48.7197C78.8181 48.7197 78.1299 49.4086 78.1299 50.2584C78.1299 51.1081 78.8181 51.797 79.667 51.797Z" fill="#3878F4" fill-opacity="0.8"/>
<path d="M34.5382 92.845V89.62C34.9382 89.58 35.2482 89.48 35.4682 89.32C35.6882 89.16 35.8882 88.83 36.0682 88.33C36.2582 87.83 36.4082 87.1 36.5182 86.14L37.1032 80.995H43.8982V89.455H44.8282V92.845H43.0732V91H36.2932V92.845H34.5382ZM38.2582 86.26C38.0882 87.74 37.6482 88.805 36.9382 89.455H42.1432V82.54H38.6782L38.2582 86.26ZM49.3945 91.18C48.2745 91.18 47.3745 90.815 46.6945 90.085C46.0145 89.345 45.6745 88.44 45.6745 87.37C45.6745 86.3 46.0145 85.4 46.6945 84.67C47.3745 83.94 48.2745 83.575 49.3945 83.575C50.5245 83.575 51.4295 83.94 52.1095 84.67C52.7895 85.4 53.1295 86.3 53.1295 87.37C53.1295 88.45 52.7895 89.355 52.1095 90.085C51.4295 90.815 50.5245 91.18 49.3945 91.18ZM49.3945 89.785C50.0445 89.785 50.5545 89.555 50.9245 89.095C51.3045 88.625 51.4945 88.05 51.4945 87.37C51.4945 86.7 51.3045 86.135 50.9245 85.675C50.5545 85.205 50.0445 84.97 49.3945 84.97C48.7545 84.97 48.2445 85.205 47.8645 85.675C47.4945 86.135 47.3095 86.7 47.3095 87.37C47.3095 88.05 47.4945 88.625 47.8645 89.095C48.2445 89.555 48.7545 89.785 49.3945 89.785ZM57.9931 89.785C58.6431 89.785 59.1531 89.55 59.5231 89.08C59.9031 88.61 60.0931 88.03 60.0931 87.34C60.0931 86.68 59.9031 86.12 59.5231 85.66C59.1531 85.2 58.6431 84.97 57.9931 84.97C57.3531 84.97 56.8431 85.2 56.4631 85.66C56.0931 86.12 55.9081 86.68 55.9081 87.34C55.9081 88.03 56.0931 88.61 56.4631 89.08C56.8431 89.55 57.3531 89.785 57.9931 89.785ZM60.7081 90.07C60.0381 90.81 59.1331 91.18 57.9931 91.18C56.8531 91.18 55.9481 90.795 55.2781 90.025C54.6181 89.245 54.2881 88.25 54.2881 87.04C54.2881 85.31 54.5831 84.02 55.1731 83.17C55.7731 82.32 56.6931 81.82 57.9331 81.67C58.6831 81.56 59.1981 81.455 59.4781 81.355C59.7681 81.255 59.9131 81.135 59.9131 80.995H61.4581C61.4581 82.045 60.4281 82.685 58.3681 82.915C57.5581 83.005 56.9331 83.23 56.4931 83.59C56.0631 83.94 55.7931 84.36 55.6831 84.85C55.9731 84.45 56.3481 84.14 56.8081 83.92C57.2781 83.69 57.7731 83.575 58.2931 83.575C59.2931 83.575 60.1131 83.945 60.7531 84.685C61.3931 85.425 61.7131 86.315 61.7131 87.355C61.7131 88.425 61.3781 89.33 60.7081 90.07ZM69.3804 91H67.8054V90.22C67.2454 90.86 66.4654 91.18 65.4654 91.18C64.8054 91.18 64.2204 90.97 63.7104 90.55C63.2004 90.12 62.9454 89.53 62.9454 88.78C62.9454 88.01 63.1954 87.425 63.6954 87.025C64.2054 86.625 64.7954 86.425 65.4654 86.425C66.4954 86.425 67.2754 86.735 67.8054 87.355V86.275C67.8054 85.855 67.6504 85.525 67.3404 85.285C67.0304 85.045 66.6204 84.925 66.1104 84.925C65.3004 84.925 64.5854 85.23 63.9654 85.84L63.3204 84.745C64.1404 83.965 65.1554 83.575 66.3654 83.575C67.2554 83.575 67.9804 83.785 68.5404 84.205C69.1004 84.625 69.3804 85.29 69.3804 86.2V91ZM66.0804 90.1C66.8704 90.1 67.4454 89.85 67.8054 89.35V88.255C67.4454 87.755 66.8704 87.505 66.0804 87.505C65.6304 87.505 65.2604 87.625 64.9704 87.865C64.6804 88.105 64.5354 88.42 64.5354 88.81C64.5354 89.2 64.6804 89.515 64.9704 89.755C65.2604 89.985 65.6304 90.1 66.0804 90.1ZM75.8623 91H71.4223V83.755H75.7573C76.4273 83.755 76.9523 83.93 77.3323 84.28C77.7123 84.63 77.9023 85.075 77.9023 85.615C77.9023 86.035 77.7873 86.39 77.5573 86.68C77.3273 86.97 77.0373 87.165 76.6873 87.265C77.0773 87.355 77.4023 87.57 77.6623 87.91C77.9223 88.24 78.0523 88.615 78.0523 89.035C78.0523 89.615 77.8573 90.09 77.4673 90.46C77.0873 90.82 76.5523 91 75.8623 91ZM75.5323 89.62C75.8123 89.62 76.0323 89.55 76.1923 89.41C76.3523 89.26 76.4323 89.06 76.4323 88.81C76.4323 88.58 76.3523 88.385 76.1923 88.225C76.0323 88.065 75.8123 87.985 75.5323 87.985H72.9973V89.62H75.5323ZM75.4873 86.605C75.7373 86.605 75.9323 86.54 76.0723 86.41C76.2223 86.27 76.2973 86.095 76.2973 85.885C76.2973 85.655 76.2223 85.475 76.0723 85.345C75.9323 85.205 75.7373 85.135 75.4873 85.135H72.9973V86.605H75.4873ZM81.5213 91H80.0063V83.755H81.5813V88.63L84.9113 83.755H86.4863V91H84.9113V85.99L81.5213 91ZM91.4267 91H89.8517V85.135H87.7817V83.755H93.5117V85.135H91.4267V91ZM94.8013 83.755H96.3763V86.38H98.9413C99.7113 86.38 100.301 86.6 100.711 87.04C101.131 87.48 101.341 88.03 101.341 88.69C101.341 89.34 101.126 89.89 100.696 90.34C100.276 90.78 99.6913 91 98.9413 91H94.8013V83.755ZM98.7463 87.76H96.3763V89.62H98.7463C99.0563 89.62 99.2963 89.535 99.4663 89.365C99.6463 89.195 99.7363 88.97 99.7363 88.69C99.7363 88.41 99.6463 88.185 99.4663 88.015C99.2963 87.845 99.0563 87.76 98.7463 87.76Z" fill="#3878F4" fill-opacity="0.8"/>
</svg>
