<svg width="13" height="12" viewBox="0 0 13 12" fill="none" xmlns="http://www.w3.org/2000/svg">
<path d="M11.6823 1.8388H5.05892C4.87683 1.29797 4.36528 0.907227 3.76382 0.907227C3.16237 0.907227 2.65082 1.29797 2.46873 1.8388H1.43487C1.19471 1.8388 1 2.03351 1 2.27367C1 2.51383 1.19471 2.70854 1.43487 2.70854H2.46875C2.65085 3.24937 3.1624 3.64012 3.76385 3.64012C4.3653 3.64012 4.87685 3.24937 5.05895 2.70854H11.6823C11.9225 2.70854 12.1172 2.51383 12.1172 2.27367C12.1172 2.03351 11.9225 1.8388 11.6823 1.8388ZM3.76382 2.77038C3.48994 2.77038 3.26712 2.54755 3.26712 2.27367C3.26712 1.99979 3.48994 1.77696 3.76382 1.77696C4.0377 1.77696 4.26053 1.99979 4.26053 2.27367C4.26053 2.54755 4.0377 2.77038 3.76382 2.77038Z" fill="#323232" stroke="#323232" stroke-width="0.1"/>
<path d="M11.6823 5.56512H10.6484C10.4663 5.02429 9.95473 4.63354 9.35331 4.63354C8.75188 4.63354 8.24033 5.02429 8.05824 5.56512H1.43487C1.19471 5.56512 1 5.75983 1 5.99999C1 6.24015 1.19471 6.43486 1.43487 6.43486H8.05824C8.24033 6.97569 8.75191 7.36643 9.35334 7.36643C9.95476 7.36643 10.4663 6.97569 10.6484 6.43486H11.6823C11.9225 6.43486 12.1172 6.24015 12.1172 5.99999C12.1172 5.75983 11.9225 5.56512 11.6823 5.56512ZM9.35334 6.4967C9.07946 6.4967 8.85663 6.27387 8.85663 5.99999C8.85663 5.72611 9.07946 5.50328 9.35334 5.50328C9.62722 5.50328 9.85004 5.72611 9.85004 5.99999C9.85004 6.27387 9.62722 6.4967 9.35334 6.4967Z" fill="#323232" stroke="#323232" stroke-width="0.1"/>
<path d="M11.6823 9.29144H6.9221C6.74001 8.75061 6.22846 8.35986 5.627 8.35986C5.02555 8.35986 4.514 8.75061 4.33191 9.29144H1.43487C1.19471 9.29144 1 9.48614 1 9.72631C1 9.96647 1.19471 10.1612 1.43487 10.1612H4.33191C4.514 10.702 5.02555 11.0928 5.627 11.0928C6.22846 11.0928 6.74001 10.702 6.9221 10.1612H11.6823C11.9225 10.1612 12.1172 9.96647 12.1172 9.72631C12.1172 9.48614 11.9225 9.29144 11.6823 9.29144ZM5.627 10.223C5.35312 10.223 5.1303 10.0002 5.1303 9.72634C5.1303 9.45246 5.35312 9.22963 5.627 9.22963C5.90088 9.22963 6.12371 9.45243 6.12371 9.72631C6.12371 10.0002 5.90088 10.223 5.627 10.223Z" fill="#323232" stroke="#323232" stroke-width="0.1"/>
</svg>
