<svg width="37" height="38" viewBox="0 0 37 38" fill="none" xmlns="http://www.w3.org/2000/svg">
<path d="M10.5591 27.8265L11.8124 29.0798L12.6866 29.379L18.5848 31.3967L24.5136 33.4247L30.3813 35.4323L35.6247 37.226H36.8779V35.9728L35.8056 33.3989L34.2813 29.7401L32.757 26.0821L31.1207 22.1554L29.7084 18.7661L28.1841 15.1081L27.4784 13.4138L26.2251 12.1605L20.3347 18.0509L13.5678 24.8178L10.5591 27.8265Z" fill="#D69651"/>
<path d="M24.5136 33.4248L30.3813 35.4324L35.8057 33.399L34.2814 29.7402L24.5136 33.4248Z" fill="#C78640"/>
<path d="M12.6864 29.379L18.5846 31.3968L32.7568 26.0821L31.1205 22.1555L12.6864 29.379Z" fill="#C78640"/>
<path d="M13.5684 24.8178L29.709 18.766L28.1847 15.108L20.3353 18.0509L13.5684 24.8178Z" fill="#C78640"/>
<path d="M23.0914 11.5339L20.4711 8.91356C20.1427 8.58518 19.9582 8.1398 19.9582 7.6754C19.9582 7.33272 20.0588 6.99757 20.2474 6.71148C20.4361 6.4254 20.7045 6.20095 21.0195 6.06596L22.6511 5.36669C23.7607 4.89116 24.7259 4.13257 25.4502 3.16682L26.2246 2.13432L24.3447 0.881042C23.5324 2.09946 22.3372 3.01236 20.948 3.47543L20.2016 3.72421C19.4009 3.99114 18.7044 4.50326 18.2108 5.18803C17.7173 5.87279 17.4517 6.69549 17.4517 7.53959C17.4517 8.49963 17.7951 9.428 18.4199 10.1569L21.2115 13.4138L23.0914 11.5339Z" fill="#FFC431"/>
<path d="M14.3187 8.40064L14.9453 4.64081L11.1855 5.89408L14.3187 8.40064Z" fill="#D1E4FF"/>
<path d="M18.2207 2.11926L17.9162 0.903584L15.41 1.53143L15.7145 2.7471L18.2207 2.11926Z" fill="#FB6A83"/>
<path d="M12.1611 1.60474L10.2814 0.350801L9.58579 1.39353L11.4656 2.64746L12.1611 1.60474Z" fill="#FFC431"/>
<path d="M26.8311 6.03943L25.6154 5.73488L24.9875 8.24108L26.2032 8.54562L26.8311 6.03943Z" fill="#6173E8"/>
<path d="M11.1855 23.4401L8.56519 20.8198C8.23681 20.4914 7.79143 20.3069 7.32703 20.3069C6.98435 20.3069 6.64919 20.4075 6.36311 20.5961C6.07702 20.7847 5.85258 21.0532 5.71759 21.3682L5.01832 22.9998C4.54279 24.1094 3.78419 25.0746 2.81845 25.7989L1.78594 26.5733L0.532667 24.6934C1.75108 23.8811 2.66399 22.6859 3.12706 21.2967L3.37584 20.5503C3.64277 19.7495 4.15488 19.053 4.83965 18.5595C5.52442 18.0659 6.34712 17.8004 7.19121 17.8004C8.15125 17.8004 9.07962 18.1438 9.80854 18.7686L13.0654 21.5602L11.1855 23.4401Z" fill="#6173E8"/>
<path d="M6.17285 15.2937L2.41302 15.9204L3.6663 12.1605L6.17285 15.2937Z" fill="#FFC431"/>
<path d="M2.39062 17.9326L1.17495 17.628L0.547117 20.1342L1.76279 20.4388L2.39062 17.9326Z" fill="#FB6A83"/>
<path d="M2.29688 11.8181L1.04293 9.93834L0.000202588 10.6339L1.25414 12.5137L2.29688 11.8181Z" fill="#D1E4FF"/>
<path d="M8.19336 26.5711L7.88881 25.3554L5.38261 25.9833L5.68715 27.199L8.19336 26.5711Z" fill="#6173E8"/>
<path d="M18.7051 16.547L16.2094 13.6334C15.399 12.6872 14.2594 12.0843 13.0213 11.9467L12.9501 11.9388C11.8881 11.8225 10.8891 11.3766 10.0932 10.6638C9.29732 9.95099 8.74449 9.00698 8.51222 7.96412V7.96411C8.37341 7.33945 8.06666 6.76455 7.62508 6.30143C7.18349 5.83832 6.62383 5.50457 6.00648 5.3362L1.15921 4.01422L0.532572 6.52077L3.92116 7.27379C4.59043 7.42252 5.20184 7.76307 5.68062 8.25379C6.15939 8.7445 6.48478 9.36412 6.61698 10.0368L6.63477 10.1274C6.85715 11.2585 7.43759 12.288 8.29028 13.0637C9.14297 13.8394 10.2226 14.3201 11.3697 14.4348L11.4437 14.4422C12.8828 14.5827 14.2086 15.2844 15.1339 16.3954C15.9552 17.383 16.8252 18.4269 16.8252 18.4269L18.7051 16.547Z" fill="#FB6A83"/>
</svg>
