<svg width="16" height="18" viewBox="0 0 16 18" fill="none" xmlns="http://www.w3.org/2000/svg">
<path d="M7.86107 17.6527H6.48194C5.79751 17.6527 5.24072 17.0959 5.24072 16.4114V7.86084C5.24072 7.17642 5.79751 6.61963 6.48194 6.61963H7.86107C8.54549 6.61963 9.10228 7.17642 9.10228 7.86084V16.4114C9.10228 17.0959 8.54546 17.6527 7.86107 17.6527ZM6.48194 7.72293C6.40588 7.72293 6.34403 7.78479 6.34403 7.86084V16.4114C6.34403 16.4875 6.40588 16.5494 6.48194 16.5494H7.86107C7.93713 16.5494 7.99898 16.4875 7.99898 16.4114V7.86084C7.99898 7.78479 7.93713 7.72293 7.86107 7.72293H6.48194Z" fill="#A946F6"/>
<path d="M2.62034 17.6525H1.24122C0.556789 17.6525 0 17.0957 0 16.4112V10.6189C0 9.93447 0.556789 9.37769 1.24122 9.37769H2.62034C3.30477 9.37769 3.86156 9.93447 3.86156 10.6189V16.4112C3.86156 17.0957 3.30474 17.6525 2.62034 17.6525ZM1.24122 10.481C1.16516 10.481 1.1033 10.5428 1.1033 10.6189V16.4112C1.1033 16.4873 1.16516 16.5492 1.24122 16.5492H2.62034C2.6964 16.5492 2.75826 16.4873 2.75826 16.4112V10.6189C2.75826 10.5428 2.6964 10.481 2.62034 10.481H1.24122Z" fill="#A946F6"/>
<path d="M13.1023 17.6526H11.7232C11.0388 17.6526 10.482 17.0958 10.482 16.4114V4.96462H9.72415C9.36985 4.96462 9.05775 4.76465 8.9097 4.44276C8.76165 4.12087 8.81292 3.75381 9.04351 3.48478C9.04613 3.48171 9.04882 3.47864 9.05151 3.47564L12.0019 0.183249C12.1066 0.0664712 12.256 -0.000244141 12.4128 -0.000244141C12.5696 -0.000244141 12.7189 0.0664712 12.8236 0.183249L15.774 3.47564C15.7767 3.47864 15.7794 3.48171 15.782 3.48478C16.0126 3.75378 16.0639 4.12087 15.9158 4.44276C15.7678 4.76465 15.4557 4.96462 15.1014 4.96462H14.3435V16.4114C14.3435 17.0958 13.7867 17.6526 13.1023 17.6526ZM10.1874 3.86132H11.0336C11.3383 3.86132 11.5853 4.10832 11.5853 4.41297V16.4114C11.5853 16.4874 11.6471 16.5493 11.7232 16.5493H13.1023C13.1784 16.5493 13.2402 16.4874 13.2402 16.4114V4.41297C13.2402 4.10832 13.4872 3.86132 13.7919 3.86132H14.6381L12.4128 1.37802L10.1874 3.86132Z" fill="#A946F6"/>
</svg>
