<svg width="34" height="34" viewBox="0 0 34 34" fill="none" xmlns="http://www.w3.org/2000/svg">
<path d="M16.9996 8.87225C17.4897 8.87225 17.8869 8.47499 17.8869 7.98495C17.8869 7.49491 17.4897 7.09766 16.9996 7.09766C16.5096 7.09766 16.1123 7.49491 16.1123 7.98495C16.1123 8.47499 16.5096 8.87225 16.9996 8.87225Z" fill="white"/>
<path d="M26.7604 13.3097C27.2504 13.3097 27.6477 12.9125 27.6477 12.4225C27.6477 11.9324 27.2504 11.5352 26.7604 11.5352C26.2703 11.5352 25.873 11.9324 25.873 12.4225C25.873 12.9125 26.2703 13.3097 26.7604 13.3097Z" fill="white"/>
<path d="M7.23984 13.3097C7.72988 13.3097 8.12714 12.9125 8.12714 12.4225C8.12714 11.9324 7.72988 11.5352 7.23984 11.5352C6.7498 11.5352 6.35254 11.9324 6.35254 12.4225C6.35254 12.9125 6.7498 13.3097 7.23984 13.3097Z" fill="white"/>
<path d="M8.99128 22.1819H25.0065L26.7378 14.3886C26.7762 14.2157 26.762 14.0353 26.697 13.8706C26.632 13.7058 26.5192 13.5643 26.3731 13.4642C26.227 13.3641 26.0543 13.31 25.8772 13.3089C25.7001 13.3078 25.5267 13.3597 25.3793 13.458L20.8916 16.4495L17.7922 10.2502C17.7185 10.1028 17.6052 9.97887 17.465 9.89226C17.3249 9.80564 17.1634 9.75977 16.9986 9.75977C16.8338 9.75977 16.6723 9.80564 16.5322 9.89226C16.392 9.97887 16.2787 10.1028 16.205 10.2502L13.1056 16.4495L8.61773 13.458C8.47038 13.3597 8.29701 13.3079 8.11993 13.309C7.94285 13.3101 7.77016 13.3642 7.62407 13.4643C7.47798 13.5644 7.36519 13.7059 7.3002 13.8706C7.23521 14.0353 7.22099 14.2158 7.25938 14.3886L8.99128 22.1819Z" fill="white"/>
<path d="M9.01465 23.0703V24.8449C9.01465 25.0802 9.10813 25.3059 9.27453 25.4723C9.44093 25.6387 9.66662 25.7322 9.90195 25.7322H24.0987C24.334 25.7322 24.5597 25.6387 24.7261 25.4723C24.8925 25.3059 24.986 25.0802 24.986 24.8449V23.0703H9.01465Z" fill="white"/>
</svg>
