<svg width="23" height="23" viewBox="0 0 23 23" fill="none" xmlns="http://www.w3.org/2000/svg">
<path d="M12.7529 17.7149L5.67655 10.6435C5.50406 10.4707 5.22402 10.4704 5.05108 10.6427C4.96769 10.7258 4.92092 10.8387 4.92113 10.9564V11.2216C4.91682 12.9524 4.32738 14.631 3.24847 15.985C3.10845 16.161 3.12288 16.414 3.28209 16.5729L6.82026 20.1086C6.96957 20.2579 7.20376 20.2809 7.37931 20.1634L7.99848 19.7488C9.25029 18.9134 10.7222 18.4682 12.2275 18.4698H12.4398C12.6841 18.4703 12.8824 18.2727 12.8829 18.0286C12.883 17.9109 12.8363 17.798 12.7529 17.7149Z" fill="white"/>
<path d="M10.0625 20.4629L2.98612 13.3916C2.81363 13.2187 2.53359 13.2184 2.36065 13.3908C2.27726 13.4739 2.23049 13.5868 2.2307 13.7045V13.9696C2.22639 15.7004 1.63695 17.379 0.558038 18.7331C0.418017 18.909 0.432447 19.162 0.591665 19.3209L4.12983 22.8565C4.27914 23.0059 4.51333 23.0289 4.68888 22.9114L5.30805 22.4968C6.55986 21.6613 8.03176 21.2162 9.53708 21.2178H9.74937C9.99363 21.2183 10.192 21.0207 10.1924 20.7766C10.1926 20.6589 10.1458 20.546 10.0625 20.4629Z" fill="#38D2F4"/>
<path d="M6.56151 18.5984L4.7924 16.8306C4.61971 16.658 4.33975 16.658 4.16701 16.8306L1.51337 19.4823C1.34117 19.6554 1.342 19.9353 1.51524 20.1073C1.56441 20.1562 1.62437 20.1928 1.69029 20.2142L4.34393 21.0981C4.38764 21.1125 4.43325 21.1202 4.47927 21.1211C4.59665 21.1213 4.70931 21.0749 4.7924 20.992L6.56151 19.2242C6.73445 19.0518 6.73478 18.772 6.56229 18.5992C6.56205 18.5989 6.5618 18.5987 6.56151 18.5984Z" fill="white"/>
<path d="M21.9623 2.83095L20.5735 1.44321C19.8034 0.663222 18.576 0.569333 17.6961 1.22312L5.09929 10.6032C4.9033 10.7489 4.86254 11.0257 5.00828 11.2216C5.02118 11.239 5.03536 11.2553 5.05066 11.2706L12.127 18.3419C12.2101 18.4248 12.3228 18.4712 12.4402 18.471H12.472C12.6002 18.4618 12.7181 18.3973 12.7949 18.2942L22.1799 5.70719C22.8361 4.82863 22.7433 3.60095 21.9623 2.83095Z" fill="white"/>
<path d="M16.1542 5.5L12.4619 8.47" stroke="#38D2F4" stroke-width="1.5" stroke-linecap="round"/>
</svg>
