<svg width="27" height="26" viewBox="0 0 27 26" fill="none" xmlns="http://www.w3.org/2000/svg">
<path d="M15.479 24.4524C15.4975 24.4656 15.5106 24.4775 15.52 24.4878C13.8176 24.5663 12.1137 24.2257 10.5615 23.4852C8.54955 22.5255 6.89907 20.9448 5.85334 18.9761C4.80761 17.0074 4.42195 14.7548 4.75317 12.5504C5.08439 10.346 6.11499 8.30621 7.69309 6.73176C9.27118 5.1573 11.3133 4.13142 13.5185 3.80529C15.7237 3.47916 17.9754 3.87003 19.9416 4.92031C21.9079 5.97058 23.4848 7.6247 24.4399 9.63891C25.1767 11.1927 25.5135 12.8975 25.431 14.5997C25.4207 14.5903 25.4088 14.5771 25.3957 14.5586C25.3477 14.4911 25.3087 14.3834 25.3107 14.2619C25.336 12.692 25.0012 11.1285 24.3214 9.69509C23.3784 7.70626 21.8213 6.07299 19.8799 5.03596C17.9384 3.99892 15.7151 3.61297 13.5377 3.93499C11.3603 4.25701 9.3439 5.26996 7.78569 6.82457C6.22748 8.37918 5.20988 10.3932 4.88283 12.5699C4.55578 14.7465 4.93659 16.9707 5.96914 18.9146C7.00168 20.8584 8.63135 22.4192 10.618 23.3669C12.0498 24.0499 13.6125 24.3884 15.1825 24.3667C15.304 24.365 15.4116 24.4042 15.479 24.4524Z" stroke="white" stroke-width="3" stroke-linecap="round" stroke-linejoin="round"/>
<path d="M7.7191 17.0181L2.59158 18.4679L2.20989 17.3199L7.33741 15.8701L7.7191 17.0181Z" stroke="#F43865" stroke-width="2"/>
<path d="M14.421 6.80704L14.662 1.48392L15.8718 1.4837L15.6308 6.80682L14.421 6.80704Z" stroke="#F43865" stroke-width="2"/>
<path d="M17.3535 13.3366C17.3546 13.3024 17.3632 13.2708 17.3632 13.2367C17.3632 11.9559 16.3241 10.916 15.0404 10.916C13.7576 10.916 12.7188 11.9559 12.7188 13.2367C12.7188 14.5186 13.7576 15.5573 15.0404 15.5573C15.0828 15.5573 15.1208 15.547 15.1631 15.5448L21.8391 21.1329C22.1468 21.3919 22.6076 21.3984 22.9229 21.1275C23.275 20.8267 23.3163 20.2978 23.0152 19.946L17.3535 13.3366Z" fill="white"/>
</svg>
