<svg width="156" height="29" viewBox="0 0 156 29" fill="none" xmlns="http://www.w3.org/2000/svg">
<path d="M18.7212 28H10.0812L0.0412469 1.32H7.84125L14.4012 20.56L21.0012 1.32H28.8012L18.7212 28ZM59.3341 28H51.5341L50.2141 24.16H39.6941L38.3741 28H30.5741L40.6141 1.32H49.2541L59.3341 28ZM48.3341 18.16L44.9341 8.12L41.5341 18.16H48.3341ZM81.3047 28H65.7047V1.32H80.8247C83.3047 1.32 85.2247 2 86.5847 3.36C87.9447 4.69333 88.6247 6.28 88.6247 8.12C88.6247 9.72 88.1847 11.0667 87.3047 12.16C86.4514 13.2533 85.3714 13.9467 84.0647 14.24C85.5047 14.4533 86.7047 15.1867 87.6647 16.44C88.6514 17.6667 89.1447 19.1067 89.1447 20.76C89.1447 22.8133 88.4647 24.5333 87.1047 25.92C85.7447 27.3067 83.8114 28 81.3047 28ZM79.2647 11.56C79.958 11.56 80.518 11.36 80.9447 10.96C81.398 10.5333 81.6247 9.98667 81.6247 9.32C81.6247 8.68 81.398 8.16 80.9447 7.76C80.518 7.33333 79.958 7.12 79.2647 7.12H72.5847V11.56H79.2647ZM79.5047 22.2C80.3314 22.2 80.9714 21.9867 81.4247 21.56C81.9047 21.1067 82.1447 20.52 82.1447 19.8C82.1447 19.1067 81.9047 18.5333 81.4247 18.08C80.9714 17.6267 80.3314 17.4 79.5047 17.4H72.5847V22.2H79.5047ZM123.212 28H115.412L114.092 24.16H103.572L102.252 28H94.4522L104.492 1.32H113.132L123.212 28ZM112.212 18.16L108.812 8.12L105.412 18.16H112.212ZM151.414 24.6C148.72 27.1867 145.32 28.48 141.214 28.48C137.107 28.48 133.694 27.1867 130.974 24.6C128.28 22.0133 126.934 18.7067 126.934 14.68C126.934 10.6533 128.28 7.34667 130.974 4.76C133.694 2.17333 137.107 0.879999 141.214 0.879999C145.32 0.879999 148.72 2.17333 151.414 4.76C154.107 7.34667 155.454 10.6533 155.454 14.68C155.454 18.7067 154.107 22.0133 151.414 24.6ZM141.214 22.4C143.374 22.4 145.12 21.6667 146.454 20.2C147.787 18.7333 148.454 16.8933 148.454 14.68C148.454 12.4667 147.787 10.6267 146.454 9.16C145.12 7.69333 143.374 6.96 141.214 6.96C139.027 6.96 137.267 7.69333 135.934 9.16C134.6 10.6267 133.934 12.4667 133.934 14.68C133.934 16.8933 134.6 18.7333 135.934 20.2C137.267 21.6667 139.027 22.4 141.214 22.4Z" fill="#3878F4"/>
</svg>
