<svg width="16" height="19" viewBox="0 0 16 19" fill="none" xmlns="http://www.w3.org/2000/svg">
<path d="M7.86107 18.1011H6.48194C5.79751 18.1011 5.24072 17.5444 5.24072 16.8599V8.30933C5.24072 7.6249 5.79751 7.06812 6.48194 7.06812H7.86107C8.54549 7.06812 9.10228 7.6249 9.10228 8.30933V16.8599C9.10228 17.5444 8.54546 18.1011 7.86107 18.1011ZM6.48194 8.17142C6.40588 8.17142 6.34403 8.23327 6.34403 8.30933V16.8599C6.34403 16.936 6.40588 16.9978 6.48194 16.9978H7.86107C7.93713 16.9978 7.99898 16.936 7.99898 16.8599V8.30933C7.99898 8.23327 7.93713 8.17142 7.86107 8.17142H6.48194Z" fill="#3878F4"/>
<path d="M2.62034 18.1009H1.24122C0.556789 18.1009 0 17.5442 0 16.8597V11.0674C0 10.383 0.556789 9.82617 1.24122 9.82617H2.62034C3.30477 9.82617 3.86156 10.383 3.86156 11.0674V16.8597C3.86156 17.5442 3.30474 18.1009 2.62034 18.1009ZM1.24122 10.9295C1.16516 10.9295 1.1033 10.9913 1.1033 11.0674V16.8597C1.1033 16.9358 1.16516 16.9976 1.24122 16.9976H2.62034C2.6964 16.9976 2.75826 16.9358 2.75826 16.8597V11.0674C2.75826 10.9913 2.6964 10.9295 2.62034 10.9295H1.24122Z" fill="#3878F4"/>
<path d="M13.1023 18.1011H11.7232C11.0388 18.1011 10.482 17.5443 10.482 16.8599V5.41311H9.72415C9.36985 5.41311 9.05775 5.21313 8.9097 4.89124C8.76165 4.56935 8.81292 4.2023 9.04351 3.93327C9.04613 3.9302 9.04882 3.92713 9.05151 3.92413L12.0019 0.631735C12.1066 0.514958 12.256 0.448242 12.4128 0.448242C12.5696 0.448242 12.7189 0.514958 12.8236 0.631735L15.774 3.92413C15.7767 3.92713 15.7794 3.9302 15.782 3.93327C16.0126 4.20226 16.0639 4.56935 15.9158 4.89124C15.7678 5.21313 15.4557 5.41311 15.1014 5.41311H14.3435V16.8599C14.3435 17.5443 13.7867 18.1011 13.1023 18.1011ZM10.1874 4.3098H11.0336C11.3383 4.3098 11.5853 4.5568 11.5853 4.86145V16.8599C11.5853 16.9359 11.6471 16.9978 11.7232 16.9978H13.1023C13.1784 16.9978 13.2402 16.9359 13.2402 16.8599V4.86145C13.2402 4.5568 13.4872 4.3098 13.7919 4.3098H14.6381L12.4128 1.82651L10.1874 4.3098Z" fill="#3878F4"/>
</svg>
