<svg width="32" height="32" viewBox="0 0 32 32" fill="none" xmlns="http://www.w3.org/2000/svg">
<rect width="32" height="32" rx="16" fill="#38D2F4"/>
<path d="M16.8895 20.8855L10.5575 14.558C10.4032 14.4033 10.1526 14.403 9.99783 14.5572C9.92322 14.6316 9.88137 14.7327 9.88155 14.8379V15.0752C9.87769 16.624 9.35026 18.126 8.38484 19.3376C8.25955 19.4951 8.27246 19.7214 8.41493 19.8636L11.5809 23.0273C11.7145 23.161 11.9241 23.1815 12.0812 23.0764L12.6352 22.7055C13.7553 21.9579 15.0724 21.5595 16.4194 21.561H16.6093C16.8279 21.5614 17.0054 21.3846 17.0058 21.1662C17.0059 21.0609 16.9641 20.9598 16.8895 20.8855Z" fill="white"/>
<path d="M14.4832 23.3429L8.15125 17.0155C7.99691 16.8608 7.74633 16.8605 7.59158 17.0148C7.51697 17.0891 7.47512 17.1902 7.4753 17.2955V17.5327C7.47144 19.0815 6.94401 20.5835 5.97859 21.7951C5.8533 21.9525 5.86621 22.1789 6.00868 22.3211L9.17466 25.4848C9.30826 25.6185 9.51781 25.639 9.6749 25.5339L10.2289 25.1629C11.3491 24.4153 12.6661 24.017 14.0131 24.0184H14.2031C14.4216 24.0189 14.5991 23.8421 14.5995 23.6237C14.5997 23.5183 14.5578 23.4173 14.4832 23.3429Z" fill="#38D2F4"/>
<path d="M11.3539 21.6761L9.77086 20.0942C9.61633 19.9398 9.36582 19.9398 9.21125 20.0942L6.83676 22.467C6.68267 22.6219 6.68342 22.8723 6.83843 23.0263C6.88243 23.07 6.93608 23.1027 6.99507 23.1219L9.36957 23.9128C9.40867 23.9257 9.44948 23.9326 9.49066 23.9334C9.5957 23.9336 9.6965 23.892 9.77086 23.8179L11.3539 22.236C11.5086 22.0818 11.5089 21.8314 11.3546 21.6767C11.3543 21.6765 11.3541 21.6763 11.3539 21.6761Z" fill="white"/>
<path d="M25.1316 7.56635L23.8889 6.32459C23.1998 5.62665 22.1015 5.54264 21.3142 6.12765L10.0424 14.5211C9.86706 14.6514 9.83059 14.8991 9.961 15.0744C9.97254 15.0899 9.98523 15.1046 9.99892 15.1182L16.3309 21.4457C16.4053 21.5198 16.5061 21.5614 16.6111 21.5612H16.6396C16.7543 21.5529 16.8598 21.4952 16.9285 21.403L25.3263 10.14C25.9135 9.3539 25.8304 8.25536 25.1316 7.56635Z" fill="white"/>
<path d="M19.9377 9.95465L16.6338 12.6122" stroke="#38D2F4" stroke-width="1.5" stroke-linecap="round"/>
</svg>
