<svg width="32" height="32" viewBox="0 0 32 32" fill="none" xmlns="http://www.w3.org/2000/svg">
<rect width="32" height="32" rx="16" fill="#FFD207"/>
<path d="M16.2139 8.70309C16.6524 8.70309 17.0079 8.34762 17.0079 7.90913C17.0079 7.47064 16.6524 7.11517 16.2139 7.11517C15.7754 7.11517 15.4199 7.47064 15.4199 7.90913C15.4199 8.34762 15.7754 8.70309 16.2139 8.70309Z" fill="white"/>
<path d="M24.9463 12.6728C25.3848 12.6728 25.7403 12.3173 25.7403 11.8788C25.7403 11.4403 25.3848 11.0848 24.9463 11.0848C24.5078 11.0848 24.1523 11.4403 24.1523 11.8788C24.1523 12.3173 24.5078 12.6728 24.9463 12.6728Z" fill="white"/>
<path d="M7.48146 12.6728C7.91995 12.6728 8.27542 12.3174 8.27542 11.8789C8.27542 11.4404 7.91995 11.0849 7.48146 11.0849C7.04297 11.0849 6.6875 11.4404 6.6875 11.8789C6.6875 12.3174 7.04297 12.6728 7.48146 12.6728Z" fill="white"/>
<path d="M9.04809 20.6122H23.3786L24.9278 13.6387C24.9622 13.484 24.9495 13.3226 24.8913 13.1751C24.8331 13.0277 24.7322 12.9011 24.6015 12.8115C24.4707 12.7219 24.3162 12.6735 24.1577 12.6726C23.9992 12.6716 23.8441 12.718 23.7122 12.8059L19.6966 15.4828L16.9232 9.93557C16.8572 9.80371 16.7559 9.69282 16.6305 9.61532C16.505 9.53782 16.3605 9.49677 16.2131 9.49677C16.0657 9.49677 15.9211 9.53782 15.7957 9.61532C15.6703 9.69282 15.5689 9.80371 15.503 9.93557L12.7296 15.4828L8.71383 12.8059C8.58198 12.7181 8.42685 12.6716 8.2684 12.6726C8.10994 12.6736 7.95542 12.722 7.8247 12.8116C7.69398 12.9012 7.59305 13.0278 7.5349 13.1752C7.47674 13.3226 7.46402 13.484 7.49838 13.6387L9.04809 20.6122Z" fill="white"/>
<path d="M9.06934 21.4064V22.9943C9.06934 23.2049 9.15299 23.4068 9.30188 23.5557C9.45078 23.7046 9.65273 23.7883 9.8633 23.7883H22.5667C22.7772 23.7883 22.9792 23.7046 23.1281 23.5557C23.277 23.4068 23.3606 23.2049 23.3606 22.9943V21.4064H9.06934Z" fill="white"/>
</svg>
