<svg width="36" height="36" viewBox="0 0 36 36" fill="none" xmlns="http://www.w3.org/2000/svg">
<rect width="36" height="36" rx="18" fill="#F43865"/>
<path d="M18.479 28.4525C18.4975 28.4657 18.5106 28.4776 18.52 28.4879C16.8176 28.5665 15.1137 28.2258 13.5615 27.4854C11.5495 26.5256 9.89907 24.9449 8.85334 22.9762C7.80761 21.0075 7.42195 18.755 7.75317 16.5505C8.08439 14.3461 9.11499 12.3063 10.6931 10.7319C12.2712 9.15742 14.3133 8.13154 16.5185 7.80541C18.7237 7.47928 20.9754 7.87015 22.9416 8.92043C24.9079 9.9707 26.4848 11.6248 27.4399 13.639C28.1767 15.1929 28.5135 16.8976 28.431 18.5998C28.4207 18.5904 28.4088 18.5772 28.3957 18.5587C28.3477 18.4912 28.3087 18.3835 28.3107 18.262C28.336 16.6921 28.0012 15.1286 27.3214 13.6952C26.3784 11.7064 24.8213 10.0731 22.8799 9.03608C20.9384 7.99904 18.7151 7.6131 16.5377 7.93511C14.3603 8.25713 12.3439 9.27009 10.7857 10.8247C9.22748 12.3793 8.20988 14.3933 7.88283 16.57C7.55578 18.7467 7.93659 20.9708 8.96914 22.9147C10.0017 24.8586 11.6314 26.4194 13.618 27.367C15.0498 28.0501 16.6125 28.3886 18.1825 28.3669C18.304 28.3652 18.4116 28.4044 18.479 28.4525Z" stroke="white" stroke-width="3" stroke-linecap="round" stroke-linejoin="round"/>
<path d="M10.7191 21.0185L5.59158 22.4684L5.20989 21.3204L10.3374 19.8705L10.7191 21.0185Z" stroke="#F43865" stroke-width="2"/>
<path d="M17.421 10.807L17.662 5.48392L18.8718 5.4837L18.6308 10.8068L17.421 10.807Z" stroke="#F43865" stroke-width="2"/>
<path d="M20.3535 17.3365C20.3546 17.3023 20.3632 17.2707 20.3632 17.2366C20.3632 15.9557 19.3241 14.9159 18.0404 14.9159C16.7576 14.9159 15.7188 15.9557 15.7188 17.2366C15.7188 18.5185 16.7576 19.5572 18.0404 19.5572C18.0828 19.5572 18.1208 19.5469 18.1631 19.5446L24.8391 25.1328C25.1468 25.3918 25.6076 25.3983 25.9229 25.1274C26.275 24.8266 26.3163 24.2977 26.0152 23.9459L20.3535 17.3365Z" fill="white"/>
</svg>
