<svg width="13" height="12" viewBox="0 0 13 12" fill="none" xmlns="http://www.w3.org/2000/svg">
<path d="M6.18285 0.878116C6.27266 0.601723 6.66368 0.601722 6.75349 0.878115L7.93282 4.50772C7.97298 4.63133 8.08817 4.71502 8.21813 4.71502H12.0345C12.3251 4.71502 12.446 5.0869 12.2109 5.25772L9.12334 7.50094C9.01819 7.57734 8.97419 7.71275 9.01435 7.83635L10.1937 11.466C10.2835 11.7424 9.96715 11.9722 9.73203 11.8014L6.6445 9.55815C6.53936 9.48176 6.39698 9.48176 6.29183 9.55815L3.20431 11.8014C2.96919 11.9722 2.65285 11.7424 2.74265 11.466L3.92198 7.83635C3.96214 7.71275 3.91815 7.57734 3.813 7.50094L0.725474 5.25772C0.49036 5.0869 0.611192 4.71502 0.901809 4.71502H4.7182C4.84817 4.71502 4.96336 4.63133 5.00352 4.50772L6.18285 0.878116Z" fill="#3878F4"/>
</svg>
