<svg width="362" height="257" viewBox="0 0 362 257" fill="none" xmlns="http://www.w3.org/2000/svg">
<path d="M48.4123 191.267C30.5164 183.325 31.1311 157.719 49.3875 150.645L181.528 99.4414C186.845 97.3809 192.755 97.4657 198.011 99.6779L318.17 150.251C335.293 157.458 336.327 181.332 319.892 189.992L211.613 247.046C200.781 252.753 187.932 253.185 176.741 248.219L48.4123 191.267Z" fill="#CCD2E0"/>
<path d="M49.069 188.446C31.4 180.639 31.6497 155.481 49.4703 148.026L172.163 96.7042C177.551 94.4506 183.614 94.4316 189.015 96.6513L315.209 148.509C332.542 155.631 333.603 179.779 316.961 188.395L210.575 243.47C199.813 249.041 187.105 249.433 176.02 244.536L49.069 188.446Z" fill="#DDE3EF"/>
<path d="M197.111 199.857C199.449 201.034 199.449 202.942 197.111 204.119L173.294 216.301C172.002 216.881 170.573 217.184 169.124 217.184C167.675 217.184 166.246 216.881 164.955 216.301L91.6334 178.827C89.2954 177.649 89.2954 175.742 91.6334 174.565L115.45 162.39C116.741 161.81 118.168 161.507 119.616 161.507C121.064 161.507 122.491 161.81 123.782 162.39L197.111 199.857Z" fill="#6D7687"/>
<path d="M197.111 198.597C199.449 199.774 199.449 201.682 197.111 202.859L173.325 215.006C172.034 215.588 170.605 215.892 169.155 215.892C167.706 215.892 166.277 215.588 164.986 215.006L91.6334 177.567C89.2954 176.39 89.2954 174.482 91.6334 173.305L115.45 161.123C116.741 160.543 118.168 160.24 119.616 160.24C121.064 160.24 122.491 160.543 123.782 161.123L197.111 198.597Z" fill="#C4D0F0"/>
<path d="M89.9023 175.315V173.38L198.855 198.783V200.897L89.9023 175.315Z" fill="#C4D0F0"/>
<path d="M197.111 196.655C199.449 197.832 199.449 199.74 197.111 200.917L173.294 213.092C172.003 213.674 170.574 213.977 169.124 213.977C167.675 213.977 166.246 213.674 164.955 213.092L91.6334 175.625C89.2954 174.447 89.2954 172.54 91.6334 171.362L115.45 159.181C116.741 158.601 118.168 158.298 119.616 158.298C121.064 158.298 122.491 158.601 123.782 159.181L197.111 196.655Z" fill="white"/>
<path d="M119.105 162.823L121.389 163.987C121.646 164.103 121.93 164.163 122.219 164.163C122.507 164.163 122.791 164.103 123.049 163.987L123.352 163.829C123.452 163.799 123.539 163.742 123.601 163.666C123.662 163.59 123.695 163.499 123.695 163.405C123.695 163.312 123.662 163.221 123.601 163.145C123.539 163.069 123.452 163.012 123.352 162.982L121.069 161.818C120.811 161.704 120.527 161.645 120.239 161.645C119.951 161.645 119.667 161.704 119.409 161.818L119.105 161.977C119.008 162.01 118.926 162.068 118.867 162.143C118.809 162.219 118.777 162.308 118.777 162.4C118.777 162.492 118.809 162.581 118.867 162.656C118.926 162.732 119.008 162.79 119.105 162.823Z" fill="#93A0C2"/>
<path d="M114.827 165.02L117.102 166.184C117.36 166.299 117.644 166.359 117.932 166.359C118.221 166.359 118.505 166.299 118.762 166.184L120.633 165.227C120.733 165.196 120.82 165.139 120.881 165.063C120.942 164.987 120.975 164.896 120.975 164.803C120.975 164.71 120.942 164.619 120.881 164.543C120.82 164.467 120.733 164.41 120.633 164.38L118.349 163.216C118.094 163.1 117.81 163.04 117.523 163.04C117.236 163.04 116.953 163.1 116.697 163.216L114.827 164.18C114.729 164.212 114.646 164.269 114.586 164.344C114.527 164.419 114.495 164.508 114.495 164.6C114.495 164.692 114.527 164.781 114.586 164.856C114.646 164.931 114.729 164.988 114.827 165.02Z" fill="#93A0C2"/>
<path d="M123.773 165.206L125.893 166.281C126.149 166.396 126.432 166.456 126.719 166.456C127.006 166.456 127.29 166.396 127.545 166.281L127.849 166.122C127.949 166.092 128.036 166.035 128.097 165.959C128.159 165.883 128.192 165.792 128.192 165.699C128.192 165.605 128.159 165.514 128.097 165.438C128.036 165.363 127.949 165.305 127.849 165.275L125.729 164.201C125.474 164.086 125.191 164.025 124.903 164.025C124.616 164.025 124.333 164.086 124.077 164.201L123.773 164.359C123.673 164.39 123.587 164.447 123.525 164.523C123.464 164.599 123.431 164.69 123.431 164.783C123.431 164.876 123.464 164.967 123.525 165.043C123.587 165.119 123.673 165.176 123.773 165.206Z" fill="#93A0C2"/>
<path d="M110.353 167.313L113.774 169.062C114.03 169.178 114.313 169.238 114.601 169.238C114.888 169.238 115.171 169.178 115.427 169.062L117.531 167.981C117.631 167.951 117.718 167.894 117.779 167.818C117.84 167.742 117.873 167.651 117.873 167.558C117.873 167.464 117.84 167.373 117.779 167.298C117.718 167.222 117.631 167.165 117.531 167.134L114.102 165.392C113.845 165.278 113.563 165.219 113.276 165.219C112.989 165.219 112.706 165.278 112.45 165.392L110.353 166.473C110.256 166.505 110.172 166.562 110.113 166.637C110.053 166.712 110.021 166.802 110.021 166.893C110.021 166.985 110.053 167.074 110.113 167.149C110.172 167.224 110.256 167.282 110.353 167.313Z" fill="#93A0C2"/>
<path d="M128.27 167.492L130.141 168.443C130.398 168.558 130.682 168.618 130.971 168.618C131.259 168.618 131.544 168.558 131.801 168.443L132.105 168.291C132.205 168.261 132.291 168.204 132.353 168.128C132.414 168.052 132.447 167.961 132.447 167.868C132.447 167.774 132.414 167.683 132.353 167.607C132.291 167.532 132.205 167.474 132.105 167.444L130.226 166.487C129.971 166.372 129.688 166.311 129.4 166.311C129.113 166.311 128.83 166.372 128.574 166.487L128.27 166.645C128.17 166.676 128.084 166.733 128.022 166.809C127.961 166.885 127.928 166.976 127.928 167.069C127.928 167.162 127.961 167.253 128.022 167.329C128.084 167.405 128.17 167.462 128.27 167.492Z" fill="#93A0C2"/>
<path d="M125.13 166.673L123.01 165.599C122.755 165.483 122.474 165.423 122.188 165.423C121.902 165.423 121.62 165.483 121.365 165.599L119.495 166.556C119.395 166.586 119.308 166.643 119.247 166.719C119.185 166.795 119.152 166.886 119.152 166.98C119.152 167.073 119.185 167.164 119.247 167.24C119.308 167.316 119.395 167.373 119.495 167.403L121.607 168.484C121.863 168.598 122.146 168.657 122.433 168.657C122.72 168.657 123.003 168.598 123.259 168.484L125.13 167.527C125.232 167.498 125.322 167.442 125.386 167.365C125.45 167.288 125.484 167.195 125.484 167.1C125.484 167.005 125.45 166.912 125.386 166.835C125.322 166.758 125.232 166.702 125.13 166.673Z" fill="#93A0C2"/>
<path d="M132.533 169.669L134.481 170.667C134.737 170.782 135.02 170.843 135.308 170.843C135.595 170.843 135.878 170.782 136.134 170.667L136.438 170.516C136.538 170.485 136.624 170.428 136.686 170.352C136.747 170.276 136.78 170.185 136.78 170.092C136.78 169.999 136.747 169.908 136.686 169.832C136.624 169.756 136.538 169.699 136.438 169.669L134.489 168.67C134.233 168.556 133.95 168.497 133.663 168.497C133.376 168.497 133.093 168.556 132.837 168.67L132.525 168.822C132.426 168.853 132.339 168.91 132.279 168.987C132.218 169.063 132.186 169.154 132.187 169.248C132.187 169.341 132.221 169.432 132.283 169.507C132.346 169.583 132.433 169.639 132.533 169.669Z" fill="#93A0C2"/>
<path d="M129.376 168.869L127.506 167.919C127.251 167.804 126.97 167.744 126.684 167.744C126.398 167.744 126.116 167.804 125.861 167.919L123.991 168.876C123.891 168.907 123.804 168.964 123.743 169.04C123.681 169.115 123.648 169.206 123.648 169.3C123.648 169.393 123.681 169.484 123.743 169.56C123.804 169.636 123.891 169.693 123.991 169.723L125.861 170.68C126.119 170.796 126.403 170.856 126.691 170.856C126.98 170.856 127.264 170.796 127.521 170.68L129.392 169.716C129.844 169.455 129.836 169.076 129.376 168.869Z" fill="#93A0C2"/>
<path d="M118.279 168.353L116.174 169.435C116.077 169.466 115.993 169.523 115.934 169.599C115.875 169.674 115.843 169.763 115.843 169.855C115.843 169.946 115.875 170.036 115.934 170.111C115.993 170.186 116.077 170.243 116.174 170.275L118.286 171.356C118.544 171.471 118.828 171.531 119.116 171.531C119.405 171.531 119.689 171.471 119.946 171.356L122.043 170.275C122.495 170.047 122.495 169.669 122.043 169.435L119.931 168.353C119.675 168.238 119.392 168.178 119.105 168.178C118.818 168.178 118.534 168.238 118.279 168.353Z" fill="#93A0C2"/>
<path d="M101.819 171.693L108.569 175.136C108.824 175.252 109.108 175.312 109.395 175.312C109.682 175.312 109.965 175.252 110.221 175.136L112.161 174.145C112.261 174.113 112.346 174.054 112.407 173.978C112.467 173.902 112.499 173.811 112.499 173.718C112.499 173.624 112.467 173.533 112.407 173.457C112.346 173.381 112.261 173.323 112.161 173.291L105.412 169.848C105.155 169.732 104.871 169.672 104.582 169.672C104.294 169.672 104.009 169.732 103.752 169.848L101.819 170.846C101.352 171.08 101.36 171.466 101.819 171.693Z" fill="#93A0C2"/>
<path d="M136.866 171.886L138.791 172.863C139.048 172.976 139.331 173.034 139.617 173.034C139.904 173.034 140.186 172.976 140.443 172.863L140.747 172.705C140.847 172.675 140.934 172.618 140.995 172.542C141.057 172.466 141.09 172.375 141.09 172.282C141.09 172.188 141.057 172.097 140.995 172.021C140.934 171.945 140.847 171.888 140.747 171.858L138.822 170.88C138.566 170.765 138.283 170.705 137.996 170.705C137.709 170.705 137.426 170.765 137.17 170.88L136.866 171.039C136.766 171.069 136.679 171.126 136.618 171.202C136.556 171.278 136.523 171.369 136.523 171.462C136.523 171.556 136.556 171.647 136.618 171.722C136.679 171.798 136.766 171.855 136.866 171.886Z" fill="#93A0C2"/>
<path d="M106.129 169.482L111.055 172.003C111.31 172.118 111.593 172.178 111.881 172.178C112.168 172.178 112.451 172.118 112.707 172.003L114.562 171.045C114.662 171.015 114.748 170.958 114.81 170.882C114.871 170.806 114.904 170.715 114.904 170.622C114.904 170.529 114.871 170.438 114.81 170.362C114.748 170.286 114.662 170.229 114.562 170.198L109.628 167.685C109.373 167.57 109.089 167.509 108.802 167.509C108.515 167.509 108.232 167.57 107.976 167.685L106.113 168.635C105.661 168.87 105.669 169.248 106.129 169.482Z" fill="#93A0C2"/>
<path d="M133.718 171.059L131.77 170.061C131.514 169.945 131.231 169.885 130.943 169.885C130.656 169.885 130.373 169.945 130.117 170.061L128.247 171.025C128.147 171.055 128.06 171.112 127.999 171.188C127.937 171.264 127.904 171.355 127.904 171.448C127.904 171.542 127.937 171.633 127.999 171.709C128.06 171.785 128.147 171.842 128.247 171.872L130.203 172.864C130.459 172.977 130.742 173.037 131.029 173.037C131.316 173.037 131.599 172.977 131.855 172.864L133.726 171.899C133.826 171.87 133.914 171.814 133.976 171.738C134.038 171.662 134.071 171.57 134.07 171.477C134.069 171.383 134.034 171.292 133.971 171.217C133.908 171.142 133.819 171.087 133.718 171.059Z" fill="#93A0C2"/>
<path d="M126.275 171.624L124.405 170.674C124.15 170.558 123.868 170.498 123.583 170.498C123.297 170.498 123.015 170.558 122.76 170.674L120.656 171.748C120.556 171.778 120.469 171.835 120.408 171.911C120.347 171.987 120.313 172.078 120.313 172.171C120.313 172.265 120.347 172.356 120.408 172.432C120.469 172.508 120.556 172.565 120.656 172.595L122.527 173.545C122.781 173.66 123.063 173.721 123.349 173.721C123.635 173.721 123.917 173.66 124.171 173.545L126.275 172.471C126.375 172.441 126.462 172.384 126.523 172.308C126.585 172.232 126.618 172.141 126.618 172.047C126.618 171.954 126.585 171.863 126.523 171.787C126.462 171.711 126.375 171.654 126.275 171.624Z" fill="#93A0C2"/>
<path d="M113.439 172.374C112.979 172.602 112.987 172.98 113.439 173.215L115.551 174.296C115.806 174.411 116.09 174.471 116.377 174.471C116.664 174.471 116.947 174.411 117.203 174.296L119.058 173.338C119.51 173.111 119.51 172.733 119.058 172.498L116.946 171.417C116.69 171.302 116.407 171.242 116.12 171.242C115.832 171.242 115.549 171.302 115.293 171.417L113.439 172.374Z" fill="#93A0C2"/>
<path d="M138.028 173.256L136.103 172.272C135.846 172.158 135.563 172.099 135.276 172.099C134.99 172.099 134.707 172.158 134.45 172.272L132.58 173.236C132.48 173.266 132.393 173.323 132.332 173.399C132.27 173.475 132.237 173.566 132.237 173.659C132.237 173.753 132.27 173.844 132.332 173.919C132.393 173.995 132.48 174.052 132.58 174.083L134.497 175.06C134.754 175.176 135.039 175.236 135.327 175.236C135.616 175.236 135.9 175.176 136.157 175.06L138.028 174.096C138.487 173.869 138.48 173.49 138.028 173.256Z" fill="#93A0C2"/>
<path d="M141.176 174.082L143.288 175.157C143.543 175.272 143.827 175.332 144.114 175.332C144.401 175.332 144.684 175.272 144.94 175.157L145.244 174.998C145.344 174.968 145.431 174.911 145.492 174.835C145.553 174.759 145.586 174.668 145.586 174.575C145.586 174.481 145.553 174.39 145.492 174.314C145.431 174.239 145.344 174.181 145.244 174.151L143.132 173.077C142.876 172.962 142.593 172.901 142.306 172.901C142.018 172.901 141.735 172.962 141.48 173.077L141.168 173.235C141.068 173.266 140.982 173.324 140.921 173.4C140.86 173.477 140.828 173.568 140.829 173.661C140.83 173.755 140.864 173.845 140.926 173.921C140.988 173.996 141.075 174.053 141.176 174.082Z" fill="#93A0C2"/>
<path d="M123.322 175.515C123.422 175.485 123.508 175.428 123.57 175.352C123.631 175.276 123.664 175.185 123.664 175.091C123.664 174.998 123.631 174.907 123.57 174.831C123.508 174.755 123.422 174.698 123.322 174.668L121.451 173.718C121.196 173.604 120.915 173.545 120.629 173.545C120.343 173.545 120.062 173.604 119.807 173.718L117.944 174.675C117.844 174.705 117.757 174.762 117.696 174.838C117.635 174.914 117.602 175.005 117.602 175.098C117.602 175.192 117.635 175.283 117.696 175.359C117.757 175.435 117.844 175.492 117.944 175.522L119.838 176.445C120.094 176.56 120.377 176.62 120.664 176.62C120.951 176.62 121.234 176.56 121.49 176.445L123.322 175.515Z" fill="#93A0C2"/>
<path d="M102.232 175.466L104.157 174.475C104.256 174.445 104.343 174.388 104.405 174.312C104.466 174.236 104.499 174.145 104.499 174.051C104.499 173.958 104.466 173.867 104.405 173.791C104.343 173.715 104.256 173.658 104.157 173.628L101.133 172.072C100.875 171.958 100.591 171.898 100.303 171.898C100.015 171.898 99.7303 171.958 99.4727 172.072L97.5477 173.063C97.4477 173.093 97.361 173.151 97.2995 173.226C97.2381 173.302 97.2051 173.393 97.2051 173.487C97.2051 173.58 97.2381 173.671 97.2995 173.747C97.361 173.823 97.4477 173.88 97.5477 173.91L100.611 175.473C100.863 175.583 101.141 175.64 101.422 175.639C101.703 175.637 101.98 175.578 102.232 175.466Z" fill="#93A0C2"/>
<path d="M130.616 173.814L128.667 172.822C128.41 172.706 128.126 172.646 127.837 172.646C127.549 172.646 127.265 172.706 127.007 172.822L124.911 173.896C124.811 173.926 124.724 173.983 124.663 174.059C124.601 174.135 124.568 174.226 124.568 174.32C124.568 174.413 124.601 174.504 124.663 174.58C124.724 174.656 124.811 174.713 124.911 174.743L126.852 175.755C127.108 175.868 127.391 175.926 127.678 175.926C127.964 175.926 128.247 175.868 128.504 175.755L130.608 174.674C130.714 174.648 130.808 174.593 130.875 174.515C130.942 174.438 130.978 174.344 130.979 174.247C130.98 174.149 130.945 174.054 130.88 173.976C130.814 173.898 130.721 173.841 130.616 173.814Z" fill="#93A0C2"/>
<path d="M145.674 176.375L147.544 177.326C147.8 177.441 148.083 177.501 148.37 177.501C148.657 177.501 148.941 177.441 149.196 177.326L149.508 177.167C149.609 177.139 149.697 177.083 149.76 177.007C149.822 176.932 149.856 176.841 149.856 176.747C149.856 176.654 149.822 176.563 149.76 176.487C149.697 176.411 149.609 176.356 149.508 176.327L147.638 175.37C147.382 175.255 147.099 175.194 146.812 175.194C146.524 175.194 146.241 175.255 145.985 175.37L145.681 175.528C145.581 175.558 145.494 175.614 145.432 175.69C145.37 175.765 145.336 175.856 145.335 175.949C145.334 176.043 145.366 176.134 145.427 176.21C145.488 176.287 145.574 176.344 145.674 176.375Z" fill="#93A0C2"/>
<path d="M142.524 175.549L140.412 174.475C140.156 174.361 139.873 174.302 139.586 174.302C139.299 174.302 139.016 174.361 138.76 174.475L136.889 175.439C136.79 175.469 136.703 175.526 136.641 175.602C136.58 175.678 136.547 175.769 136.547 175.862C136.547 175.956 136.58 176.047 136.641 176.123C136.703 176.199 136.79 176.256 136.889 176.286L139.001 177.36C139.257 177.476 139.54 177.536 139.828 177.536C140.115 177.536 140.398 177.476 140.654 177.36L142.524 176.403C142.627 176.374 142.717 176.318 142.781 176.241C142.844 176.164 142.879 176.071 142.879 175.976C142.879 175.881 142.844 175.788 142.781 175.711C142.717 175.635 142.627 175.578 142.524 175.549Z" fill="#93A0C2"/>
<path d="M110.953 175.515C110.853 175.545 110.766 175.602 110.705 175.678C110.643 175.754 110.61 175.845 110.61 175.938C110.61 176.032 110.643 176.123 110.705 176.199C110.766 176.275 110.853 176.332 110.953 176.362L113.073 177.436C113.327 177.551 113.609 177.612 113.895 177.612C114.181 177.612 114.463 177.551 114.717 177.436L116.658 176.444C116.758 176.414 116.844 176.357 116.906 176.281C116.967 176.205 117 176.114 117 176.021C117 175.928 116.967 175.837 116.906 175.761C116.844 175.685 116.758 175.628 116.658 175.598L114.538 174.516C114.282 174.403 113.999 174.343 113.712 174.343C113.425 174.343 113.142 174.403 112.886 174.516L110.953 175.515Z" fill="#93A0C2"/>
<path d="M108.654 175.928L106.542 174.847C106.286 174.731 106.003 174.671 105.716 174.671C105.429 174.671 105.145 174.731 104.89 174.847L102.965 175.838C102.865 175.869 102.778 175.926 102.717 176.002C102.655 176.078 102.622 176.169 102.622 176.262C102.622 176.355 102.655 176.446 102.717 176.522C102.778 176.598 102.865 176.655 102.965 176.685L105.077 177.76C105.332 177.875 105.616 177.935 105.903 177.935C106.19 177.935 106.473 177.875 106.729 177.76L108.662 176.775C108.761 176.744 108.848 176.686 108.908 176.61C108.969 176.533 109.001 176.442 109 176.349C109 176.256 108.966 176.165 108.904 176.089C108.841 176.014 108.754 175.957 108.654 175.928Z" fill="#93A0C2"/>
<path d="M134.918 176.01L133.001 175.067C132.745 174.951 132.462 174.891 132.175 174.891C131.888 174.891 131.605 174.951 131.349 175.067L129.245 176.148C129.147 176.18 129.063 176.237 129.004 176.312C128.945 176.387 128.913 176.476 128.913 176.568C128.913 176.66 128.945 176.749 129.004 176.824C129.063 176.899 129.147 176.956 129.245 176.988L131.17 177.966C131.426 178.08 131.709 178.139 131.996 178.139C132.283 178.139 132.566 178.08 132.822 177.966L134.918 176.885C135.425 176.623 135.378 176.244 134.918 176.01Z" fill="#93A0C2"/>
<path d="M122.176 177.684L124.124 178.682C124.38 178.798 124.663 178.858 124.95 178.858C125.237 178.858 125.52 178.798 125.776 178.682L127.631 177.725C127.731 177.695 127.818 177.638 127.879 177.562C127.941 177.486 127.974 177.395 127.974 177.302C127.974 177.208 127.941 177.117 127.879 177.042C127.818 176.966 127.731 176.909 127.631 176.878L125.683 175.887C125.427 175.771 125.144 175.711 124.857 175.711C124.569 175.711 124.286 175.771 124.03 175.887L122.176 176.837C122.076 176.867 121.989 176.924 121.927 177C121.866 177.076 121.833 177.167 121.833 177.261C121.833 177.354 121.866 177.445 121.927 177.521C121.989 177.597 122.076 177.654 122.176 177.684Z" fill="#93A0C2"/>
<path d="M149.929 178.545L151.877 179.543C152.134 179.659 152.419 179.719 152.707 179.719C152.996 179.719 153.28 179.659 153.537 179.543L153.841 179.385C153.941 179.355 154.028 179.297 154.089 179.222C154.151 179.146 154.184 179.055 154.184 178.961C154.184 178.868 154.151 178.777 154.089 178.701C154.028 178.625 153.941 178.568 153.841 178.538L151.893 177.539C151.637 177.424 151.354 177.364 151.067 177.364C150.779 177.364 150.496 177.424 150.24 177.539L149.937 177.691C149.833 177.719 149.743 177.775 149.679 177.851C149.614 177.927 149.579 178.02 149.578 178.115C149.577 178.21 149.611 178.303 149.674 178.381C149.737 178.458 149.826 178.515 149.929 178.545Z" fill="#93A0C2"/>
<path d="M146.78 177.719L144.909 176.768C144.653 176.653 144.37 176.593 144.083 176.593C143.796 176.593 143.513 176.653 143.257 176.768L141.387 177.726C141.287 177.756 141.2 177.813 141.138 177.889C141.077 177.965 141.044 178.056 141.044 178.149C141.044 178.242 141.077 178.333 141.138 178.409C141.2 178.485 141.287 178.542 141.387 178.573L143.257 179.53C143.514 179.642 143.797 179.7 144.083 179.7C144.37 179.7 144.652 179.642 144.909 179.53L146.78 178.566C146.88 178.535 146.966 178.478 147.028 178.402C147.089 178.327 147.122 178.236 147.122 178.142C147.122 178.049 147.089 177.958 147.028 177.882C146.966 177.806 146.88 177.749 146.78 177.719Z" fill="#93A0C2"/>
<path d="M119.058 176.81C118.802 176.696 118.519 176.637 118.232 176.637C117.945 176.637 117.662 176.696 117.406 176.81L115.45 177.822C115.35 177.852 115.263 177.909 115.202 177.985C115.14 178.061 115.107 178.152 115.107 178.245C115.107 178.339 115.14 178.43 115.202 178.506C115.263 178.582 115.35 178.639 115.45 178.669L117.32 179.619C117.575 179.735 117.857 179.795 118.143 179.795C118.429 179.795 118.71 179.735 118.965 179.619L120.905 178.628C121.005 178.597 121.092 178.54 121.154 178.464C121.215 178.388 121.248 178.297 121.248 178.204C121.248 178.111 121.215 178.02 121.154 177.944C121.092 177.868 121.005 177.811 120.905 177.781L119.058 176.81Z" fill="#93A0C2"/>
<path d="M107.47 178.978L109.333 179.935C109.59 180.051 109.874 180.111 110.163 180.111C110.451 180.111 110.735 180.051 110.993 179.935L112.918 178.944C113.017 178.914 113.104 178.857 113.166 178.781C113.227 178.705 113.26 178.614 113.26 178.52C113.26 178.427 113.227 178.336 113.166 178.26C113.104 178.184 113.017 178.127 112.918 178.097L111.047 177.133C110.791 177.019 110.508 176.96 110.221 176.96C109.934 176.96 109.651 177.019 109.395 177.133L107.462 178.124C107.01 178.365 107.01 178.744 107.47 178.978Z" fill="#93A0C2"/>
<path d="M139.415 178.31L137.303 177.229C137.048 177.113 136.766 177.053 136.48 177.053C136.194 177.053 135.913 177.113 135.658 177.229L133.554 178.31C133.453 178.338 133.365 178.394 133.302 178.47C133.24 178.545 133.206 178.636 133.206 178.73C133.206 178.824 133.24 178.915 133.302 178.99C133.365 179.066 133.453 179.122 133.554 179.15L135.666 180.231C135.922 180.347 136.205 180.407 136.492 180.407C136.779 180.407 137.062 180.347 137.318 180.231L139.422 179.15C139.882 178.923 139.874 178.51 139.415 178.31Z" fill="#93A0C2"/>
<path d="M126.532 179.887L128.457 180.865C128.714 180.979 128.997 181.038 129.283 181.038C129.57 181.038 129.853 180.979 130.11 180.865L131.964 179.908C132.064 179.878 132.151 179.82 132.213 179.745C132.274 179.669 132.307 179.578 132.307 179.484C132.307 179.391 132.274 179.3 132.213 179.224C132.151 179.148 132.064 179.091 131.964 179.061L130.047 178.083C129.791 177.968 129.508 177.907 129.221 177.907C128.934 177.907 128.651 177.968 128.395 178.083L126.532 179.04C126.073 179.281 126.073 179.66 126.532 179.887Z" fill="#93A0C2"/>
<path d="M154.269 180.762L155.898 181.595C156.157 181.707 156.44 181.765 156.728 181.765C157.016 181.765 157.3 181.707 157.558 181.595L157.862 181.437C157.962 181.406 158.049 181.349 158.11 181.273C158.172 181.198 158.205 181.107 158.205 181.013C158.205 180.92 158.172 180.829 158.11 180.753C158.049 180.677 157.962 180.62 157.862 180.59L156.233 179.757C155.978 179.641 155.694 179.581 155.407 179.581C155.12 179.581 154.837 179.641 154.581 179.757L154.269 179.915C154.169 179.945 154.083 180.002 154.021 180.078C153.96 180.154 153.927 180.245 153.927 180.338C153.927 180.432 153.96 180.523 154.021 180.599C154.083 180.675 154.169 180.732 154.269 180.762Z" fill="#93A0C2"/>
<path d="M151.112 179.936L149.164 178.937C148.91 178.822 148.628 178.761 148.342 178.761C148.056 178.761 147.774 178.822 147.52 178.937L145.649 179.901C145.549 179.931 145.463 179.988 145.401 180.064C145.34 180.14 145.307 180.231 145.307 180.325C145.307 180.418 145.34 180.509 145.401 180.585C145.463 180.661 145.549 180.718 145.649 180.748L147.598 181.74C147.855 181.855 148.139 181.915 148.428 181.915C148.716 181.915 149 181.855 149.258 181.74L151.128 180.783C151.58 180.576 151.572 180.17 151.112 179.936Z" fill="#93A0C2"/>
<path d="M123.314 181.822L125.246 180.824C125.346 180.793 125.433 180.736 125.495 180.66C125.556 180.584 125.589 180.493 125.589 180.4C125.589 180.307 125.556 180.216 125.495 180.14C125.433 180.064 125.346 180.007 125.246 179.977L123.298 178.985C123.041 178.869 122.756 178.809 122.468 178.809C122.18 178.809 121.895 178.869 121.638 178.985L119.705 179.977C119.245 180.211 119.253 180.589 119.705 180.824L121.654 181.822C121.911 181.937 122.195 181.997 122.484 181.997C122.772 181.997 123.056 181.937 123.314 181.822Z" fill="#93A0C2"/>
<path d="M111.725 181.147L113.673 182.146C113.929 182.261 114.212 182.322 114.499 182.322C114.787 182.322 115.07 182.261 115.325 182.146L117.25 181.154C117.35 181.124 117.437 181.067 117.499 180.991C117.56 180.915 117.593 180.824 117.593 180.731C117.593 180.638 117.56 180.547 117.499 180.471C117.437 180.395 117.35 180.338 117.25 180.307L115.294 179.316C115.039 179.2 114.755 179.14 114.468 179.14C114.181 179.14 113.898 179.2 113.642 179.316L111.717 180.307C111.616 180.336 111.529 180.393 111.467 180.469C111.405 180.545 111.372 180.636 111.373 180.73C111.374 180.824 111.408 180.914 111.472 180.989C111.535 181.065 111.624 181.12 111.725 181.147Z" fill="#93A0C2"/>
<path d="M143.678 180.479L141.808 179.522C141.552 179.408 141.269 179.349 140.982 179.349C140.695 179.349 140.412 179.408 140.156 179.522L138.052 180.603C137.952 180.633 137.865 180.691 137.803 180.766C137.742 180.842 137.709 180.933 137.709 181.027C137.709 181.12 137.742 181.211 137.803 181.287C137.865 181.363 137.952 181.42 138.052 181.45L139.922 182.4C140.178 182.516 140.461 182.576 140.748 182.576C141.035 182.576 141.318 182.516 141.574 182.4L143.671 181.326C143.771 181.297 143.858 181.24 143.92 181.165C143.982 181.089 144.016 180.999 144.017 180.905C144.018 180.812 143.986 180.721 143.925 180.644C143.864 180.568 143.778 180.51 143.678 180.479Z" fill="#93A0C2"/>
<path d="M130.842 182.091L132.962 183.172C133.216 183.287 133.498 183.347 133.784 183.347C134.07 183.347 134.352 183.287 134.606 183.172L136.469 182.215C136.566 182.183 136.65 182.126 136.709 182.051C136.769 181.975 136.801 181.886 136.801 181.794C136.801 181.703 136.769 181.614 136.709 181.538C136.65 181.463 136.566 181.406 136.469 181.374L134.357 180.293C134.1 180.178 133.815 180.118 133.527 180.118C133.238 180.118 132.954 180.178 132.697 180.293L130.834 181.264C130.742 181.299 130.664 181.357 130.609 181.431C130.554 181.505 130.526 181.591 130.526 181.68C130.527 181.768 130.558 181.854 130.614 181.927C130.67 182 130.749 182.057 130.842 182.091Z" fill="#93A0C2"/>
<path d="M155.135 181.988L153.506 181.148C153.249 181.035 152.966 180.977 152.68 180.977C152.393 180.977 152.11 181.035 151.854 181.148L149.983 182.112C149.883 182.142 149.797 182.199 149.735 182.275C149.674 182.351 149.641 182.442 149.641 182.535C149.641 182.629 149.674 182.72 149.735 182.795C149.797 182.871 149.883 182.929 149.983 182.959L151.62 183.792C151.877 183.907 152.161 183.968 152.45 183.968C152.738 183.968 153.023 183.907 153.28 183.792L155.15 182.828C155.602 182.601 155.595 182.215 155.135 181.988Z" fill="#93A0C2"/>
<path d="M158.291 182.814L160.403 183.888C160.659 184.003 160.942 184.063 161.229 184.063C161.516 184.063 161.799 184.003 162.055 183.888L162.359 183.729C162.459 183.699 162.546 183.642 162.607 183.566C162.669 183.49 162.702 183.399 162.702 183.306C162.702 183.213 162.669 183.122 162.607 183.046C162.546 182.97 162.459 182.913 162.359 182.882L160.247 181.808C159.991 181.693 159.708 181.633 159.421 181.633C159.134 181.633 158.851 181.693 158.595 181.808L158.283 181.967C158.183 181.997 158.097 182.055 158.036 182.132C157.976 182.208 157.943 182.299 157.944 182.392C157.945 182.486 157.979 182.577 158.041 182.652C158.103 182.728 158.191 182.784 158.291 182.814Z" fill="#93A0C2"/>
<path d="M124.046 183.034L125.971 184.012C126.227 184.127 126.51 184.188 126.798 184.188C127.085 184.188 127.368 184.127 127.624 184.012L129.557 183.014C129.656 182.983 129.743 182.926 129.805 182.85C129.866 182.774 129.899 182.683 129.899 182.59C129.899 182.497 129.866 182.406 129.805 182.33C129.743 182.254 129.656 182.197 129.557 182.167L127.632 181.196C127.376 181.08 127.093 181.02 126.805 181.02C126.518 181.02 126.235 181.08 125.979 181.196L124.039 182.194C123.942 182.226 123.858 182.284 123.8 182.36C123.741 182.435 123.71 182.525 123.711 182.617C123.712 182.708 123.744 182.797 123.804 182.872C123.864 182.947 123.949 183.003 124.046 183.034Z" fill="#93A0C2"/>
<path d="M116.057 183.365L117.982 184.342C118.238 184.458 118.521 184.518 118.809 184.518C119.096 184.518 119.379 184.458 119.635 184.342L121.56 183.358C121.659 183.326 121.744 183.268 121.805 183.191C121.865 183.115 121.898 183.024 121.898 182.931C121.898 182.838 121.865 182.747 121.805 182.67C121.744 182.594 121.659 182.536 121.56 182.504L119.635 181.526C119.379 181.411 119.096 181.35 118.809 181.35C118.521 181.35 118.238 181.411 117.982 181.526L116.057 182.518C115.957 182.548 115.871 182.605 115.809 182.681C115.748 182.757 115.715 182.848 115.715 182.941C115.715 183.034 115.748 183.125 115.809 183.201C115.871 183.277 115.957 183.334 116.057 183.365Z" fill="#93A0C2"/>
<path d="M148.011 182.69L146.063 181.698C145.807 181.583 145.524 181.522 145.237 181.522C144.95 181.522 144.666 181.583 144.411 181.698L142.306 182.772C142.207 182.803 142.12 182.86 142.058 182.936C141.997 183.011 141.964 183.102 141.964 183.196C141.964 183.289 141.997 183.38 142.058 183.456C142.12 183.532 142.207 183.589 142.306 183.619L144.263 184.611C144.517 184.726 144.799 184.786 145.085 184.786C145.371 184.786 145.653 184.726 145.907 184.611L148.011 183.537C148.111 183.506 148.198 183.449 148.259 183.373C148.321 183.298 148.354 183.207 148.354 183.113C148.354 183.02 148.321 182.929 148.259 182.853C148.198 182.777 148.111 182.72 148.011 182.69Z" fill="#93A0C2"/>
<path d="M135.339 184.391L137.209 185.341C137.465 185.457 137.748 185.517 138.035 185.517C138.323 185.517 138.606 185.457 138.861 185.341L140.724 184.391C140.824 184.361 140.911 184.304 140.972 184.228C141.034 184.152 141.067 184.061 141.067 183.967C141.067 183.874 141.034 183.783 140.972 183.707C140.911 183.631 140.824 183.574 140.724 183.544L138.854 182.587C138.597 182.475 138.314 182.416 138.027 182.416C137.741 182.416 137.458 182.475 137.201 182.587L135.347 183.544C135.246 183.573 135.159 183.63 135.097 183.705C135.035 183.781 135.001 183.872 135 183.965C134.999 184.058 135.031 184.15 135.092 184.226C135.153 184.302 135.239 184.36 135.339 184.391Z" fill="#93A0C2"/>
<path d="M162.787 185.107L164.657 186.057C164.913 186.173 165.196 186.233 165.483 186.233C165.771 186.233 166.054 186.173 166.31 186.057L166.614 185.899C166.713 185.869 166.8 185.812 166.862 185.736C166.923 185.66 166.956 185.569 166.956 185.475C166.956 185.382 166.923 185.291 166.862 185.215C166.8 185.139 166.713 185.082 166.614 185.052L164.743 184.102C164.487 183.986 164.204 183.926 163.917 183.926C163.63 183.926 163.347 183.986 163.091 184.102L162.787 184.26C162.687 184.29 162.6 184.347 162.539 184.423C162.477 184.499 162.444 184.59 162.444 184.684C162.444 184.777 162.477 184.868 162.539 184.944C162.6 185.02 162.687 185.077 162.787 185.107Z" fill="#93A0C2"/>
<path d="M159.638 184.281L157.526 183.2C157.27 183.086 156.987 183.026 156.7 183.026C156.413 183.026 156.13 183.086 155.874 183.2L154.004 184.164C153.904 184.194 153.817 184.251 153.756 184.327C153.694 184.403 153.661 184.494 153.661 184.587C153.661 184.68 153.694 184.771 153.756 184.847C153.817 184.923 153.904 184.98 154.004 185.011L156.124 186.085C156.379 186.2 156.662 186.26 156.95 186.26C157.237 186.26 157.52 186.2 157.776 186.085L159.646 185.128C159.746 185.097 159.832 185.039 159.893 184.963C159.954 184.886 159.986 184.795 159.985 184.702C159.984 184.608 159.95 184.518 159.888 184.442C159.826 184.367 159.739 184.31 159.638 184.281Z" fill="#93A0C2"/>
<path d="M128.356 185.231L130.468 186.312C130.724 186.427 131.007 186.488 131.294 186.488C131.581 186.488 131.865 186.427 132.12 186.312L134.053 185.32C134.153 185.29 134.24 185.233 134.301 185.157C134.363 185.081 134.396 184.99 134.396 184.897C134.396 184.804 134.363 184.713 134.301 184.637C134.24 184.561 134.153 184.504 134.053 184.473L131.941 183.392C131.685 183.277 131.402 183.217 131.115 183.217C130.828 183.217 130.545 183.277 130.289 183.392L128.348 184.391C128.251 184.423 128.168 184.481 128.109 184.557C128.051 184.632 128.02 184.722 128.021 184.813C128.021 184.905 128.054 184.994 128.114 185.069C128.174 185.143 128.258 185.2 128.356 185.231Z" fill="#93A0C2"/>
<path d="M152.033 184.742L150.404 183.909C150.147 183.793 149.863 183.733 149.574 183.733C149.286 183.733 149.001 183.793 148.744 183.909L146.648 184.99C146.547 185.018 146.459 185.074 146.396 185.15C146.334 185.225 146.3 185.317 146.3 185.41C146.3 185.504 146.334 185.595 146.396 185.67C146.459 185.746 146.547 185.802 146.648 185.83L148.284 186.663C148.539 186.779 148.821 186.839 149.107 186.839C149.392 186.839 149.674 186.779 149.929 186.663L152.033 185.589C152.133 185.559 152.22 185.502 152.281 185.426C152.343 185.35 152.376 185.259 152.376 185.166C152.376 185.072 152.343 184.981 152.281 184.905C152.22 184.829 152.133 184.772 152.033 184.742Z" fill="#93A0C2"/>
<path d="M139.602 186.56L141.55 187.551C141.806 187.667 142.089 187.727 142.376 187.727C142.663 187.727 142.947 187.667 143.202 187.551L145.057 186.601C145.157 186.571 145.244 186.514 145.305 186.438C145.367 186.362 145.4 186.271 145.4 186.178C145.4 186.084 145.367 185.993 145.305 185.917C145.244 185.841 145.157 185.784 145.057 185.754L143.109 184.762C142.853 184.647 142.57 184.587 142.283 184.587C141.995 184.587 141.712 184.647 141.457 184.762L139.602 185.713C139.134 185.947 139.142 186.326 139.602 186.56Z" fill="#93A0C2"/>
<path d="M167.043 187.276L168.991 188.274C169.249 188.388 169.533 188.447 169.821 188.447C170.109 188.447 170.393 188.388 170.651 188.274L170.955 188.123C171.055 188.092 171.142 188.035 171.203 187.959C171.265 187.883 171.298 187.792 171.298 187.699C171.298 187.606 171.265 187.515 171.203 187.439C171.142 187.363 171.055 187.306 170.955 187.276L169.007 186.277C168.751 186.162 168.468 186.102 168.18 186.102C167.893 186.102 167.61 186.162 167.354 186.277L167.05 186.436C166.953 186.466 166.868 186.523 166.808 186.598C166.748 186.672 166.716 186.762 166.715 186.853C166.714 186.945 166.745 187.034 166.804 187.11C166.862 187.185 166.946 187.243 167.043 187.276Z" fill="#93A0C2"/>
<path d="M163.894 186.45L162.023 185.499C161.768 185.384 161.485 185.324 161.197 185.324C160.91 185.324 160.627 185.384 160.371 185.499L158.501 186.456C158.401 186.487 158.314 186.544 158.253 186.62C158.191 186.696 158.158 186.787 158.158 186.88C158.158 186.973 158.191 187.064 158.253 187.14C158.314 187.216 158.401 187.273 158.501 187.303L160.371 188.254C160.627 188.369 160.91 188.429 161.197 188.429C161.485 188.429 161.768 188.369 162.023 188.254L163.894 187.297C163.994 187.266 164.081 187.209 164.142 187.133C164.203 187.057 164.236 186.966 164.236 186.873C164.236 186.78 164.203 186.689 164.142 186.613C164.081 186.537 163.994 186.48 163.894 186.45Z" fill="#93A0C2"/>
<path d="M132.853 187.531L134.724 188.481C134.98 188.595 135.263 188.654 135.55 188.654C135.837 188.654 136.12 188.595 136.376 188.481L138.317 187.482C138.417 187.452 138.503 187.395 138.565 187.319C138.626 187.243 138.659 187.152 138.659 187.059C138.659 186.966 138.626 186.875 138.565 186.799C138.503 186.723 138.417 186.666 138.317 186.635L136.454 185.685C136.196 185.571 135.912 185.512 135.624 185.512C135.336 185.512 135.052 185.571 134.794 185.685L132.853 186.684C132.753 186.714 132.667 186.771 132.605 186.847C132.544 186.923 132.511 187.014 132.511 187.107C132.511 187.2 132.544 187.291 132.605 187.367C132.667 187.443 132.753 187.5 132.853 187.531Z" fill="#93A0C2"/>
<path d="M156.529 187.035L154.425 185.961C154.168 185.846 153.884 185.785 153.595 185.785C153.307 185.785 153.022 185.846 152.765 185.961L150.669 187.035C150.569 187.066 150.482 187.123 150.421 187.199C150.359 187.274 150.326 187.365 150.326 187.459C150.326 187.552 150.359 187.643 150.421 187.719C150.482 187.795 150.569 187.852 150.669 187.882L152.781 188.963C153.038 189.076 153.32 189.134 153.607 189.134C153.893 189.134 154.176 189.076 154.433 188.963L156.537 187.882C156.997 187.648 156.989 187.269 156.529 187.035Z" fill="#93A0C2"/>
<path d="M143.934 188.77L145.571 189.603C145.825 189.719 146.107 189.779 146.393 189.779C146.679 189.779 146.961 189.719 147.215 189.603L149.078 188.653C149.178 188.623 149.265 188.566 149.326 188.49C149.388 188.414 149.421 188.323 149.421 188.23C149.421 188.136 149.388 188.045 149.326 187.969C149.265 187.894 149.178 187.836 149.078 187.806L147.449 186.973C147.192 186.858 146.908 186.797 146.619 186.797C146.331 186.797 146.046 186.858 145.789 186.973L143.934 187.923C143.834 187.954 143.748 188.011 143.686 188.086C143.625 188.162 143.592 188.253 143.592 188.347C143.592 188.44 143.625 188.531 143.686 188.607C143.748 188.683 143.834 188.74 143.934 188.77Z" fill="#93A0C2"/>
<path d="M168.227 188.66L166.278 187.669C166.023 187.553 165.739 187.493 165.452 187.493C165.165 187.493 164.882 187.553 164.626 187.669L162.756 188.626C162.656 188.656 162.569 188.713 162.508 188.789C162.446 188.865 162.413 188.956 162.413 189.049C162.413 189.143 162.446 189.234 162.508 189.309C162.569 189.385 162.656 189.442 162.756 189.473L164.704 190.471C164.96 190.585 165.243 190.644 165.53 190.644C165.817 190.644 166.1 190.585 166.356 190.471L168.227 189.507C168.687 189.273 168.687 188.901 168.227 188.66Z" fill="#93A0C2"/>
<path d="M171.384 189.486L173.402 190.519C173.659 190.635 173.944 190.695 174.232 190.695C174.521 190.695 174.805 190.635 175.062 190.519L175.366 190.361C175.467 190.333 175.555 190.277 175.618 190.201C175.68 190.126 175.714 190.034 175.714 189.941C175.714 189.847 175.68 189.756 175.618 189.681C175.555 189.605 175.467 189.549 175.366 189.521L173.348 188.488C173.09 188.372 172.806 188.312 172.518 188.312C172.229 188.312 171.945 188.372 171.688 188.488L171.384 188.639C171.284 188.67 171.197 188.727 171.135 188.803C171.074 188.879 171.041 188.97 171.041 189.063C171.041 189.156 171.074 189.247 171.135 189.323C171.197 189.399 171.284 189.456 171.384 189.486Z" fill="#93A0C2"/>
<path d="M137.108 189.7L139.064 190.691C139.32 190.807 139.603 190.867 139.89 190.867C140.177 190.867 140.46 190.807 140.716 190.691L142.649 189.693C142.749 189.662 142.836 189.605 142.897 189.529C142.958 189.454 142.991 189.363 142.991 189.269C142.991 189.176 142.958 189.085 142.897 189.009C142.836 188.933 142.749 188.876 142.649 188.846L140.693 187.854C140.437 187.739 140.154 187.678 139.867 187.678C139.579 187.678 139.296 187.739 139.04 187.854L137.108 188.839C137.002 188.866 136.909 188.922 136.842 189C136.776 189.077 136.74 189.172 136.74 189.269C136.74 189.366 136.776 189.461 136.842 189.539C136.909 189.616 137.002 189.673 137.108 189.7Z" fill="#93A0C2"/>
<path d="M155.173 190.175L157.044 191.132C157.3 191.247 157.583 191.308 157.87 191.308C158.157 191.308 158.44 191.247 158.696 191.132L160.793 190.051C160.894 190.023 160.982 189.967 161.044 189.891C161.107 189.816 161.14 189.724 161.14 189.631C161.14 189.537 161.107 189.446 161.044 189.371C160.982 189.295 160.894 189.239 160.793 189.211L158.922 188.254C158.665 188.141 158.383 188.083 158.096 188.083C157.809 188.083 157.527 188.141 157.27 188.254L155.166 189.335C155.069 189.367 154.985 189.425 154.927 189.5C154.868 189.576 154.837 189.666 154.838 189.757C154.839 189.849 154.871 189.938 154.931 190.013C154.991 190.087 155.076 190.144 155.173 190.175Z" fill="#93A0C2"/>
<path d="M147.956 190.823L150.068 191.904C150.325 192.016 150.607 192.074 150.894 192.074C151.181 192.074 151.463 192.016 151.72 191.904L153.575 190.947C153.672 190.915 153.756 190.858 153.816 190.783C153.875 190.707 153.907 190.618 153.907 190.527C153.907 190.435 153.875 190.346 153.816 190.27C153.756 190.195 153.672 190.138 153.575 190.106L151.463 189.025C151.207 188.91 150.924 188.85 150.637 188.85C150.35 188.85 150.067 188.91 149.811 189.025L147.948 189.976C147.848 190.007 147.762 190.064 147.701 190.141C147.641 190.217 147.609 190.308 147.609 190.402C147.61 190.495 147.644 190.586 147.706 190.661C147.768 190.737 147.856 190.793 147.956 190.823Z" fill="#93A0C2"/>
<path d="M170.784 192.723L172.654 191.759C172.754 191.729 172.841 191.672 172.902 191.596C172.964 191.52 172.997 191.429 172.997 191.335C172.997 191.242 172.964 191.151 172.902 191.075C172.841 190.999 172.754 190.942 172.654 190.912L170.628 189.879C170.372 189.764 170.089 189.703 169.802 189.703C169.515 189.703 169.231 189.764 168.976 189.879L167.105 190.843C167.005 190.873 166.919 190.93 166.857 191.006C166.796 191.082 166.763 191.173 166.763 191.267C166.763 191.36 166.796 191.451 166.857 191.527C166.919 191.603 167.005 191.66 167.105 191.69L169.132 192.723C169.388 192.836 169.671 192.894 169.958 192.894C170.244 192.894 170.527 192.836 170.784 192.723Z" fill="#93A0C2"/>
<path d="M141.449 191.91L143.085 192.743C143.341 192.859 143.624 192.919 143.911 192.919C144.199 192.919 144.482 192.859 144.738 192.743L146.67 191.745C146.77 191.715 146.857 191.658 146.918 191.582C146.98 191.506 147.013 191.415 147.013 191.321C147.013 191.228 146.98 191.137 146.918 191.061C146.857 190.985 146.77 190.928 146.67 190.898L145.034 190.065C144.777 189.951 144.494 189.891 144.208 189.891C143.921 189.891 143.638 189.951 143.381 190.065L141.441 191.063C141.337 191.09 141.246 191.147 141.182 191.223C141.117 191.3 141.083 191.394 141.084 191.489C141.085 191.585 141.121 191.678 141.187 191.753C141.253 191.829 141.344 191.884 141.449 191.91Z" fill="#93A0C2"/>
<path d="M165.133 192.282C165.233 192.252 165.32 192.195 165.382 192.119C165.443 192.043 165.476 191.952 165.476 191.858C165.476 191.765 165.443 191.674 165.382 191.598C165.32 191.522 165.233 191.465 165.133 191.435L163.185 190.437C162.929 190.323 162.646 190.263 162.359 190.263C162.072 190.263 161.789 190.323 161.533 190.437L159.429 191.518C159.329 191.548 159.242 191.605 159.18 191.681C159.119 191.757 159.086 191.848 159.086 191.941C159.086 192.034 159.119 192.125 159.18 192.201C159.242 192.277 159.329 192.334 159.429 192.365L161.377 193.356C161.633 193.47 161.916 193.529 162.203 193.529C162.49 193.529 162.773 193.47 163.029 193.356L165.133 192.282Z" fill="#93A0C2"/>
<path d="M152.453 193.115L154.324 194.072C154.579 194.188 154.863 194.248 155.15 194.248C155.437 194.248 155.72 194.188 155.976 194.072L157.839 193.115C158.283 192.888 158.283 192.509 157.839 192.275L155.976 191.318C155.72 191.204 155.437 191.145 155.15 191.145C154.863 191.145 154.58 191.204 154.324 191.318L152.453 192.282C151.993 192.509 152.001 192.881 152.453 193.115Z" fill="#93A0C2"/>
<path d="M180.292 194.038L182.162 194.988C182.418 195.103 182.701 195.164 182.988 195.164C183.276 195.164 183.559 195.103 183.814 194.988L184.118 194.83C184.218 194.799 184.305 194.742 184.367 194.666C184.428 194.59 184.461 194.499 184.461 194.406C184.461 194.313 184.428 194.222 184.367 194.146C184.305 194.07 184.218 194.013 184.118 193.983L182.248 193.032C181.992 192.917 181.709 192.857 181.422 192.857C181.135 192.857 180.852 192.917 180.596 193.032L180.292 193.191C180.192 193.221 180.105 193.278 180.044 193.354C179.982 193.43 179.949 193.521 179.949 193.614C179.949 193.708 179.982 193.799 180.044 193.875C180.105 193.95 180.192 194.008 180.292 194.038Z" fill="#93A0C2"/>
<path d="M145.47 193.962L147.582 195.036C147.838 195.152 148.121 195.212 148.408 195.212C148.695 195.212 148.978 195.152 149.234 195.036L151.167 194.045C151.266 194.013 151.352 193.955 151.412 193.878C151.472 193.802 151.505 193.711 151.505 193.618C151.505 193.525 151.472 193.434 151.412 193.357C151.352 193.281 151.266 193.223 151.167 193.191L149.055 192.117C148.799 192.001 148.516 191.941 148.229 191.941C147.942 191.941 147.658 192.001 147.403 192.117L145.462 193.115C145.01 193.356 145.01 193.728 145.47 193.962Z" fill="#93A0C2"/>
<path d="M163.769 194.561L165.796 195.594C166.05 195.709 166.332 195.77 166.618 195.77C166.904 195.77 167.186 195.709 167.44 195.594L169.544 194.52C169.644 194.49 169.731 194.433 169.792 194.357C169.854 194.281 169.887 194.19 169.887 194.096C169.887 194.003 169.854 193.912 169.792 193.836C169.731 193.76 169.644 193.703 169.544 193.673L167.518 192.64C167.264 192.525 166.982 192.464 166.696 192.464C166.41 192.464 166.128 192.525 165.874 192.64L163.769 193.714C163.669 193.744 163.583 193.801 163.521 193.877C163.46 193.953 163.427 194.044 163.427 194.138C163.427 194.231 163.46 194.322 163.521 194.398C163.583 194.474 163.669 194.531 163.769 194.561Z" fill="#93A0C2"/>
<path d="M156.709 195.291L158.657 196.283C158.914 196.398 159.199 196.459 159.487 196.459C159.776 196.459 160.06 196.398 160.317 196.283L162.172 195.333C162.272 195.302 162.359 195.245 162.42 195.169C162.482 195.093 162.515 195.002 162.515 194.909C162.515 194.816 162.482 194.725 162.42 194.649C162.359 194.573 162.272 194.516 162.172 194.486L160.224 193.487C159.967 193.375 159.684 193.316 159.398 193.316C159.111 193.316 158.828 193.375 158.572 193.487L156.717 194.444C156.616 194.474 156.529 194.53 156.467 194.606C156.405 194.681 156.371 194.772 156.37 194.865C156.369 194.959 156.401 195.05 156.462 195.126C156.523 195.203 156.609 195.26 156.709 195.291Z" fill="#93A0C2"/>
<path d="M175.062 199.485L177.166 198.404C177.266 198.374 177.353 198.317 177.414 198.241C177.476 198.165 177.509 198.074 177.509 197.98C177.509 197.887 177.476 197.796 177.414 197.72C177.353 197.644 177.266 197.587 177.166 197.557L171.937 194.892C171.68 194.777 171.395 194.716 171.107 194.716C170.818 194.716 170.534 194.777 170.277 194.892L168.157 195.966C168.057 195.997 167.97 196.054 167.909 196.13C167.847 196.205 167.814 196.296 167.814 196.39C167.814 196.483 167.847 196.574 167.909 196.65C167.97 196.726 168.057 196.783 168.157 196.813L173.386 199.485C173.646 199.602 173.933 199.663 174.224 199.663C174.516 199.663 174.803 199.602 175.062 199.485Z" fill="#93A0C2"/>
<path d="M179.536 197.185L181.406 196.227C181.506 196.197 181.593 196.14 181.654 196.064C181.716 195.988 181.749 195.897 181.749 195.804C181.749 195.711 181.716 195.62 181.654 195.544C181.593 195.468 181.506 195.411 181.406 195.38L175.039 192.13C174.783 192.015 174.5 191.955 174.213 191.955C173.926 191.955 173.643 192.015 173.387 192.13L171.516 193.094C171.416 193.124 171.33 193.182 171.268 193.257C171.207 193.333 171.174 193.424 171.174 193.518C171.174 193.611 171.207 193.702 171.268 193.778C171.33 193.854 171.416 193.911 171.516 193.941L177.884 197.185C178.139 197.3 178.423 197.36 178.71 197.36C178.997 197.36 179.28 197.3 179.536 197.185Z" fill="#93A0C2"/>
<path d="M149.968 196.262L151.838 197.212C152.094 197.327 152.377 197.388 152.664 197.388C152.951 197.388 153.235 197.327 153.49 197.212L155.423 196.22C155.523 196.19 155.61 196.133 155.671 196.057C155.733 195.981 155.766 195.89 155.766 195.797C155.766 195.704 155.733 195.613 155.671 195.537C155.61 195.461 155.523 195.404 155.423 195.373L153.553 194.416C153.296 194.304 153.013 194.246 152.727 194.246C152.44 194.246 152.157 194.304 151.9 194.416L149.96 195.415C149.86 195.446 149.774 195.503 149.713 195.58C149.652 195.656 149.62 195.747 149.621 195.841C149.622 195.934 149.656 196.025 149.718 196.1C149.78 196.176 149.867 196.232 149.968 196.262Z" fill="#93A0C2"/>
<path d="M146.857 195.415L123.944 183.709C123.688 183.594 123.405 183.533 123.118 183.533C122.831 183.533 122.548 183.594 122.292 183.709L120.367 184.708C120.267 184.738 120.18 184.795 120.119 184.871C120.057 184.947 120.024 185.038 120.024 185.131C120.024 185.224 120.057 185.315 120.119 185.391C120.18 185.467 120.267 185.524 120.367 185.554L143.28 197.261C143.536 197.376 143.819 197.436 144.106 197.436C144.393 197.436 144.676 197.376 144.932 197.261L146.865 196.276C146.97 196.248 147.063 196.191 147.129 196.113C147.194 196.035 147.229 195.94 147.228 195.843C147.228 195.746 147.191 195.651 147.124 195.574C147.057 195.497 146.963 195.441 146.857 195.415Z" fill="#93A0C2"/>
<path d="M188.825 196.414L186.487 195.23C186.231 195.114 185.948 195.054 185.661 195.054C185.374 195.054 185.091 195.114 184.835 195.23L184.531 195.388C184.431 195.418 184.344 195.475 184.283 195.551C184.221 195.627 184.188 195.718 184.188 195.812C184.188 195.905 184.221 195.996 184.283 196.072C184.344 196.148 184.431 196.205 184.531 196.235L186.869 197.419C187.125 197.533 187.408 197.593 187.695 197.593C187.982 197.593 188.265 197.533 188.521 197.419L188.825 197.261C188.925 197.231 189.012 197.174 189.073 197.098C189.135 197.022 189.168 196.931 189.168 196.838C189.168 196.744 189.135 196.653 189.073 196.577C189.012 196.501 188.925 196.444 188.825 196.414Z" fill="#93A0C2"/>
<path d="M154.223 198.431L160.418 201.585C160.673 201.7 160.955 201.761 161.241 201.761C161.527 201.761 161.808 201.7 162.063 201.585L164.003 200.593C164.103 200.563 164.19 200.506 164.252 200.43C164.313 200.354 164.346 200.263 164.346 200.17C164.346 200.077 164.313 199.986 164.252 199.91C164.19 199.834 164.103 199.777 164.003 199.746L157.815 196.586C157.559 196.472 157.276 196.413 156.989 196.413C156.702 196.413 156.42 196.472 156.163 196.586L154.223 197.577C154.12 197.606 154.03 197.663 153.966 197.74C153.903 197.816 153.868 197.909 153.868 198.004C153.868 198.099 153.903 198.192 153.966 198.269C154.03 198.346 154.12 198.403 154.223 198.431Z" fill="#93A0C2"/>
<path d="M151.113 197.584L149.242 196.634C148.986 196.519 148.703 196.458 148.416 196.458C148.129 196.458 147.846 196.519 147.59 196.634L145.665 197.619C145.565 197.649 145.478 197.706 145.417 197.782C145.355 197.858 145.322 197.949 145.322 198.042C145.322 198.136 145.355 198.227 145.417 198.302C145.478 198.378 145.565 198.435 145.665 198.466L147.535 199.423C147.792 199.535 148.075 199.594 148.361 199.594C148.648 199.594 148.931 199.535 149.188 199.423L151.113 198.431C151.212 198.401 151.299 198.344 151.361 198.268C151.422 198.192 151.455 198.101 151.455 198.008C151.455 197.914 151.422 197.823 151.361 197.748C151.299 197.672 151.212 197.615 151.113 197.584Z" fill="#93A0C2"/>
<path d="M186.082 197.791L183.744 196.606C183.49 196.491 183.208 196.431 182.922 196.431C182.636 196.431 182.354 196.491 182.1 196.606L180.229 197.563C180.129 197.594 180.043 197.651 179.981 197.727C179.92 197.802 179.887 197.893 179.887 197.987C179.887 198.08 179.92 198.171 179.981 198.247C180.043 198.323 180.129 198.38 180.229 198.41L182.567 199.595C182.823 199.71 183.106 199.77 183.393 199.77C183.681 199.77 183.964 199.71 184.22 199.595L186.09 198.638C186.194 198.61 186.285 198.554 186.349 198.477C186.413 198.4 186.448 198.307 186.447 198.211C186.446 198.116 186.41 198.023 186.344 197.947C186.278 197.871 186.186 197.816 186.082 197.791Z" fill="#93A0C2"/>
<path d="M155.173 199.657L153.498 198.803C153.242 198.688 152.959 198.627 152.672 198.627C152.384 198.627 152.101 198.688 151.845 198.803L149.92 199.795C149.823 199.826 149.739 199.883 149.68 199.959C149.621 200.034 149.589 200.123 149.589 200.215C149.589 200.306 149.621 200.396 149.68 200.471C149.739 200.546 149.823 200.603 149.92 200.635L151.596 201.495C151.854 201.607 152.138 201.665 152.426 201.665C152.714 201.665 152.998 201.607 153.256 201.495L155.181 200.504C155.281 200.473 155.367 200.415 155.428 200.339C155.488 200.262 155.521 200.171 155.52 200.078C155.519 199.984 155.485 199.894 155.423 199.818C155.361 199.743 155.274 199.686 155.173 199.657Z" fill="#93A0C2"/>
<path d="M170.838 201.654L172.693 200.697C172.794 200.669 172.882 200.613 172.945 200.537C173.007 200.462 173.041 200.371 173.041 200.277C173.041 200.184 173.007 200.092 172.945 200.017C172.882 199.941 172.794 199.885 172.693 199.857L164.557 195.726C164.302 195.61 164.02 195.55 163.734 195.55C163.449 195.55 163.167 195.61 162.912 195.726L161.05 196.676C160.95 196.706 160.863 196.763 160.801 196.839C160.74 196.915 160.707 197.006 160.707 197.099C160.707 197.193 160.74 197.284 160.801 197.36C160.863 197.436 160.95 197.493 161.05 197.523L169.186 201.654C169.443 201.767 169.726 201.825 170.012 201.825C170.299 201.825 170.581 201.767 170.838 201.654Z" fill="#93A0C2"/>
<path d="M159.694 201.957L157.566 200.876C157.309 200.76 157.025 200.7 156.736 200.7C156.448 200.7 156.163 200.76 155.906 200.876L153.981 201.867C153.881 201.898 153.795 201.955 153.733 202.031C153.672 202.106 153.639 202.197 153.639 202.291C153.639 202.384 153.672 202.475 153.733 202.551C153.795 202.627 153.881 202.684 153.981 202.714L156.109 203.795C156.365 203.911 156.648 203.971 156.935 203.971C157.222 203.971 157.505 203.911 157.761 203.795L159.686 202.804C159.786 202.774 159.874 202.718 159.936 202.642C159.998 202.567 160.032 202.476 160.033 202.383C160.033 202.289 160.001 202.198 159.941 202.122C159.88 202.045 159.794 201.988 159.694 201.957Z" fill="#93A0C2"/>
<path d="M162.803 202.804L164.876 203.864C165.132 203.979 165.415 204.04 165.702 204.04C165.989 204.04 166.272 203.979 166.528 203.864L168.461 202.872C168.561 202.842 168.648 202.785 168.709 202.709C168.771 202.633 168.804 202.542 168.804 202.449C168.804 202.356 168.771 202.265 168.709 202.189C168.648 202.113 168.561 202.056 168.461 202.025L166.388 200.965C166.131 200.849 165.846 200.789 165.558 200.789C165.269 200.789 164.985 200.849 164.728 200.965L162.795 201.957C162.335 202.191 162.343 202.569 162.803 202.804Z" fill="#93A0C2"/>
<path d="M177.393 202.253L175.055 201.069C174.798 200.955 174.516 200.895 174.229 200.895C173.942 200.895 173.659 200.955 173.403 201.069L171.548 202.026C171.448 202.056 171.361 202.113 171.3 202.189C171.238 202.265 171.205 202.356 171.205 202.449C171.205 202.543 171.238 202.634 171.3 202.709C171.361 202.785 171.448 202.842 171.548 202.873L173.886 204.05C174.14 204.166 174.422 204.226 174.708 204.226C174.994 204.226 175.276 204.166 175.53 204.05L177.393 203.1C177.493 203.07 177.58 203.013 177.641 202.937C177.702 202.861 177.735 202.77 177.735 202.676C177.735 202.583 177.702 202.492 177.641 202.416C177.58 202.34 177.493 202.283 177.393 202.253Z" fill="#93A0C2"/>
<path d="M164.152 204.236L162.079 203.175C161.822 203.06 161.537 203 161.249 203C160.96 203 160.676 203.06 160.419 203.175L158.494 204.167C158.394 204.197 158.307 204.254 158.246 204.33C158.184 204.406 158.151 204.497 158.151 204.591C158.151 204.684 158.184 204.775 158.246 204.851C158.307 204.927 158.394 204.984 158.494 205.014L160.567 206.074C160.823 206.19 161.106 206.25 161.393 206.25C161.68 206.25 161.963 206.19 162.219 206.074L164.144 205.09C164.247 205.062 164.338 205.006 164.402 204.929C164.467 204.853 164.502 204.761 164.503 204.665C164.504 204.57 164.47 204.477 164.407 204.4C164.344 204.323 164.255 204.265 164.152 204.236Z" fill="#93A0C2"/>
<path d="M173.161 204.422L170.823 203.244C170.567 203.129 170.284 203.069 169.997 203.069C169.71 203.069 169.427 203.129 169.171 203.244L167.238 204.236C167.138 204.266 167.051 204.323 166.99 204.399C166.929 204.475 166.896 204.566 166.896 204.659C166.896 204.753 166.929 204.844 166.99 204.92C167.051 204.996 167.138 205.053 167.238 205.083L169.576 206.26C169.831 206.376 170.112 206.436 170.398 206.436C170.684 206.436 170.966 206.376 171.221 206.26L173.161 205.269C173.261 205.239 173.348 205.181 173.409 205.106C173.471 205.03 173.504 204.939 173.504 204.845C173.504 204.752 173.471 204.661 173.409 204.585C173.348 204.509 173.261 204.452 173.161 204.422Z" fill="#93A0C2"/>
<path d="M168.858 206.632L166.52 205.455C166.263 205.339 165.979 205.279 165.69 205.279C165.402 205.279 165.118 205.339 164.86 205.455L162.935 206.446C162.835 206.477 162.749 206.534 162.687 206.61C162.626 206.686 162.593 206.777 162.593 206.87C162.593 206.963 162.626 207.054 162.687 207.13C162.749 207.206 162.835 207.263 162.935 207.293L165.273 208.471C165.529 208.586 165.812 208.646 166.1 208.646C166.387 208.646 166.67 208.586 166.926 208.471L168.851 207.479C168.951 207.45 169.038 207.393 169.1 207.318C169.162 207.242 169.196 207.152 169.197 207.058C169.198 206.965 169.166 206.874 169.105 206.797C169.044 206.721 168.958 206.663 168.858 206.632Z" fill="#93A0C2"/>
<path d="M175.795 191.738L177.907 192.819C178.164 192.931 178.447 192.99 178.733 192.99C179.02 192.99 179.302 192.931 179.559 192.819L179.863 192.661C179.963 192.63 180.05 192.573 180.111 192.498C180.173 192.422 180.206 192.331 180.206 192.237C180.206 192.144 180.173 192.053 180.111 191.977C180.05 191.901 179.963 191.844 179.863 191.814L177.751 190.733C177.495 190.617 177.212 190.557 176.925 190.557C176.638 190.557 176.355 190.617 176.099 190.733L175.795 190.891C175.335 191.125 175.335 191.504 175.795 191.738Z" fill="#93A0C2"/>
<path d="M181.858 199.96L179.52 198.775C179.265 198.66 178.984 198.6 178.698 198.6C178.412 198.6 178.13 198.66 177.875 198.775L175.795 199.857C175.697 199.888 175.613 199.945 175.554 200.021C175.495 200.096 175.463 200.185 175.463 200.277C175.463 200.368 175.495 200.458 175.554 200.533C175.613 200.608 175.697 200.665 175.795 200.697L178.133 201.881C178.388 201.996 178.671 202.057 178.959 202.057C179.246 202.057 179.529 201.996 179.785 201.881L181.881 200.8C182.318 200.545 182.318 200.194 181.858 199.96Z" fill="#93A0C2"/>
<path d="M101.133 136.891L48.4883 163.802L72.6559 176.21L125.301 149.307L101.133 136.891Z" fill="#6D7687"/>
<path d="M78.1341 72.8236C84.517 69.5665 89.7231 72.1901 89.7386 78.6698L89.7854 92.4418C89.7676 92.7383 89.6707 93.027 89.5028 93.2842C89.3349 93.5415 89.1006 93.7601 88.819 93.9222C88.2891 94.1908 87.8526 93.9704 87.8526 93.4333L87.8059 79.6614C87.8059 74.2696 83.4493 72.0868 78.1341 74.793C72.819 77.4992 68.5092 84.0959 68.5326 89.4946V103.267C68.5227 103.56 68.435 103.848 68.2767 104.106C68.1183 104.364 67.8937 104.586 67.6207 104.754C67.0908 105.022 66.6543 104.802 66.6465 104.265L66.6076 90.493C66.5764 83.9995 71.7513 76.0806 78.1341 72.8236Z" fill="url(#paint0_linear)"/>
<path d="M72.6559 174.454L48.4883 162.045L59.2199 102.44L72.9832 109.505L72.6559 174.454Z" fill="#3F6FCE"/>
<path d="M66.6005 106.228L61.3398 159.794L72.656 174.454L72.9833 109.505L66.6005 106.228Z" fill="#4980EA"/>
<path d="M61.3398 159.794L48.4883 162.046L59.2433 102.448L66.6004 106.228L61.3398 159.794Z" fill="#5D91F8"/>
<path d="M72.983 109.505L59.2197 102.44L100.432 81.4174L114.195 88.4824L72.983 109.505Z" fill="#4980EA"/>
<path d="M59.2432 102.44V102.447L72.9831 109.505L100.627 95.4029L100.455 81.4313L100.44 81.4244L59.2432 102.44Z" fill="#3E73D9"/>
<path d="M114.195 88.4825L125.3 147.599L72.6553 174.454L72.9826 109.505L114.195 88.4825Z" fill="#6795EF"/>
<path d="M95.156 81.5694C101.547 78.3123 106.753 80.9358 106.768 87.4087L106.815 101.181C106.797 101.476 106.7 101.764 106.532 102.02C106.364 102.276 106.13 102.494 105.849 102.654C105.319 102.93 104.882 102.709 104.882 102.172L104.836 88.4002C104.836 83.0016 100.479 80.8257 95.1638 83.5319C89.8486 86.2381 85.5466 92.8348 85.5466 98.2334L85.5934 112.005C85.5752 112.299 85.479 112.585 85.3124 112.84C85.1459 113.095 84.9137 113.311 84.6348 113.472C84.097 113.748 83.6684 113.527 83.6606 112.99V99.2181C83.606 92.7384 88.7809 84.8609 95.156 81.5694Z" fill="url(#paint1_linear)"/>
<path d="M112.753 130.102C112.472 129.74 112.103 129.44 111.673 129.223C111.242 129.006 110.761 128.878 110.267 128.848C109.03 128.8 107.806 129.093 106.767 129.689C105.435 130.389 104.266 131.307 103.323 132.395C102.255 133.534 101.403 134.817 100.798 136.196C100.198 137.465 99.8731 138.822 99.839 140.197C99.7996 141.266 100.143 142.319 100.821 143.206C101.109 143.571 101.486 143.874 101.924 144.094C102.363 144.313 102.851 144.442 103.354 144.473C104.574 144.532 105.785 144.25 106.814 143.667C108.162 142.947 109.349 142.013 110.313 140.913C111.366 139.75 112.212 138.452 112.823 137.063C113.405 135.801 113.715 134.453 113.735 133.09C113.798 132.025 113.452 130.972 112.753 130.102ZM108.56 137.594C108.153 138.264 107.546 138.823 106.806 139.212C106.553 139.378 106.256 139.483 105.943 139.517C105.63 139.551 105.312 139.512 105.022 139.405C104.775 139.226 104.582 138.998 104.458 138.739C104.335 138.479 104.285 138.198 104.312 137.917C104.343 137.141 104.613 136.386 105.092 135.734C105.493 135.075 106.088 134.523 106.814 134.137C107.047 133.943 107.345 133.82 107.663 133.786C107.982 133.752 108.304 133.81 108.582 133.95C108.861 134.091 109.081 134.306 109.21 134.566C109.339 134.825 109.371 135.114 109.3 135.39C109.282 136.17 109.026 136.931 108.56 137.594Z" fill="white"/>
<path d="M93.8856 133.558C94.9363 132.41 95.7706 131.119 96.3561 129.736C96.9315 128.473 97.2304 127.125 97.2368 125.763C97.2981 124.694 96.9793 123.634 96.325 122.733C96.046 122.364 95.6699 122.059 95.2289 121.846C94.7878 121.632 94.2949 121.516 93.7921 121.508C92.5731 121.451 91.3649 121.735 90.3396 122.32C89.0153 123.03 87.8481 123.947 86.8948 125.026C85.8261 126.181 84.9616 127.472 84.3308 128.855C83.7485 130.117 83.4392 131.465 83.4189 132.828C83.3642 133.901 83.6942 134.961 84.362 135.858C84.6652 136.217 85.0514 136.514 85.4949 136.73C85.9384 136.946 86.4289 137.076 86.9338 137.111C88.1532 137.163 89.3602 136.876 90.3863 136.292C91.7356 135.582 92.9224 134.654 93.8856 133.558ZM88.5938 132.023C88.3425 131.85 88.1458 131.623 88.0229 131.364C87.9 131.104 87.8551 130.821 87.8924 130.542C87.8968 129.78 88.1396 129.034 88.5938 128.387C89.0175 127.723 89.6232 127.164 90.3552 126.762C90.5962 126.589 90.8888 126.482 91.1975 126.454C91.5061 126.426 91.8173 126.478 92.0931 126.603C92.3487 126.752 92.5554 126.958 92.6923 127.199C92.8291 127.441 92.8913 127.711 92.8725 127.98C92.8281 128.768 92.5601 129.533 92.0931 130.205C91.7013 130.872 91.1043 131.428 90.3707 131.809C90.1245 131.984 89.8289 132.096 89.5159 132.134C89.2028 132.172 88.884 132.133 88.5938 132.023Z" fill="white"/>
<path d="M108.662 113.644L108.529 113.444L108.132 113.554L104.056 115.634L103.308 116.419L88.1258 152.109L88.0479 152.467L88.5778 152.646L92.646 150.573L93.402 149.733L108.537 114.119L108.662 113.644Z" fill="white"/>
<path d="M252.326 208.347L236.139 200.084L230.115 197.006L228.923 196.4C227.938 195.959 226.85 195.729 225.747 195.729C224.643 195.729 223.555 195.959 222.571 196.4L184.85 215.764C183.097 216.666 183.105 218.119 184.85 219.021L186.035 219.627L192.059 222.698L208.246 230.961C209.231 231.404 210.321 231.634 211.426 231.634C212.531 231.634 213.621 231.404 214.606 230.961L252.326 211.598C254.064 210.702 254.057 209.243 252.326 208.347Z" fill="#6D7687"/>
<path d="M252.326 209.6L214.606 228.964C213.621 229.406 212.531 229.637 211.426 229.637C210.321 229.637 209.231 229.406 208.246 228.964L192.059 220.7L186.035 217.629L184.85 217.023C184.484 216.881 184.168 216.655 183.935 216.368C183.702 216.081 183.56 215.743 183.525 215.391V216.321C183.564 216.673 183.708 217.009 183.942 217.296C184.176 217.583 184.492 217.809 184.858 217.953L186.043 218.559L192.067 221.63L208.246 229.893C209.232 230.337 210.323 230.568 211.43 230.568C212.537 230.568 213.628 230.337 214.614 229.893L252.326 210.523C252.687 210.382 252.999 210.158 253.229 209.875C253.46 209.592 253.6 209.259 253.636 208.912V207.982C253.599 208.33 253.458 208.663 253.228 208.947C252.998 209.232 252.687 209.457 252.326 209.6Z" fill="#8591B3"/>
<path d="M252.326 209.6L214.606 228.963C213.621 229.406 212.531 229.637 211.426 229.637C210.321 229.637 209.231 229.406 208.246 228.963L192.059 220.7L186.035 217.629L184.85 217.023C184.484 216.881 184.168 216.655 183.935 216.367C183.702 216.08 183.56 215.743 183.525 215.391V215.57C183.563 215.92 183.706 216.256 183.939 216.541C184.171 216.827 184.486 217.052 184.85 217.195L186.035 217.801L192.059 220.872L208.239 229.135C209.225 229.579 210.316 229.811 211.422 229.811C212.529 229.811 213.62 229.579 214.606 229.135L252.326 209.765C252.687 209.622 252.999 209.397 253.229 209.113C253.459 208.828 253.6 208.495 253.636 208.147V207.989C253.598 208.335 253.457 208.667 253.227 208.95C252.997 209.234 252.686 209.458 252.326 209.6Z" fill="#F0F4FF"/>
<path d="M252.327 206.343L236.14 198.08L230.092 195.036L228.9 194.43C227.916 193.989 226.828 193.759 225.724 193.759C224.621 193.759 223.532 193.989 222.548 194.43L184.828 213.801C183.074 214.696 183.082 216.156 184.828 217.051L186.012 217.657L192.037 220.728L208.224 228.991C209.209 229.434 210.299 229.664 211.404 229.664C212.509 229.664 213.598 229.434 214.583 228.991L252.327 209.6C254.065 208.698 254.057 207.238 252.327 206.343Z" fill="#C4D0F0"/>
<path d="M186.082 217.664L192.052 220.708L192.254 220.811L236.311 198.184L236.116 198.087L230.146 195.044L186.082 217.664Z" fill="#F0F4FF"/>
<path d="M236.116 198.087L192.052 220.707L186.027 217.636L230.092 195.016L236.116 198.087Z" fill="#2F2E48"/>
<path d="M245.89 206.571C247.994 207.645 248.01 209.387 245.89 210.461C244.873 210.95 243.742 211.221 242.585 211.253C242.718 210.468 242.196 209.663 241.027 209.064C239.711 208.448 238.226 208.171 236.74 208.265C236.838 207.896 237.028 207.552 237.299 207.259C237.569 206.966 237.911 206.73 238.299 206.571C239.475 206.042 240.775 205.767 242.094 205.767C243.414 205.767 244.714 206.042 245.89 206.571Z" fill="#DCB051"/>
<path d="M241.042 209.063C242.219 209.662 242.741 210.441 242.601 211.253C241.111 211.347 239.622 211.073 238.299 210.461C237.122 209.862 236.6 209.084 236.74 208.265C238.231 208.168 239.722 208.445 241.042 209.063Z" fill="#DC7330"/>
<path d="M242.609 211.253C242.51 211.621 242.319 211.964 242.049 212.258C241.779 212.551 241.437 212.787 241.05 212.947C239.874 213.478 238.572 213.755 237.251 213.755C235.93 213.755 234.627 213.478 233.451 212.947C231.347 211.88 231.331 210.137 233.451 209.063C234.469 208.572 235.604 208.298 236.763 208.264C236.623 209.049 237.145 209.862 238.322 210.461C239.64 211.071 241.124 211.345 242.609 211.253Z" fill="#CB4F43"/>
<path style="mix-blend-mode:overlay" opacity="0.5" d="M187.524 212.39H246.872L252.327 209.601C254.073 208.699 254.065 207.239 252.327 206.344L240.092 200.105H211.458L187.524 212.39Z" fill="url(#paint2_linear)"/>
<path d="M189.27 189.342L153.927 171.156L153.919 170.461L189.262 188.646L189.27 189.342Z" fill="#EBF0FF"/>
<path d="M222.984 164.338C222.579 163.574 220.085 157.08 217.451 150.208C215.113 144.011 212.401 137.042 212.058 136.436C211.79 135.997 211.384 135.636 210.889 135.396C201.747 130.7 184.687 121.907 175.545 117.211C176.041 117.449 176.449 117.807 176.722 118.243C177.057 118.863 179.738 125.818 182.107 132.015C184.749 138.901 187.236 145.388 187.641 146.152C187.897 146.585 188.047 147.061 188.082 147.548C188.117 148.036 188.036 148.525 187.843 148.983C187.326 149.85 186.506 150.548 185.505 150.973L159.304 165.378L194.647 183.571L220.88 169.165C221.877 168.736 222.696 168.04 223.218 167.175C223.404 166.714 223.479 166.223 223.439 165.735C223.398 165.247 223.244 164.771 222.984 164.338Z" fill="url(#paint3_linear)"/>
<path d="M204.117 136.946L168.781 118.753L168.773 117.031L204.117 135.224V136.946Z" fill="#EBF0FF"/>
<path d="M176.73 115.358C175.987 114.986 175.145 114.798 174.292 114.813C173.439 114.829 172.606 115.048 171.882 115.447L168.765 117.031L204.108 135.224L207.226 133.633C207.95 133.235 208.783 133.017 209.636 133.003C210.49 132.988 211.332 133.178 212.073 133.551L176.73 115.358Z" fill="url(#paint4_linear)"/>
<path d="M207.226 133.633C207.74 133.337 208.316 133.136 208.919 133.042C209.523 132.948 210.142 132.963 210.739 133.086C211.336 133.209 211.899 133.437 212.393 133.757C212.888 134.077 213.304 134.483 213.617 134.949C213.96 135.575 215.994 140.857 219.072 148.851C221.465 155.09 224.177 162.155 224.528 162.871C224.904 163.579 225.103 164.35 225.113 165.132C225.122 165.913 224.941 166.688 224.582 167.402C223.806 168.891 222.501 170.114 220.865 170.887L194.632 184.266V183.577L220.865 169.172C221.862 168.743 222.68 168.046 223.203 167.182C223.393 166.722 223.474 166.233 223.439 165.745C223.404 165.256 223.254 164.78 223 164.345C222.595 163.581 220.101 157.087 217.467 150.215C215.129 144.017 212.417 137.049 212.074 136.443C211.582 135.746 210.803 135.246 209.902 135.047C209 134.848 208.047 134.966 207.242 135.376L204.124 136.959V135.238L207.226 133.633Z" fill="#C4D0F0"/>
<path d="M270.493 176.506L268.311 187.138C268.258 187.622 268.056 188.083 267.726 188.472C267.396 188.861 266.951 189.162 266.44 189.342L269.659 188.447C270.17 188.267 270.615 187.966 270.945 187.577C271.275 187.188 271.477 186.727 271.53 186.243L273.712 175.611L270.493 176.506Z" fill="#CFDFFF"/>
<path d="M295.588 72.6513L155.048 0.961236C154.739 0.786999 154.391 0.672395 154.029 0.624929C153.666 0.577463 153.296 0.598205 152.943 0.685797L149.725 1.58098C150.078 1.49338 150.447 1.47264 150.81 1.52011C151.173 1.56757 151.52 1.68218 151.829 1.85641L292.369 73.5464C293.307 74.1195 294.041 74.9165 294.485 75.8444C294.93 76.7723 295.066 77.7928 294.878 78.7867L275.878 171.431L279.097 170.536L298.097 77.8915C298.287 76.8976 298.151 75.8765 297.707 74.9482C297.262 74.02 296.527 73.2231 295.588 72.6513Z" fill="url(#paint5_linear)"/>
<path d="M128.846 96.4286L126.664 107.061C126.476 108.054 126.613 109.075 127.057 110.003C127.501 110.931 128.235 111.728 129.173 112.301L269.713 183.991C271.506 184.907 273.291 184.046 273.696 182.063L275.878 171.431L128.846 96.4286Z" fill="white"/>
<path d="M292.37 73.5463L151.83 1.85628C150.037 0.940441 148.252 1.80808 147.847 3.78435L128.847 96.4284L275.879 171.431L294.879 78.7865C295.067 77.7927 294.93 76.7722 294.486 75.8443C294.042 74.9164 293.308 74.1193 292.37 73.5463Z" fill="url(#paint6_linear)"/>
<path d="M151.643 6.58716L290.796 77.5748L289.767 82.5671L150.614 11.5795L151.643 6.58716Z" fill="#8C97AD"/>
<path d="M177.438 25.2829L289.766 82.5399L288.106 90.748L148.938 19.7604L150.613 11.6143L152.671 12.6609L154.058 9.62421C154.12 9.50742 154.209 9.40349 154.319 9.31922C154.43 9.23495 154.559 9.17223 154.699 9.13518C154.839 9.09813 154.986 9.08758 155.13 9.10421C155.275 9.12084 155.414 9.16429 155.539 9.23171L176.425 19.8774C176.729 20.0737 176.981 20.3265 177.163 20.6179C177.345 20.9094 177.452 21.2325 177.477 21.5645L177.438 25.2829Z" fill="white"/>
<path d="M176.223 21.2547C176.294 21.2933 176.349 21.3513 176.379 21.4199C176.417 21.4802 176.431 21.5504 176.416 21.6183C176.402 21.6862 176.361 21.7475 176.301 21.7918L175.764 22.0534L176.099 22.742C176.138 22.8016 176.152 22.8712 176.139 22.9391C176.127 23.007 176.087 23.0688 176.029 23.1139C176 23.1291 175.968 23.1371 175.935 23.1371C175.902 23.1371 175.87 23.1291 175.842 23.1139C175.771 23.0753 175.716 23.0173 175.686 22.9486L175.343 22.26L174.805 22.5217C174.776 22.535 174.744 22.5419 174.712 22.5419C174.679 22.5419 174.647 22.535 174.618 22.5217C174.549 22.4827 174.497 22.4246 174.47 22.3564C174.431 22.2969 174.417 22.2272 174.429 22.1594C174.442 22.0915 174.481 22.0297 174.54 21.9846L175.086 21.7229L174.743 21.0343C174.704 20.973 174.691 20.9017 174.705 20.8326C174.719 20.7635 174.76 20.701 174.821 20.6556C174.85 20.6423 174.882 20.6354 174.914 20.6354C174.947 20.6354 174.979 20.6423 175.008 20.6556C175.075 20.6963 175.126 20.7539 175.156 20.8209L175.499 21.5094L176.036 21.2478C176.065 21.2336 176.098 21.2267 176.131 21.2279C176.164 21.2292 176.196 21.2384 176.223 21.2547Z" fill="#6D95B3"/>
<path d="M181.126 23.5548C181.322 23.6808 181.481 23.8467 181.59 24.0384C181.698 24.2302 181.753 24.4422 181.749 24.6566L181.695 25.9718C181.695 26.3919 181.375 26.5847 181.017 26.4056L179.185 25.4691C178.986 25.3448 178.825 25.1794 178.715 24.9874C178.605 24.7954 178.55 24.5826 178.554 24.3674L178.608 23.0522C178.608 22.639 178.936 22.4393 179.294 22.6183L181.126 23.5548Z" fill="white"/>
<path d="M285.309 86.0516L282.036 84.3852C282.007 84.3679 281.973 84.3578 281.938 84.356C281.903 84.3541 281.869 84.3605 281.838 84.3746C281.807 84.3887 281.78 84.4099 281.762 84.436C281.743 84.4621 281.733 84.4921 281.732 84.5229C281.717 84.6 281.728 84.6791 281.763 84.751C281.797 84.8229 281.854 84.8847 281.927 84.9292L285.192 86.5956C285.332 86.6645 285.465 86.5956 285.496 86.4441C285.51 86.3698 285.5 86.2935 285.467 86.224C285.434 86.1546 285.379 86.0948 285.309 86.0516Z" fill="#788194"/>
<path d="M285.589 84.654L282.324 82.9876C282.295 82.9703 282.261 82.9602 282.226 82.9583C282.192 82.9565 282.157 82.9629 282.126 82.977C282.095 82.991 282.068 83.0122 282.05 83.0383C282.031 83.0644 282.021 83.0945 282.02 83.1253C282.006 83.2024 282.016 83.2814 282.051 83.3533C282.085 83.4252 282.142 83.487 282.215 83.5316L285.48 85.198C285.62 85.2668 285.753 85.198 285.784 85.0465C285.799 84.9714 285.789 84.894 285.754 84.8241C285.719 84.7543 285.662 84.695 285.589 84.654Z" fill="#788194"/>
<path d="M285.878 83.2285L282.651 81.5828C282.511 81.5139 282.378 81.5828 282.347 81.7274C282.333 81.8035 282.343 81.8817 282.378 81.9526C282.412 82.0235 282.469 82.084 282.542 82.1268L285.808 83.7932C285.837 83.8085 285.871 83.8168 285.906 83.8173C285.941 83.8178 285.975 83.8105 286.005 83.796C286.036 83.7815 286.062 83.7603 286.08 83.7345C286.099 83.7087 286.11 83.6791 286.112 83.6486C286.128 83.5657 286.114 83.4805 286.072 83.4051C286.03 83.3297 285.962 83.2679 285.878 83.2285Z" fill="#788194"/>
<path d="M280.695 79.9026L279.745 84.5162L151.799 19.2508L152.742 14.6372L280.695 79.9026Z" fill="#DEE6FF"/>
<path d="M148.938 19.7603L133.671 94.0945L272.832 165.082L288.091 90.741L148.938 19.7603Z" fill="#6949EA"/>
<path d="M202.791 129.351L272.831 165.082L288.091 90.7412L218.058 55.0167L202.791 129.351Z" fill="white"/>
<path d="M217.887 55.8293L287.927 91.5538L288.091 90.7412L218.058 55.0167L217.887 55.8293Z" fill="#DEE6FF"/>
<path d="M281.194 76.1292L279.635 75.3511C279.495 75.2822 279.362 75.3511 279.331 75.5026C279.317 75.5769 279.328 75.6532 279.361 75.7227C279.394 75.7922 279.448 75.8519 279.518 75.8951L281.077 76.6732C281.209 76.7421 281.342 76.6732 281.373 76.5286C281.389 76.4539 281.381 76.3766 281.349 76.3058C281.318 76.235 281.264 76.1738 281.194 76.1292Z" fill="white"/>
<path d="M285.044 76.295L283.485 75.51C283.454 75.4944 283.42 75.4861 283.385 75.486C283.349 75.4858 283.315 75.4938 283.284 75.5091C283.253 75.5244 283.228 75.5465 283.21 75.5732C283.192 75.5999 283.182 75.6303 283.181 75.6615L282.846 77.2934C282.832 77.3678 282.842 77.4441 282.875 77.5136C282.908 77.583 282.963 77.6428 283.033 77.6859L284.592 78.4641C284.724 78.5398 284.864 78.4641 284.896 78.3263L285.231 76.6944C285.246 76.6189 285.237 76.5412 285.204 76.4704C285.17 76.3996 285.115 76.3387 285.044 76.295ZM284.467 77.803L283.423 77.2659L283.649 76.1848L284.693 76.715L284.467 77.803Z" fill="white"/>
<path d="M288.707 78.2501C288.674 78.1789 288.617 78.1187 288.543 78.0779C288.515 78.0627 288.483 78.0547 288.45 78.0547C288.417 78.0547 288.384 78.0627 288.356 78.0779L287.663 78.4153L287.226 77.5064C287.196 77.4359 287.141 77.3757 287.07 77.3342C287.041 77.321 287.009 77.314 286.977 77.314C286.944 77.314 286.912 77.321 286.883 77.3342C286.82 77.3779 286.777 77.4406 286.763 77.5105C286.748 77.5803 286.763 77.6524 286.805 77.713L287.234 78.6288L286.548 78.9662C286.423 79.0144 286.392 79.1935 286.47 79.3449C286.497 79.417 286.552 79.4781 286.626 79.5171C286.655 79.5304 286.687 79.5373 286.72 79.5373C286.752 79.5373 286.784 79.5304 286.813 79.5171L287.507 79.1797L287.943 80.0886C287.973 80.1591 288.028 80.2193 288.099 80.2608C288.128 80.2774 288.162 80.2862 288.196 80.2862C288.231 80.2862 288.265 80.2774 288.294 80.2608C288.352 80.214 288.391 80.1515 288.405 80.0831C288.42 80.0146 288.408 79.944 288.372 79.882L287.935 78.9662L288.629 78.6288C288.687 78.582 288.726 78.5195 288.741 78.4511C288.755 78.3826 288.743 78.312 288.707 78.2501Z" fill="white"/>
<path d="M237.932 122.588C238.493 122.927 238.936 123.396 239.212 123.945C239.487 124.494 239.584 125.1 239.49 125.694L238.508 131.203C238.298 132.373 237.261 132.883 236.17 132.339L212.01 120.02C211.448 119.679 211.005 119.207 210.73 118.656C210.454 118.105 210.358 117.497 210.452 116.901L211.434 111.392C211.644 110.221 212.681 109.719 213.772 110.263L237.932 122.588Z" fill="#4980EA"/>
<path d="M162.721 75.4892L162.722 75.4847L166.929 57.7095C167.155 56.8309 167.661 56.2419 168.251 55.9572C168.838 55.6746 169.585 55.6538 170.384 56.0595C170.384 56.0595 170.384 56.0596 170.384 56.0596L191.402 66.7627C192.319 67.3056 193.019 68.0677 193.427 68.9415C193.836 69.818 193.939 70.776 193.727 71.6979C193.726 71.6993 193.726 71.7007 193.726 71.702L189.394 89.474C189.394 89.4743 189.394 89.4747 189.394 89.4751C189.178 90.351 188.674 90.9405 188.082 91.2257C187.495 91.5089 186.748 91.5282 185.962 91.1249L185.96 91.1238L164.947 80.4233C164.05 79.8705 163.371 79.1059 162.981 78.2353C162.587 77.3587 162.499 76.4048 162.721 75.4892Z" stroke="white" stroke-width="1.5"/>
<path d="M146.328 60.1539L146.866 61.235L144.894 62.1922L146.227 64.8433L145.424 65.2358L143.554 61.5105L146.328 60.1539Z" fill="white"/>
<path d="M205.293 82.4086L207.164 86.1339L204.389 87.4904L203.844 86.4162L205.816 85.4453L204.491 82.808L205.293 82.4086Z" fill="white"/>
<path d="M219.017 88.0823V88.1649L218.876 88.8535V88.9568L218.954 89.0325L220.1 89.6179H220.194L220.24 89.5421L220.334 88.8535H220.396C220.632 88.9421 220.89 88.9777 221.145 88.9573C221.401 88.9369 221.647 88.861 221.861 88.7365C222.067 88.6015 222.238 88.429 222.362 88.2305C222.486 88.0321 222.559 87.8124 222.578 87.5865C222.66 87.1644 222.62 86.7311 222.461 86.3264C222.333 85.9885 222.147 85.6702 221.908 85.383C221.69 85.1351 221.386 84.8252 220.989 84.4465L220.209 83.689C220.071 83.5452 219.955 83.3854 219.866 83.2139C219.804 83.074 219.782 82.9224 219.804 82.7732C219.843 82.5666 219.936 82.4495 220.092 82.4082C220.194 82.3927 220.297 82.395 220.398 82.4151C220.498 82.4352 220.593 82.4727 220.677 82.5253C220.986 82.6845 221.232 82.9253 221.378 83.2139C221.519 83.4556 221.576 83.7287 221.542 83.9989V84.0678V84.171L221.612 84.2537L222.875 84.8941H222.96L223.007 84.8252V84.6737C223.109 84.1156 223.033 83.5435 222.789 83.0211C222.56 82.4733 222.186 81.9821 221.698 81.5888V81.5062L221.846 80.7418V80.6385L221.768 80.5559L220.622 79.9775H220.537L220.49 80.0463L220.365 80.8176L220.318 80.8658C220.106 80.7949 219.879 80.768 219.653 80.7871C219.427 80.8062 219.21 80.8708 219.017 80.9759C218.822 81.1051 218.66 81.2697 218.544 81.4585C218.427 81.6474 218.357 81.8561 218.339 82.0708C218.26 82.4948 218.298 82.9292 218.448 83.3378C218.588 83.7244 218.796 84.0892 219.064 84.4189C219.35 84.7672 219.663 85.0984 219.999 85.4105L220.186 85.5896C220.448 85.8287 220.69 86.0841 220.911 86.3539C221.032 86.5161 221.082 86.7122 221.051 86.9048C221.042 86.9788 221.013 87.0498 220.967 87.1121C220.921 87.1744 220.859 87.2261 220.786 87.2629C220.68 87.2931 220.568 87.2995 220.459 87.2814C220.35 87.2634 220.248 87.2215 220.162 87.1596C219.831 87.0037 219.559 86.7639 219.383 86.471C219.22 86.2514 219.148 85.9885 219.18 85.7273V85.6033V85.4932L219.103 85.4174L217.863 84.7839H217.778L217.723 84.8528V85.0525C217.624 85.5998 217.691 86.1606 217.918 86.6775C218.151 87.2171 218.528 87.699 219.017 88.0823Z" fill="#2E3138"/>
<path d="M230.824 88.9161L232.18 89.6047H232.266L232.32 89.5359L232.359 89.288C232.364 89.2032 232.393 89.1208 232.443 89.0486C232.494 88.9763 232.564 88.9166 232.648 88.8748C232.74 88.8452 232.84 88.836 232.938 88.8479C233.036 88.8599 233.129 88.8928 233.209 88.9437C233.419 89.0511 233.587 89.2119 233.692 89.405C233.802 89.5887 233.843 89.7985 233.809 90.0041C233.754 90.3002 233.38 90.6238 232.694 90.9819L232.016 91.34C231.434 91.665 230.833 91.9638 230.216 92.2352C230.193 92.2508 230.173 92.2704 230.158 92.2929C230.143 92.3153 230.134 92.3402 230.13 92.366L229.928 93.5091V93.6124L230.006 93.695L234.425 95.9536H234.518L234.565 95.8847L234.783 94.6659V94.5626L234.705 94.4869L232.297 93.2612V93.2199V93.1785L232.523 93.0821C232.991 92.8756 233.349 92.7034 233.614 92.5795C233.862 92.4546 234.102 92.3166 234.331 92.1663C234.615 91.9973 234.863 91.7852 235.064 91.5397C235.242 91.3117 235.357 91.0499 235.399 90.7753C235.471 90.3707 235.441 89.957 235.313 89.5634C235.03 88.6906 234.373 87.9496 233.482 87.4976C233.125 87.3024 232.722 87.1822 232.305 87.1464C231.968 87.1235 231.633 87.2146 231.37 87.4012C231.088 87.6124 230.9 87.9053 230.84 88.2275L230.746 88.744V88.8541L230.824 88.9161Z" fill="#2E3138"/>
<path d="M225.665 91.1333C225.969 91.5722 226.393 91.9368 226.897 92.1938C227.302 92.4343 227.793 92.5348 228.276 92.4761C228.485 92.4404 228.683 92.3637 228.854 92.2517C229.026 92.1397 229.166 91.9952 229.266 91.8288C229.462 91.5377 229.59 91.2144 229.64 90.8786C229.706 90.4952 229.706 90.1051 229.64 89.7217C229.549 89.1095 229.228 88.542 228.728 88.1104V88.0622L230.045 87.6628C230.07 87.6512 230.092 87.6345 230.108 87.6141C230.124 87.5938 230.135 87.5704 230.139 87.5457L230.38 86.1685V86.0652L230.31 85.9895L226.195 83.9237H226.11L226.055 83.9926L225.837 85.2045V85.3078L225.907 85.3904L227.972 86.444V86.4853L226.305 86.9535L226.242 87.0224V87.1188L226.725 88.496L226.803 88.5993H226.881L227.248 88.5304C227.334 88.5277 227.42 88.5443 227.497 88.5786C227.635 88.6543 227.753 88.7547 227.845 88.8733C227.936 88.9919 227.998 89.1261 228.027 89.2672C228.078 89.5316 228.078 89.8016 228.027 90.066C227.998 90.2856 227.91 90.4958 227.77 90.6789C227.733 90.7238 227.687 90.7618 227.634 90.7907C227.581 90.8196 227.522 90.8388 227.46 90.8472C227.398 90.8555 227.335 90.8528 227.275 90.8393C227.214 90.8258 227.157 90.8016 227.107 90.7684C226.968 90.6972 226.853 90.5952 226.772 90.4723C226.678 90.3431 226.617 90.1974 226.593 90.0453C226.57 89.86 226.57 89.6729 226.593 89.4876C226.6 89.4521 226.595 89.4153 226.576 89.383C226.558 89.3506 226.528 89.3245 226.492 89.3085L225.135 88.6199C225.065 88.5855 225.019 88.6199 225.003 88.6819C224.956 89.0158 224.956 89.3534 225.003 89.6873C225.102 90.2062 225.328 90.6998 225.665 91.1333Z" fill="#2E3138"/>
<path d="M245.172 101.428V101.518L245.032 102.206V102.31L245.11 102.385L246.255 102.971H246.341L246.396 102.902L246.489 102.213L246.544 102.179C246.767 102.263 247.009 102.3 247.251 102.287C247.494 102.274 247.729 102.211 247.939 102.103C248.144 101.967 248.314 101.793 248.437 101.593C248.559 101.394 248.631 101.173 248.648 100.946C248.728 100.527 248.69 100.097 248.539 99.6931C248.408 99.3548 248.219 99.0365 247.978 98.7497C247.767 98.5018 247.463 98.1919 247.066 97.8132C246.669 97.4344 246.466 97.221 246.287 97.0488C246.144 96.9103 246.028 96.7522 245.944 96.5806C245.878 96.4415 245.856 96.2891 245.881 96.1399C245.92 95.9402 246.014 95.8162 246.17 95.7749C246.372 95.7454 246.579 95.7875 246.746 95.892C247.06 96.0469 247.306 96.289 247.448 96.5806C247.593 96.8211 247.65 97.0953 247.612 97.3656V97.4345V97.5377L247.682 97.6204L248.936 98.2608H249.139L249.194 98.1919V98.0473C249.29 97.4874 249.217 96.9149 248.983 96.3878C248.746 95.8422 248.37 95.3521 247.884 94.9555V94.8729L248.04 94.1085V94.0052L247.97 93.9226L246.832 93.3442H246.739L246.692 93.4199L246.567 94.1843L246.513 94.2325C246.301 94.1621 246.073 94.1355 245.847 94.1545C245.622 94.1736 245.404 94.238 245.211 94.3426C245.017 94.4722 244.857 94.6369 244.742 94.8258C244.626 95.0147 244.557 95.2233 244.541 95.4375C244.459 95.8614 244.496 96.2965 244.65 96.7045C244.787 97.0908 244.992 97.4556 245.258 97.7856C245.55 98.1322 245.865 98.4633 246.201 98.7772L246.38 98.9494C246.645 99.1883 246.888 99.4463 247.105 99.7206C247.232 99.8807 247.285 100.078 247.253 100.271C247.244 100.346 247.215 100.418 247.167 100.48C247.119 100.543 247.055 100.594 246.98 100.63C246.832 100.698 246.63 100.664 246.357 100.526C246.026 100.369 245.755 100.13 245.577 99.8377C245.419 99.6189 245.35 99.3589 245.383 99.1009V98.9769V98.8667L245.305 98.791L244.065 98.1575H243.972L243.925 98.2332V98.426C243.826 98.9734 243.894 99.5342 244.12 100.051C244.346 100.576 244.706 101.047 245.172 101.428Z" fill="#2E3138"/>
<path d="M255.631 99.1003C255.311 98.7309 254.911 98.4218 254.454 98.1914C254.101 97.9953 253.7 97.8751 253.285 97.8402C252.946 97.8162 252.608 97.9073 252.342 98.095C252.061 98.309 251.876 98.6044 251.82 98.9282L251.726 99.4446V99.5479L251.797 99.6237L253.153 100.312H253.238L253.293 100.243V99.9955C253.297 99.9097 253.326 99.8264 253.378 99.7539C253.43 99.6813 253.503 99.6222 253.589 99.5824C253.68 99.5515 253.779 99.5416 253.876 99.5536C253.973 99.5657 254.064 99.5993 254.142 99.6512C254.352 99.7587 254.521 99.9194 254.626 100.113C254.739 100.295 254.781 100.506 254.743 100.712C254.688 101.008 254.322 101.338 253.636 101.689L252.95 102.048C252.37 102.377 251.769 102.676 251.15 102.943C251.127 102.959 251.109 102.978 251.095 103.001C251.082 103.024 251.074 103.048 251.072 103.074L250.869 104.217V104.327L250.939 104.403L255.366 106.661H255.452L255.506 106.592L255.717 105.38V105.27L255.647 105.194L253.238 103.969L253.199 103.927V103.886L253.425 103.79L254.509 103.287C254.76 103.164 255.003 103.026 255.234 102.874C255.515 102.705 255.761 102.493 255.958 102.247C256.139 102.02 256.256 101.758 256.301 101.483C256.369 101.078 256.34 100.665 256.215 100.271C256.107 99.8514 255.909 99.454 255.631 99.1003Z" fill="#2E3138"/>
<path d="M213.094 100.808L233.482 111.206L233.7 109.987L213.312 99.5892L213.094 100.808Z" fill="#2E3138"/>
<path d="M213.951 95.9879L254.586 116.722L255.023 114.284L214.388 93.5503L213.951 95.9879Z" fill="#2E3138"/>
<path d="M237.191 97.0894L241.353 97.2202C241.415 97.2202 241.446 97.1789 241.462 97.11L241.688 95.8568C241.694 95.8237 241.691 95.7898 241.68 95.7577C241.67 95.7255 241.651 95.6959 241.626 95.6709L238.119 91.8836L238.025 91.8285L237.963 91.9042L237.721 93.2814C237.714 93.3141 237.716 93.3476 237.725 93.3797C237.734 93.4118 237.752 93.4418 237.776 93.4673L239.896 95.5951V95.6571L237.441 95.4643C237.412 95.4643 237.384 95.4744 237.363 95.4925C237.343 95.5106 237.331 95.5351 237.331 95.5607L237.09 96.9379C237.09 97.0136 237.09 97.0618 237.144 97.0894H237.191Z" fill="#2E3138"/>
<path d="M261.476 102.509C261.132 101.865 260.571 101.331 259.87 100.98C259.612 100.81 259.31 100.701 258.991 100.662C258.672 100.624 258.347 100.657 258.047 100.76C257.769 100.921 257.538 101.137 257.374 101.393C257.21 101.648 257.118 101.934 257.104 102.227L256.659 104.747C256.515 105.469 256.618 106.212 256.956 106.882C257.281 107.525 257.826 108.062 258.514 108.417C258.774 108.59 259.08 108.701 259.402 108.739C259.724 108.776 260.052 108.739 260.354 108.631C260.635 108.466 260.868 108.245 261.033 107.985C261.198 107.725 261.291 107.434 261.304 107.136L261.756 104.616C261.902 103.905 261.804 103.171 261.476 102.509ZM260.229 103.755L259.753 106.434C259.752 106.542 259.721 106.648 259.664 106.744C259.607 106.84 259.526 106.922 259.426 106.985C259.329 107.03 259.219 107.05 259.11 107.041C259.001 107.033 258.897 106.996 258.81 106.937C258.574 106.822 258.391 106.636 258.296 106.413C258.185 106.169 258.155 105.901 258.21 105.642L258.686 102.97C258.689 102.861 258.72 102.753 258.776 102.655C258.833 102.557 258.914 102.472 259.013 102.406C259.106 102.362 259.211 102.343 259.316 102.35C259.421 102.357 259.521 102.391 259.605 102.447C259.845 102.565 260.032 102.752 260.135 102.977C260.248 103.214 260.28 103.475 260.229 103.728V103.755Z" fill="#2E3138"/>
<path d="M215.627 115.806C215.482 115.657 215.308 115.531 215.113 115.434C214.958 115.352 214.785 115.298 214.606 115.276C214.464 115.261 214.321 115.29 214.201 115.359C214.087 115.432 214.009 115.54 213.983 115.662L214.022 115.73L214.637 116.144H214.707C214.719 116.125 214.736 116.11 214.757 116.099C214.777 116.088 214.8 116.082 214.824 116.082C214.89 116.083 214.955 116.1 215.011 116.13C215.1 116.174 215.17 116.242 215.214 116.323C215.241 116.399 215.241 116.481 215.214 116.557V116.653L214.793 116.433C214.693 116.367 214.578 116.32 214.455 116.296C214.333 116.273 214.206 116.272 214.084 116.295C213.897 116.343 213.788 116.495 213.749 116.743C213.709 116.957 213.747 117.176 213.858 117.369C213.98 117.563 214.161 117.723 214.38 117.831C214.645 117.968 214.848 117.975 214.996 117.831V117.989V118.044L215.611 118.361V118.326L215.9 116.708C215.924 116.543 215.903 116.375 215.837 116.219C215.79 116.074 215.719 115.935 215.627 115.806ZM215.136 117.218C215.136 117.321 215.066 117.39 214.98 117.411C214.931 117.424 214.88 117.426 214.829 117.418C214.779 117.409 214.732 117.39 214.692 117.362C214.623 117.326 214.566 117.274 214.528 117.211C214.492 117.149 214.479 117.08 214.489 117.011C214.489 116.929 214.544 116.887 214.614 116.874C214.709 116.868 214.803 116.892 214.879 116.942L215.136 117.073V117.218Z" fill="white"/>
<path d="M221.192 117.658L220.576 117.341L220.303 118.346C220.235 118.147 220.081 117.979 219.875 117.878C219.792 117.829 219.699 117.795 219.601 117.78C219.503 117.765 219.403 117.768 219.306 117.789C219.132 117.841 218.989 117.953 218.908 118.099C218.808 118.271 218.742 118.457 218.714 118.649C218.683 118.844 218.683 119.041 218.714 119.235C218.732 119.476 218.81 119.711 218.94 119.923C219.05 120.115 219.221 120.275 219.431 120.385C219.507 120.441 219.604 120.471 219.703 120.471C219.803 120.471 219.899 120.441 219.976 120.385V120.536V120.584V120.619L220.592 120.936H220.631L221.208 117.727V117.679L221.192 117.658ZM220.148 119.421C220.129 119.549 220.081 119.673 220.007 119.786C219.991 119.806 219.97 119.824 219.946 119.838C219.922 119.852 219.895 119.861 219.867 119.865C219.838 119.87 219.809 119.869 219.781 119.864C219.753 119.859 219.727 119.848 219.703 119.834C219.639 119.799 219.584 119.751 219.542 119.696C219.501 119.64 219.473 119.576 219.462 119.51C219.434 119.362 219.434 119.211 219.462 119.063C219.481 118.927 219.537 118.797 219.625 118.684C219.661 118.644 219.712 118.618 219.768 118.611C219.825 118.603 219.882 118.614 219.929 118.643C220.044 118.714 220.123 118.823 220.148 118.946C220.179 119.093 220.179 119.245 220.148 119.393V119.421Z" fill="white"/>
<path d="M218.745 116.391L218.129 116.081H218.083L217.911 117.066C217.839 116.87 217.686 116.705 217.482 116.605C217.406 116.551 217.317 116.514 217.222 116.496C217.126 116.478 217.028 116.48 216.933 116.501C216.839 116.523 216.752 116.563 216.678 116.619C216.604 116.675 216.546 116.746 216.508 116.825C216.409 116.998 216.343 117.184 216.313 117.376C216.286 117.57 216.286 117.767 216.313 117.961C216.335 118.203 216.415 118.438 216.547 118.65C216.658 118.842 216.828 119.002 217.038 119.111C217.114 119.167 217.209 119.197 217.307 119.197C217.405 119.197 217.5 119.167 217.576 119.111V119.263V119.318V119.352L218.199 119.669L218.776 116.453L218.745 116.391ZM217.662 118.12C217.649 118.249 217.601 118.375 217.521 118.485C217.506 118.506 217.485 118.525 217.461 118.539C217.437 118.553 217.41 118.563 217.381 118.567C217.353 118.572 217.323 118.571 217.295 118.565C217.267 118.559 217.241 118.548 217.217 118.533C217.156 118.497 217.103 118.451 217.063 118.396C217.022 118.342 216.996 118.28 216.984 118.216C216.952 118.068 216.952 117.916 216.984 117.768C216.998 117.631 217.054 117.5 217.147 117.39C217.163 117.369 217.183 117.351 217.207 117.338C217.23 117.324 217.257 117.315 217.285 117.311C217.313 117.307 217.341 117.309 217.369 117.315C217.396 117.321 217.421 117.333 217.443 117.348C217.503 117.382 217.554 117.426 217.593 117.479C217.632 117.531 217.658 117.59 217.669 117.651C217.704 117.806 217.698 117.966 217.654 118.12H217.662Z" fill="white"/>
<path d="M225.034 120.495C224.933 120.435 224.82 120.393 224.701 120.372C224.582 120.351 224.459 120.35 224.34 120.371C224.233 120.402 224.136 120.454 224.054 120.521C223.972 120.589 223.907 120.672 223.865 120.764C223.795 120.904 223.748 121.053 223.724 121.204C223.705 121.353 223.705 121.503 223.724 121.652C223.737 121.937 223.825 122.215 223.981 122.465C224.126 122.7 224.342 122.896 224.605 123.029C224.707 123.091 224.824 123.134 224.946 123.153C225.068 123.172 225.194 123.167 225.314 123.139C225.427 123.102 225.529 123.043 225.611 122.965C225.694 122.887 225.755 122.794 225.79 122.692C225.85 122.564 225.892 122.43 225.914 122.292C225.998 121.859 225.91 121.414 225.665 121.032C225.512 120.807 225.294 120.622 225.034 120.495ZM225.166 121.934C225.147 122.023 225.121 122.11 225.088 122.196C225.057 122.268 225 122.329 224.924 122.368C224.89 122.386 224.851 122.396 224.811 122.396C224.772 122.396 224.733 122.386 224.698 122.368C224.615 122.321 224.547 122.254 224.504 122.175C224.457 122.079 224.43 121.977 224.426 121.872C224.418 121.778 224.418 121.684 224.426 121.59C224.442 121.499 224.468 121.409 224.504 121.321C224.589 121.142 224.722 121.094 224.885 121.184C224.971 121.226 225.039 121.291 225.08 121.37C225.128 121.46 225.155 121.559 225.158 121.659C225.168 121.75 225.171 121.842 225.166 121.934Z" fill="white"/>
<path d="M223.701 119.883V119.841L223.303 119.642V119.6L223.405 119.022V118.98L222.812 118.677L222.711 119.249L222.462 119.118H222.423L222.329 119.635V119.724L222.578 119.848V119.883L222.368 121.074C222.318 121.275 222.351 121.485 222.462 121.666C222.604 121.839 222.787 121.983 222.999 122.086L223.303 122.231L223.366 122.189L223.467 121.638V121.59V121.556L223.303 121.48C223.236 121.439 223.184 121.381 223.156 121.313C223.128 121.245 223.125 121.171 223.147 121.101L223.303 120.234L223.693 120.433H223.74V120.392L223.825 119.876L223.701 119.883Z" fill="white"/>
<path d="M233.178 124.654C233.107 124.604 233.019 124.577 232.928 124.577C232.838 124.577 232.75 124.604 232.679 124.654V124.503V124.455L232.64 124.42L232.024 124.11H231.993L231.572 126.452V126.507L231.611 126.541L232.227 126.858H232.266L232.492 125.612C232.493 125.569 232.507 125.528 232.532 125.492C232.556 125.456 232.591 125.426 232.632 125.405C232.67 125.389 232.711 125.381 232.753 125.381C232.795 125.381 232.836 125.389 232.874 125.405L232.991 125.453C233.043 125.476 233.09 125.506 233.131 125.543H233.209L233.419 124.93V124.847C233.358 124.766 233.275 124.7 233.178 124.654Z" fill="white"/>
<path d="M231.104 123.711C230.964 123.56 230.792 123.434 230.598 123.339C230.441 123.253 230.266 123.196 230.083 123.174C229.942 123.163 229.8 123.192 229.678 123.257C229.566 123.334 229.489 123.444 229.46 123.567L229.506 123.635L230.114 124.042H230.184C230.197 124.024 230.214 124.01 230.235 124C230.255 123.991 230.278 123.986 230.301 123.987C230.368 123.985 230.433 124.002 230.488 124.035C230.578 124.075 230.649 124.14 230.691 124.221C230.738 124.294 230.754 124.379 230.738 124.462V124.551L230.317 124.338C230.217 124.271 230.102 124.223 229.98 124.198C229.858 124.173 229.731 124.172 229.608 124.193C229.429 124.241 229.312 124.393 229.273 124.641C229.231 124.855 229.272 125.076 229.39 125.267C229.506 125.462 229.685 125.623 229.904 125.729C230.177 125.867 230.379 125.873 230.52 125.729V125.894V125.942L231.135 126.259H231.174V126.218L231.463 124.599C231.49 124.437 231.471 124.272 231.408 124.117C231.331 123.969 231.229 123.832 231.104 123.711ZM230.613 125.123C230.612 125.164 230.597 125.204 230.569 125.238C230.541 125.271 230.502 125.296 230.457 125.309C230.41 125.321 230.36 125.324 230.311 125.317C230.263 125.31 230.217 125.293 230.177 125.267C230.105 125.232 230.046 125.179 230.005 125.116C229.97 125.052 229.956 124.98 229.966 124.909C229.966 124.827 230.021 124.785 230.091 124.772C230.186 124.767 230.279 124.791 230.356 124.84L230.621 124.978L230.613 125.123Z" fill="white"/>
<path d="M228.93 122.692C228.777 122.482 228.572 122.305 228.33 122.175C228.134 122.064 227.899 122.018 227.668 122.045C227.565 122.064 227.469 122.104 227.387 122.161C227.304 122.218 227.238 122.292 227.192 122.375C227.103 122.533 227.045 122.703 227.021 122.878C226.99 123.072 226.99 123.269 227.021 123.463C227.057 123.724 227.155 123.975 227.309 124.2C227.455 124.411 227.659 124.586 227.902 124.71C228.093 124.826 228.326 124.875 228.556 124.847C228.659 124.83 228.755 124.792 228.838 124.736C228.92 124.679 228.987 124.607 229.032 124.524C229.053 124.474 229.072 124.424 229.086 124.372L229.047 124.296L228.455 123.883H228.393C228.38 123.912 228.36 123.939 228.335 123.96C228.309 123.982 228.278 123.998 228.245 124.007C228.172 124.018 228.097 124.006 228.034 123.973C227.957 123.928 227.893 123.868 227.847 123.797C227.801 123.727 227.774 123.648 227.769 123.566C227.754 123.443 227.754 123.318 227.769 123.195C227.79 123.079 227.827 122.965 227.878 122.857C227.892 122.829 227.913 122.804 227.94 122.784C227.967 122.764 227.998 122.749 228.032 122.742C228.066 122.735 228.102 122.734 228.136 122.741C228.17 122.748 228.202 122.762 228.229 122.781C228.299 122.822 228.358 122.876 228.4 122.94C228.45 123.002 228.485 123.072 228.502 123.146V123.27L228.548 123.346L229.172 123.553L229.234 123.511C229.242 123.443 229.242 123.373 229.234 123.305C229.182 123.084 229.078 122.876 228.93 122.692Z" fill="white"/>
<path d="M235.048 125.666L234.651 125.466V125.425L234.752 124.847V124.805L234.713 124.764L234.129 124.468H234.09L233.988 125.046L233.739 124.922H233.7L233.606 125.439V125.487L233.645 125.528L233.895 125.652V125.687L233.684 126.871C233.639 127.075 233.671 127.286 233.778 127.47C233.916 127.645 234.101 127.786 234.316 127.883L234.62 128.028L234.69 127.994L234.783 127.443V127.395L234.744 127.36L234.588 127.278C234.522 127.238 234.471 127.18 234.445 127.113C234.418 127.046 234.417 126.973 234.44 126.906L234.588 126.038L234.986 126.245V126.21L235.079 125.694L235.048 125.666Z" fill="white"/>
<path d="M235.874 92.0696L235.586 93.6603L217.209 84.2816L217.49 82.6909L235.874 92.0696Z" fill="#FC404A"/>
<path d="M167.938 91.8564L160.145 87.89C159.42 87.5251 158.672 87.89 158.469 88.6888L156.872 95.2718C156.774 95.6715 156.814 96.0877 156.984 96.4677C157.155 96.8477 157.449 97.1744 157.83 97.4065L165.624 101.373C166.348 101.745 167.097 101.373 167.291 100.581L168.897 93.9979C168.996 93.5972 168.957 93.1796 168.787 92.7982C168.616 92.4168 168.321 92.0889 167.938 91.8564Z" fill="white"/>
<path d="M149.975 90.5208L142.182 86.5545C141.449 86.1827 140.709 86.5545 140.506 87.3464L138.948 93.9294C138.85 94.3291 138.89 94.7453 139.06 95.1253C139.231 95.5053 139.525 95.832 139.906 96.0641L147.7 100.03C148.425 100.402 149.173 100.03 149.368 99.2385L150.973 92.6555C151.066 92.2524 151.021 91.8338 150.843 91.4535C150.666 91.0732 150.363 90.7484 149.975 90.5208Z" fill="white"/>
<path d="M193.088 104.692L185.295 100.726C184.57 100.361 183.822 100.726 183.619 101.525L182.021 108.101C181.923 108.501 181.961 108.919 182.132 109.3C182.302 109.682 182.598 110.01 182.98 110.242L190.774 114.209C191.498 114.58 192.246 114.208 192.449 113.417L194.008 106.834C194.111 106.436 194.078 106.021 193.915 105.64C193.751 105.259 193.463 104.929 193.088 104.692Z" fill="white"/>
<path d="M180.556 98.2739L172.763 94.3076C172.038 93.9358 171.282 94.3076 171.087 95.1064L169.528 101.683C169.429 102.083 169.468 102.501 169.638 102.882C169.809 103.264 170.105 103.591 170.487 103.824L178.28 107.79C179.005 108.162 179.753 107.79 179.948 106.992L181.507 100.415C181.607 100.015 181.569 99.5983 181.4 99.217C181.231 98.8356 180.937 98.5074 180.556 98.2739Z" fill="white"/>
<path style="mix-blend-mode:overlay" opacity="0.4" d="M292.806 88.916L188.287 126.748L250.69 158.581L280.749 147.702L292.806 88.916Z" fill="url(#paint7_linear)"/>
<path style="mix-blend-mode:overlay" opacity="0.4" d="M131.48 83.5861L237.106 45.355L174.703 13.5211L143.537 24.8073L131.48 83.5861Z" fill="url(#paint8_linear)"/>
<defs>
<linearGradient id="paint0_linear" x1="66.5998" y1="88.1449" x2="89.7854" y2="88.1449" gradientUnits="userSpaceOnUse">
<stop stop-color="#4E576B"/>
<stop offset="1" stop-color="#282D38"/>
</linearGradient>
<linearGradient id="paint1_linear" x1="83.6294" y1="96.8907" x2="106.815" y2="96.8907" gradientUnits="userSpaceOnUse">
<stop stop-color="#525C73"/>
<stop offset="1" stop-color="#373E4D"/>
</linearGradient>
<linearGradient id="paint2_linear" x1="187.524" y1="206.247" x2="253.629" y2="206.247" gradientUnits="userSpaceOnUse">
<stop stop-color="white"/>
<stop offset="1" stop-color="#DFE3EB" stop-opacity="0"/>
</linearGradient>
<linearGradient id="paint3_linear" x1="196.525" y1="147.819" x2="191.889" y2="168.646" gradientUnits="userSpaceOnUse">
<stop stop-color="#C8D5F5"/>
<stop offset="1" stop-color="white"/>
</linearGradient>
<linearGradient id="paint4_linear" x1="8175.63" y1="3802.97" x2="10581.8" y2="3802.97" gradientUnits="userSpaceOnUse">
<stop stop-color="#C8D5F5"/>
<stop offset="1" stop-color="white"/>
</linearGradient>
<linearGradient id="paint5_linear" x1="23968" y1="21190.4" x2="52247.3" y2="21190.4" gradientUnits="userSpaceOnUse">
<stop stop-color="#4E576B"/>
<stop offset="1" stop-color="#282D38"/>
</linearGradient>
<linearGradient id="paint6_linear" x1="22330" y1="21191.2" x2="57737.3" y2="21191.2" gradientUnits="userSpaceOnUse">
<stop stop-color="#525C73"/>
<stop offset="1" stop-color="#373E4D"/>
</linearGradient>
<linearGradient id="paint7_linear" x1="22128.8" y1="12547.9" x2="36145.8" y2="12547.9" gradientUnits="userSpaceOnUse">
<stop stop-color="white"/>
<stop offset="1" stop-color="#DFE3EB" stop-opacity="0"/>
</linearGradient>
<linearGradient id="paint8_linear" x1="14605.3" y1="4893.54" x2="28920.7" y2="4893.54" gradientUnits="userSpaceOnUse">
<stop stop-color="white"/>
<stop offset="1" stop-color="#DFE3EB" stop-opacity="0"/>
</linearGradient>
</defs>
</svg>
