<svg width="21" height="20" viewBox="0 0 21 20" fill="none" xmlns="http://www.w3.org/2000/svg">
<path d="M8.22169 7.1088L10.1914 0.969861L12.161 7.1088C12.2673 7.43985 12.5751 7.66439 12.9228 7.66439H19.3117L14.1343 11.4737C13.8575 11.6774 13.7417 12.0352 13.8467 12.3625L15.8214 18.5171L10.6655 14.7236C10.3835 14.5161 9.99928 14.5161 9.71726 14.7236L4.56134 18.5171L6.53605 12.3625C6.64106 12.0352 6.52527 11.6774 6.2484 11.4737L1.07101 7.66439H7.45994C7.80761 7.66439 8.11548 7.43985 8.22169 7.1088ZM19.8025 7.3033L19.802 7.30365L19.8025 7.3033ZM4.06357 18.8834C4.06367 18.8833 4.06377 18.8832 4.06386 18.8831L4.06357 18.8834Z" stroke="#3878F4"/>
</svg>
